<svg width="6" height="6" viewBox="0 0 6 6" fill="none" xmlns="http://www.w3.org/2000/svg">
<path d="M4.30291 1.44432C4.7417 1.79888 5.05066 2.24445 5.16854 2.8006C5.17182 2.81528 5.17509 2.82996 5.17846 2.84508C5.30335 3.45186 5.1575 4.07484 4.82924 4.59149C4.78956 4.6511 4.74922 4.70993 4.70126 4.76318C4.68893 4.76318 4.67659 4.76318 4.66388 4.76318C4.65752 4.77821 4.65752 4.77821 4.65103 4.79355C4.59174 4.90084 4.50191 4.99141 4.4022 5.06224C4.38987 5.06224 4.37753 5.06224 4.36482 5.06224C4.36482 5.07457 4.36482 5.08691 4.36482 5.09962C4.32496 5.13043 4.28537 5.15848 4.24333 5.18607C4.23074 5.19436 4.21815 5.20265 4.20518 5.2112C3.68484 5.54696 3.06576 5.6925 2.45423 5.56391C2.4309 5.55873 2.40758 5.55355 2.38355 5.54821C2.35435 5.54246 2.35435 5.54246 2.32456 5.5366C2.00364 5.46715 1.67844 5.29375 1.4303 5.08093C1.4076 5.06163 1.4076 5.06163 1.38445 5.04194C0.931845 4.64626 0.640703 4.09404 0.589193 3.49217C0.553956 2.83732 0.752654 2.25972 1.16862 1.75389C1.17675 1.74385 1.18489 1.7338 1.19327 1.72345C1.23616 1.67096 1.27932 1.62256 1.331 1.57866C1.34187 1.56926 1.35273 1.55987 1.36393 1.55019C1.39292 1.5296 1.39292 1.5296 1.4303 1.5296C1.4303 1.51726 1.4303 1.50492 1.4303 1.49221C2.23475 0.80639 3.47635 0.820453 4.30291 1.44432Z" fill="#31BA77"/>
</svg>
