<svg width="8" height="13" viewBox="0 0 8 13" fill="none" xmlns="http://www.w3.org/2000/svg">
<path d="M6.82845 11.7553L6.99788 11.9392C7.07662 11.8666 7.13962 11.7786 7.18299 11.6807C7.22635 11.5828 7.24915 11.477 7.24998 11.3699C7.2508 11.2629 7.22964 11.1567 7.18779 11.0582C7.14608 10.9599 7.0847 10.8712 7.00743 10.7976C7.00719 10.7973 7.00694 10.7971 7.0067 10.7969L2.7023 6.64351L2.7023 6.64351L2.70086 6.64214C2.67314 6.61581 2.65106 6.58412 2.63597 6.54899C2.62089 6.51385 2.61311 6.47602 2.61311 6.43779C2.61311 6.39956 2.62089 6.36173 2.63597 6.3266C2.65106 6.29146 2.67314 6.25977 2.70086 6.23344L2.70086 6.23345L2.70231 6.23206L6.97218 2.11157C6.97246 2.1113 6.97275 2.11103 6.97304 2.11076C7.04955 2.03793 7.1105 1.95033 7.1522 1.85327C7.19406 1.75584 7.21564 1.65092 7.21564 1.54488C7.21564 1.43884 7.19406 1.33391 7.1522 1.23649C7.11047 1.13935 7.04945 1.0517 6.97286 0.978829C6.65522 0.673606 6.14506 0.673508 5.82792 0.979656L1.15869 5.48586C1.15843 5.4861 1.15818 5.48634 1.15792 5.48659C1.02916 5.60915 0.926607 5.75659 0.856487 5.91996C0.78623 6.08366 0.749999 6.25993 0.749999 6.43806C0.749999 6.6162 0.78623 6.79247 0.856487 6.95617C0.926611 7.11955 1.02917 7.26699 1.15795 7.38956L5.86175 11.9298L5.86174 11.9298L5.86314 11.9311C6.01594 12.0763 6.2183 12.158 6.42911 12.1594C6.63992 12.1609 6.84338 12.082 6.99817 11.9389L6.82845 11.7553ZM6.82845 11.7553C6.88203 11.7059 6.92489 11.6461 6.9544 11.5795C6.98391 11.5128 6.99942 11.4409 6.99998 11.368C7.00055 11.2951 6.98614 11.2229 6.95767 11.1559C6.9292 11.0888 6.88726 11.0283 6.83445 10.9781L6.03537 11.7499C6.14214 11.8514 6.28353 11.9084 6.43083 11.9094C6.57813 11.9104 6.72029 11.8553 6.82845 11.7553Z" fill="#111C30" stroke="#111C30" stroke-width="0.5"/>
</svg>
