<svg width="34" height="50" viewBox="0 0 34 50" fill="none" xmlns="http://www.w3.org/2000/svg">
<path d="M5.61084 50H28.3892C30.2495 50 31.7622 48.5449 31.7622 46.7568V15.7305H32.689C33.2417 15.7305 33.689 15.2827 33.689 14.7305V7.44238C33.689 6.33154 32.7856 5.42822 31.6753 5.42822H25.2665C23.8331 2.16107 20.6119 0 17.0005 0C13.3828 0 10.1357 2.15356 8.70581 5.42822H2.32471C1.21436 5.42822 0.311035 6.33154 0.311035 7.44238V14.7305C0.311035 15.2827 0.758305 15.7305 1.31104 15.7305H2.23779V46.7568C2.23778 48.5449 3.75048 50 5.61084 50ZM29.7622 46.7568C29.7622 47.4424 29.146 48 28.3892 48H5.61084C4.854 48 4.23779 47.4424 4.23779 46.7568V15.7305H29.7622L29.7622 46.7568ZM17.0005 2C19.5112 2 21.7935 3.33252 23.0493 5.42822H10.9507C12.2065 3.33252 14.4888 2 17.0005 2ZM2.32471 7.42822L31.689 7.44238V13.7305C29.2647 13.7305 9.75812 13.7305 2.31299 13.7305L2.32471 7.42822Z" fill="#010101"/>
<path d="M23.3843 44.8262C23.937 44.8262 24.3843 44.3784 24.3843 43.8262V21.5542C24.3843 21.0019 23.937 20.5542 23.3843 20.5542C22.8316 20.5542 22.3843 21.0019 22.3843 21.5542V43.8262C22.3843 44.3784 22.8315 44.8262 23.3843 44.8262ZM17.0005 44.8262C17.5532 44.8262 18.0005 44.3784 18.0005 43.8262V21.5542C18.0005 21.0019 17.5532 20.5542 17.0005 20.5542C16.4478 20.5542 16.0005 21.0019 16.0005 21.5542V43.8262C16.0005 44.3784 16.4478 44.8262 17.0005 44.8262ZM10.6157 44.8262C11.1685 44.8262 11.6157 44.3784 11.6157 43.8262V21.5542C11.6157 21.0019 11.1685 20.5542 10.6157 20.5542C10.063 20.5542 9.61572 21.0019 9.61572 21.5542V43.8262C9.61572 44.3784 10.063 44.8262 10.6157 44.8262Z" fill="#010101"/>
</svg>
