<svg width="11" height="15" viewBox="0 0 11 15" fill="none" xmlns="http://www.w3.org/2000/svg">
<path d="M9.83157 3.86122H8.19895C8.05667 3.32326 7.8052 2.82034 7.4602 2.38374H9.83157C10.0275 2.38374 10.2154 2.3059 10.3539 2.16736C10.4925 2.02882 10.5703 1.84092 10.5703 1.64499C10.5703 1.44907 10.4925 1.26116 10.3539 1.12262C10.2154 0.984082 10.0275 0.90625 9.83157 0.90625H1.7054C1.50947 0.90625 1.32157 0.984082 1.18303 1.12262C1.04449 1.26116 0.966654 1.44907 0.966654 1.64499C0.966654 1.84092 1.04449 2.02882 1.18303 2.16736C1.32157 2.3059 1.50947 2.38374 1.7054 2.38374H4.291C4.77874 2.38545 5.25606 2.52509 5.66782 2.78652C6.07959 3.04796 6.40901 3.42054 6.61804 3.86122H1.7054C1.50947 3.86122 1.32157 3.93905 1.18303 4.07759C1.04449 4.21614 0.966654 4.40404 0.966654 4.59996C0.966654 4.79589 1.04449 4.98379 1.18303 5.12233C1.32157 5.26088 1.50947 5.33871 1.7054 5.33871H6.8766C6.78804 5.95231 6.48195 6.51366 6.01413 6.92047C5.54631 7.32727 4.94789 7.55244 4.32793 7.55494H1.7054C1.67101 7.55148 1.63636 7.55148 1.60197 7.55494C1.55302 7.54731 1.50318 7.54731 1.45422 7.55494C1.40387 7.57209 1.35651 7.59701 1.31386 7.62881L1.22521 7.68052C1.18475 7.71707 1.1499 7.75939 1.12179 7.80611C1.09705 7.83886 1.07482 7.87343 1.0553 7.90953C1.04873 7.95361 1.04873 7.99843 1.0553 8.04251C1.00266 8.1162 0.971927 8.20327 0.966654 8.29368C0.963198 8.32807 0.963198 8.36272 0.966654 8.3971C0.959032 8.44606 0.959032 8.4959 0.966654 8.54485C0.983804 8.59521 1.00873 8.64257 1.04053 8.68521C1.04053 8.68521 1.04053 8.74431 1.09224 8.77386L5.5247 13.9451C5.65205 14.094 5.83334 14.1862 6.02868 14.2014C6.22403 14.2167 6.41742 14.1537 6.56633 14.0263C6.71523 13.899 6.80745 13.7177 6.82269 13.5223C6.83792 13.327 6.77494 13.1336 6.64759 12.9847L3.31586 9.03242H4.291C5.30755 9.03663 6.28875 8.65962 7.04095 7.97581C7.79314 7.292 8.26168 6.35106 8.35408 5.33871H9.83157C10.0275 5.33871 10.2154 5.26088 10.3539 5.12233C10.4925 4.98379 10.5703 4.79589 10.5703 4.59996C10.5703 4.40404 10.4925 4.21614 10.3539 4.07759C10.2154 3.93905 10.0275 3.86122 9.83157 3.86122Z" fill="black"/>
</svg>
