<svg width="23" height="21" viewBox="0 0 23 21" fill="none" xmlns="http://www.w3.org/2000/svg">
<path d="M9.88046 0.877443C9.90401 0.87746 9.92756 0.877478 9.95183 0.877495C9.97143 0.877471 9.97143 0.877471 9.99143 0.877447C10.0355 0.877416 10.0797 0.877519 10.1238 0.877621C10.1553 0.877626 10.1868 0.877623 10.2182 0.877613C10.304 0.877608 10.3898 0.877718 10.4755 0.877848C10.5651 0.877964 10.6546 0.877976 10.7441 0.877998C10.9138 0.878056 11.0835 0.87821 11.2531 0.878397C11.4462 0.878606 11.6393 0.878709 11.8324 0.878802C12.2298 0.878998 12.6271 0.879327 13.0244 0.879743C13.0452 0.956651 13.066 1.03357 13.0868 1.11049C13.0926 1.13202 13.0984 1.15356 13.1044 1.17575C13.1512 1.34914 13.1956 1.52301 13.2386 1.69736C13.2583 1.77716 13.2782 1.85692 13.298 1.93667C13.3019 1.95213 13.3057 1.96759 13.3097 1.98351C13.3444 2.12282 13.3803 2.26181 13.4174 2.4005C13.4416 2.49162 13.4637 2.58305 13.4849 2.6749C13.5446 2.93178 13.6111 3.18708 13.6761 3.44265C13.6903 3.4987 13.7046 3.55476 13.7188 3.61081C13.8169 3.99765 13.8169 3.99765 13.9182 4.38366C13.9748 4.59835 14.0267 4.81432 14.0795 5.02998C14.0966 5.09982 14.1138 5.16964 14.1309 5.23947C14.1525 5.32726 14.174 5.41506 14.1955 5.50288C14.2132 5.57486 14.2308 5.64683 14.2485 5.71879C14.2551 5.7458 14.2618 5.77281 14.2684 5.79983C14.3063 5.95505 14.347 6.10908 14.3915 6.26254C14.41 6.32733 14.4257 6.39201 14.4404 6.45775C14.4751 6.60911 14.5129 6.75964 14.5511 6.91014C14.5558 6.92869 14.5558 6.92869 14.5606 6.94761C14.5803 7.02483 14.5999 7.10205 14.6196 7.17926C14.6328 7.2311 14.6459 7.28294 14.6591 7.33478C14.7194 7.57223 14.78 7.80958 14.8423 8.0465C14.8727 8.16216 14.9021 8.27788 14.929 8.39441C14.9796 8.61403 15.0364 8.83213 15.0921 9.0505C15.1226 9.16975 15.1529 9.28902 15.1832 9.4083C15.1899 9.43457 15.1966 9.46085 15.2033 9.48712C15.2539 9.68598 15.3042 9.8849 15.3538 10.084C15.357 10.0965 15.3601 10.109 15.3633 10.1219C15.3798 10.1882 15.3963 10.2545 15.4128 10.3208C15.5545 10.8898 15.6967 11.4586 15.8408 12.0269C15.8541 12.0795 15.8674 12.132 15.8807 12.1846C15.8992 12.258 15.9178 12.3314 15.9365 12.4048C15.942 12.4266 15.9475 12.4485 15.9532 12.471C15.9583 12.4912 15.9635 12.5115 15.9688 12.5323C15.9755 12.5586 15.9755 12.5586 15.9823 12.5854C15.9975 12.6405 16.0152 12.6945 16.0337 12.7487C16.0377 12.7332 16.0377 12.7332 16.0417 12.7174C16.0701 12.6059 16.0985 12.4945 16.1269 12.383C16.138 12.3393 16.1492 12.2955 16.1603 12.2518C16.2719 11.8139 16.2719 11.8139 16.3259 11.604C16.3296 11.5895 16.3334 11.575 16.3372 11.5601C16.3409 11.5459 16.3445 11.5316 16.3483 11.517C16.3556 11.4887 16.3629 11.4604 16.3702 11.4321C16.3738 11.418 16.3774 11.4038 16.3812 11.3893C16.4568 11.0953 16.53 10.8008 16.6033 10.5062C16.6679 10.2471 16.7338 9.98844 16.8036 9.73064C16.8505 9.55688 16.8945 9.3825 16.9379 9.20784C16.9962 8.97319 17.0553 8.73876 17.1155 8.50459C17.1193 8.48959 17.1232 8.47459 17.1272 8.45914C17.143 8.39759 17.1588 8.33605 17.1746 8.2745C17.2257 8.07603 17.2764 7.87748 17.3271 7.67894C17.3723 7.50244 17.4174 7.32595 17.4629 7.14955C17.4779 7.09111 17.493 7.03268 17.508 6.97424C17.5117 6.95979 17.5154 6.94533 17.5193 6.93044C17.5955 6.6337 17.6695 6.33637 17.7435 6.03905C17.808 5.77988 17.874 5.52126 17.9438 5.26344C17.9906 5.08968 18.0347 4.9153 18.0781 4.74064C18.1364 4.50599 18.1955 4.27156 18.2556 4.03739C18.2595 4.02233 18.2634 4.00728 18.2674 3.99177C18.2872 3.91436 18.3071 3.83696 18.3271 3.75956C18.3687 3.59751 18.4104 3.43546 18.4519 3.27339C18.4582 3.24865 18.4582 3.24865 18.4647 3.22341C18.5299 2.96903 18.5938 2.71435 18.6572 2.45952C18.7459 2.10314 18.8372 1.74761 18.9323 1.3929C18.9484 1.33261 18.9643 1.27227 18.98 1.21188C18.9844 1.1949 18.9888 1.17792 18.9934 1.16043C19.0012 1.1304 19.009 1.10036 19.0167 1.07032C19.041 0.977305 19.041 0.977305 19.0617 0.935817C19.5395 0.931887 20.0174 0.928921 20.4952 0.927101C20.7171 0.926233 20.9389 0.925051 21.1608 0.923126C21.3542 0.92145 21.5476 0.920364 21.7409 0.919989C21.8433 0.91977 21.9457 0.919254 22.0481 0.918031C22.1445 0.916888 22.2409 0.916537 22.3373 0.91679C22.3726 0.916743 22.408 0.916409 22.4434 0.915764C22.7091 0.911152 22.7091 0.911152 22.7946 0.971833C22.8408 1.0277 22.8723 1.0724 22.8779 1.14575C22.8739 1.18635 22.8639 1.22136 22.8513 1.26014C22.8473 1.27457 22.8434 1.289 22.8393 1.30387C22.831 1.33432 22.8223 1.36469 22.8133 1.39496C22.7962 1.4532 22.7817 1.51192 22.7672 1.57083C22.752 1.63195 22.7361 1.69288 22.7203 1.75382C22.6978 1.84059 22.6755 1.9274 22.6532 2.01421C22.6485 2.03257 22.6438 2.05092 22.6389 2.06983C22.5703 2.33738 22.5038 2.60547 22.4372 2.87352C22.3816 3.09699 22.3246 3.32003 22.2662 3.54278C22.228 3.68843 22.1908 3.83432 22.1536 3.98021C22.1314 4.06703 22.1092 4.15384 22.0871 4.24065C22.0803 4.26705 22.0803 4.26705 22.0734 4.29398C22.0329 4.45258 21.9923 4.61114 21.9516 4.7697C21.9401 4.81453 21.9286 4.85936 21.9171 4.9042C21.852 5.15805 21.852 5.15805 21.8222 5.27414C21.7968 5.37277 21.7715 5.47142 21.7462 5.57007C21.742 5.58657 21.7378 5.60307 21.7334 5.62008C21.6584 5.91275 21.5852 6.20586 21.5123 6.49905C21.4494 6.75152 21.3849 7.00343 21.3177 7.25477C21.2656 7.44948 21.2156 7.64461 21.1671 7.84023C21.1128 8.05923 21.0571 8.27786 21.0009 8.49641C20.9257 8.78932 20.852 9.08258 20.779 9.37606C20.7118 9.64593 20.6433 9.91531 20.5713 10.1839C20.5131 10.4015 20.458 10.6197 20.4039 10.8383C20.3537 11.0407 20.3016 11.2425 20.2464 11.4437C20.2077 11.5847 20.172 11.7264 20.1368 11.8683C20.1209 11.9327 20.1048 11.9971 20.0888 12.0615C20.0854 12.0749 20.0821 12.0882 20.0787 12.102C19.9245 12.7207 19.7677 13.3389 19.6089 13.9564C19.605 13.9713 19.6012 13.9861 19.5973 14.0014C19.5826 14.0585 19.5679 14.1157 19.5532 14.1728C19.4782 14.464 19.4057 14.7558 19.3331 15.0475C19.2704 15.2994 19.2064 15.5508 19.1383 15.8014C19.0694 16.0567 19.0066 16.3136 18.9428 16.5703C18.883 16.8109 18.8227 17.0513 18.758 17.2906C18.7061 17.4825 18.6565 17.6748 18.6084 17.8677C18.605 17.8814 18.6016 17.8952 18.5981 17.9093C18.576 17.9981 18.5539 18.087 18.5319 18.1758C18.4905 18.3426 18.4491 18.5094 18.4075 18.6761C18.4027 18.6952 18.398 18.7144 18.3931 18.7341C18.3255 19.0049 18.256 19.2751 18.1838 19.5446C18.1363 19.7218 18.0911 19.8994 18.0479 20.0777C18.0417 20.103 18.0417 20.103 18.0354 20.1288C18.0319 20.1435 18.0284 20.1581 18.0247 20.1732C18.015 20.2064 18.015 20.2064 17.9963 20.2251C17.9486 20.227 17.9013 20.2276 17.8536 20.2274C17.8384 20.2274 17.8233 20.2274 17.8077 20.2274C17.7566 20.2275 17.7055 20.2274 17.6545 20.2273C17.618 20.2273 17.5815 20.2273 17.5451 20.2273C17.4457 20.2273 17.3464 20.2272 17.2471 20.227C17.1434 20.2269 17.0397 20.2269 16.9361 20.2269C16.7396 20.2268 16.5431 20.2267 16.3467 20.2265C16.123 20.2263 15.8994 20.2262 15.6758 20.2261C15.2157 20.2259 14.7556 20.2256 14.2954 20.2251C14.2725 20.1338 14.2496 20.0424 14.2267 19.951C14.2189 19.92 14.2111 19.889 14.2033 19.8581C14.1575 19.6755 14.1126 19.4929 14.0711 19.3093C14.0273 19.1158 13.9796 18.9234 13.931 18.731C13.8814 18.5349 13.8336 18.3388 13.7908 18.1411C13.7489 17.9477 13.7025 17.7558 13.6541 17.564C13.6488 17.5428 13.6488 17.5428 13.6433 17.5212C13.6361 17.4925 13.6288 17.4638 13.6216 17.435C13.618 17.4207 13.6144 17.4064 13.6107 17.3916C13.607 17.3772 13.6034 17.3627 13.5996 17.3479C13.5591 17.1868 13.5194 17.0256 13.48 16.8642C13.4748 16.8426 13.4748 16.8426 13.4694 16.8204C13.4217 16.6248 13.3764 16.4288 13.3328 16.2322C13.2769 15.98 13.2133 15.7303 13.1483 15.4803C13.1448 15.4669 13.1413 15.4536 13.1378 15.4398C13.1326 15.4201 13.1326 15.4201 13.1274 15.4001C13.079 15.2135 13.0352 15.026 12.9919 14.8382C12.9237 14.5423 12.8529 14.2473 12.7787 13.9528C12.7294 13.7571 12.6822 13.5612 12.6377 13.3644C12.5979 13.19 12.5543 13.0167 12.5104 12.8433C12.4609 12.6472 12.413 12.4511 12.3702 12.2533C12.3283 12.06 12.2819 11.8681 12.2336 11.6762C12.2282 11.6551 12.2282 11.6551 12.2228 11.6335C12.2156 11.6048 12.2083 11.5761 12.2011 11.5474C12.1975 11.533 12.1938 11.5187 12.1901 11.5039C12.1865 11.4895 12.1829 11.4751 12.1791 11.4602C12.1385 11.2988 12.0989 11.1371 12.0595 10.9753C12.056 10.9608 12.0524 10.9463 12.0488 10.9314C11.9971 10.7188 11.9472 10.5059 11.898 10.2927C11.848 10.0774 11.794 9.86302 11.74 9.64861C11.682 9.41799 11.6263 9.18706 11.5737 8.95515C11.5296 8.76128 11.4825 8.56814 11.4357 8.37492C11.3318 8.76359 11.2334 9.15352 11.1443 9.54586C11.1004 9.73776 11.0523 9.92855 11.0041 10.1194C10.9526 10.324 10.9034 10.5289 10.8568 10.7347C10.8274 10.8634 10.795 10.991 10.7607 11.1184C10.7289 11.2372 10.7012 11.3566 10.674 11.4765C10.6285 11.677 10.5795 11.8764 10.5292 12.0758C10.4806 12.2685 10.4329 12.4613 10.389 12.6552C10.3428 12.8591 10.2926 13.0618 10.2415 13.2645C10.182 13.5011 10.1238 13.738 10.0664 13.9751C10.0239 14.1502 9.98102 14.3251 9.93689 14.4998C9.89994 14.6462 9.86523 14.793 9.83175 14.9402C9.78327 15.1534 9.73054 15.3653 9.67706 15.5772C9.62548 15.7818 9.57634 15.9868 9.5297 16.1925C9.50362 16.3069 9.47563 16.4204 9.44507 16.5336C9.40246 16.6916 9.3655 16.8506 9.32908 17.01C9.27915 17.2286 9.22682 17.4466 9.17405 17.6644C9.16784 17.6901 9.16164 17.7158 9.15543 17.7415C9.07537 18.0727 8.99423 18.4036 8.91128 18.7341C8.85667 18.9517 8.80297 19.1695 8.74999 19.3875C8.74648 19.402 8.74297 19.4164 8.73936 19.4313C8.70413 19.5763 8.66912 19.7213 8.63456 19.8665C8.62673 19.8994 8.62673 19.8994 8.61873 19.9329C8.60917 19.9731 8.59966 20.0133 8.59019 20.0535C8.58606 20.0709 8.58194 20.0883 8.57768 20.1062C8.57239 20.1287 8.57239 20.1287 8.56699 20.1516C8.55724 20.1878 8.55724 20.1878 8.53855 20.2251C7.32343 20.2251 6.10832 20.2251 4.85638 20.2251C4.53288 18.9716 4.53288 18.9716 4.4275 18.5471C4.38231 18.3655 4.33553 18.1842 4.28881 18.003C4.22267 17.7462 4.15826 17.489 4.09422 17.2317C4.01915 16.93 3.94345 16.6287 3.86222 16.3286C3.81535 16.1549 3.77128 15.9805 3.7279 15.8058C3.67116 15.5774 3.61366 15.3492 3.555 15.1213C3.47461 14.8087 3.39497 14.496 3.31552 14.1832C3.234 13.8623 3.15236 13.5414 3.0702 13.2206C2.99402 12.9232 2.91813 12.6257 2.8424 12.3281C2.83423 12.296 2.83423 12.296 2.82589 12.2632C2.76225 12.0132 2.69867 11.7631 2.63512 11.513C2.48311 10.9148 2.33085 10.3167 2.17726 9.71893C2.1626 9.66188 2.14795 9.60484 2.1333 9.54779C2.12965 9.53358 2.126 9.51936 2.12224 9.50472C2.03908 9.1807 1.95686 8.85644 1.87458 8.53219C1.79291 8.2103 1.71108 7.88845 1.62842 7.56681C1.55226 7.27041 1.47678 6.97384 1.40136 6.67725C1.34501 6.45565 1.28865 6.23406 1.23182 6.0126C1.22756 5.99602 1.22331 5.97944 1.21893 5.96236C1.21264 5.93784 1.21264 5.93784 1.20622 5.91282C1.19788 5.88034 1.18955 5.84787 1.18122 5.81539C1.17712 5.7994 1.17301 5.78341 1.16879 5.76693C1.10541 5.5198 1.04335 5.27237 0.981751 5.02479C0.887796 4.64722 0.790847 4.27056 0.690876 3.89453C0.629135 3.66224 0.568076 3.42985 0.510349 3.19652C0.495115 3.13497 0.47978 3.07345 0.464455 3.01193C0.459779 2.99315 0.459779 2.99315 0.455009 2.97399C0.384679 2.69164 0.313477 2.40952 0.241208 2.12765C0.22804 2.07627 0.2149 2.02487 0.201769 1.97348C0.193222 1.94003 0.184675 1.90659 0.176128 1.87315C0.171983 1.85694 0.16784 1.84073 0.163571 1.82402C0.140884 1.73538 0.117994 1.6468 0.0948429 1.55828C0.0850632 1.52081 0.0753661 1.48331 0.0657052 1.44581C0.0543225 1.40167 0.0427913 1.35757 0.031079 1.31351C0.0237288 1.28478 0.0237288 1.28478 0.0162301 1.25547C0.0119594 1.23914 0.00768869 1.22282 0.00328859 1.20601C-0.0109232 1.10756 0.0221239 1.04206 0.0793209 0.964276C0.120444 0.924589 0.161307 0.920048 0.217247 0.918928C0.23833 0.9195 0.238331 0.9195 0.259839 0.920083C0.274955 0.919971 0.290071 0.919859 0.305645 0.919744C0.356261 0.919529 0.406821 0.920248 0.457432 0.920963C0.493723 0.921 0.530014 0.920979 0.566305 0.920905C0.664819 0.920868 0.763313 0.921637 0.861823 0.92255C0.964773 0.923368 1.06772 0.923445 1.17068 0.923601C1.36563 0.924007 1.56057 0.925081 1.75552 0.926394C1.97746 0.927856 2.1994 0.928576 2.42134 0.929232C2.87789 0.9306 3.33444 0.932902 3.79098 0.935817C3.81895 1.03958 3.84688 1.14335 3.87478 1.24713C3.88424 1.28229 3.89371 1.31746 3.90319 1.35262C3.96081 1.56641 4.01718 1.78039 4.07018 1.99537C4.07653 2.02105 4.08287 2.04672 4.08922 2.07239C4.0946 2.09415 4.09998 2.11591 4.10552 2.13833C4.15583 2.34113 4.20892 2.54321 4.26177 2.74536C4.26648 2.76342 4.2712 2.78147 4.27607 2.80008C4.31567 2.95157 4.35531 3.10305 4.39535 3.25443C4.44077 3.42618 4.48514 3.59814 4.52782 3.7706C4.71637 4.53279 4.71637 4.53279 4.91629 5.29206C4.93872 5.37491 4.96069 5.45787 4.98255 5.54086C4.98581 5.55318 4.98907 5.56549 4.99244 5.57818C5.01523 5.66468 5.03699 5.75144 5.05862 5.83824C5.10336 6.01774 5.14925 6.19693 5.19516 6.37612C5.20422 6.41153 5.21329 6.44693 5.22235 6.48234C5.24988 6.58985 5.27742 6.69735 5.30497 6.80485C5.3112 6.82915 5.3112 6.82915 5.31755 6.85394C5.36412 7.03566 5.41071 7.21736 5.45732 7.39906C5.4961 7.55025 5.53487 7.70145 5.57364 7.85265C5.59311 7.92861 5.61259 8.00457 5.63207 8.08053C5.63985 8.1109 5.64764 8.14128 5.65543 8.17165C5.65928 8.18668 5.66314 8.20172 5.66711 8.21721C5.7411 8.50575 5.81508 8.7943 5.88907 9.08284C5.89292 9.09788 5.89678 9.11291 5.90075 9.1284C5.90854 9.15878 5.91633 9.18916 5.92412 9.21953C5.94357 9.29541 5.96303 9.37128 5.98248 9.44716C6.01771 9.58453 6.05293 9.7219 6.08814 9.85928C6.17344 10.1921 6.25881 10.5248 6.34443 10.8575C6.38036 10.9972 6.41621 11.1368 6.45192 11.2765C6.53962 11.6195 6.62807 11.9622 6.71732 12.3047C6.72478 12.3334 6.72478 12.3334 6.73238 12.3626C6.74645 12.4166 6.76054 12.4706 6.77464 12.5247C6.77885 12.5409 6.78307 12.5571 6.78742 12.5738C6.79131 12.5886 6.7952 12.6035 6.79921 12.6189C6.80259 12.6318 6.80597 12.6448 6.80945 12.6581C6.81785 12.6886 6.82765 12.7187 6.83765 12.7487C6.89031 12.5419 6.94287 12.3351 6.99536 12.1283C7.00132 12.1048 7.00132 12.1048 7.00741 12.0809C7.1271 11.6092 7.24508 11.1372 7.361 10.6646C7.47315 10.2075 7.58725 9.75099 7.70527 9.29538C7.72329 9.22578 7.74125 9.15617 7.75921 9.08657C7.76601 9.06025 7.7728 9.03393 7.7796 9.00761C7.78285 8.995 7.7861 8.9824 7.78946 8.96941C7.79882 8.93313 7.8082 8.89684 7.81757 8.86056C7.89403 8.56447 7.89403 8.56447 7.96546 8.26714C8.00645 8.09001 8.05201 7.91421 8.09801 7.73831C8.13146 7.61 8.16337 7.48154 8.19298 7.3523C8.22267 7.22397 8.25635 7.0967 8.29031 6.96944C8.3172 6.86797 8.34225 6.76618 8.36602 6.66394C8.41891 6.4369 8.47607 6.21091 8.53271 5.98478C8.53882 5.96036 8.54492 5.93595 8.55103 5.91154C8.62214 5.62719 8.69369 5.34296 8.76598 5.05891C8.7692 5.04625 8.77242 5.0336 8.77574 5.02056C8.7921 4.9563 8.80846 4.89204 8.82482 4.82778C8.82808 4.81497 8.83134 4.80216 8.8347 4.78897C8.84133 4.7629 8.84797 4.73683 8.8546 4.71077C8.96289 4.2854 9.0688 3.85949 9.17334 3.43319C9.29429 2.93997 9.41812 2.44752 9.54342 1.95538C9.54838 1.93589 9.54838 1.93589 9.55344 1.91601C9.56969 1.85218 9.58594 1.78836 9.60222 1.72453C9.63607 1.59167 9.66951 1.4587 9.70243 1.3256C9.7059 1.31163 9.70936 1.29765 9.71293 1.28325C9.72963 1.2159 9.74626 1.14855 9.76277 1.08116C9.76864 1.05744 9.77451 1.03373 9.78056 1.00929C9.78572 0.988278 9.79089 0.967266 9.79621 0.945618C9.81467 0.880341 9.81467 0.880341 9.88046 0.877443Z" fill="#31BA77"/>
</svg>
