<svg width="5" height="22" viewBox="0 0 5 22" fill="none" xmlns="http://www.w3.org/2000/svg">
<path d="M0.725142 0.618226C0.740342 0.618109 0.755542 0.617992 0.771203 0.617872C0.822204 0.617574 0.873189 0.61781 0.92419 0.618045C0.960725 0.617944 0.997261 0.617811 1.0338 0.617648C1.13308 0.617307 1.23236 0.61744 1.33165 0.617677C1.43546 0.617866 1.53928 0.617691 1.64309 0.617573C1.81744 0.617437 1.99179 0.617617 2.16614 0.617972C2.36783 0.618379 2.56951 0.618248 2.7712 0.617836C2.94424 0.617497 3.11728 0.617449 3.29032 0.617644C3.39372 0.617761 3.49713 0.617776 3.60053 0.61753C3.69774 0.617314 3.79494 0.617463 3.89214 0.617895C3.92786 0.617994 3.96357 0.617966 3.99929 0.617801C4.04797 0.617597 4.09662 0.617852 4.1453 0.618226C4.1595 0.618059 4.17371 0.617892 4.18834 0.61772C4.24868 0.618621 4.28917 0.62419 4.34116 0.655669C4.38236 0.723113 4.37996 0.786226 4.379 0.862901C4.37914 0.887686 4.37914 0.887686 4.37928 0.912972C4.37949 0.969058 4.37916 1.02513 4.37884 1.08121C4.37888 1.12201 4.37895 1.16281 4.37905 1.20361C4.37924 1.31762 4.37894 1.43163 4.37857 1.54565C4.37827 1.65877 4.37833 1.77189 4.37836 1.88502C4.37842 2.13908 4.37801 2.39314 4.37744 2.6472C4.37692 2.87729 4.37657 3.10739 4.37637 3.33748C4.3748 5.03155 4.36932 6.72562 4.34764 12.8869C4.34744 12.94 4.34723 12.993 4.34703 13.0461C4.34483 13.6203 4.34256 14.1944 4.34004 14.7686C4.33909 14.9857 4.33815 15.2029 4.33722 15.42C4.33706 15.4581 4.3369 15.4962 4.33673 15.5343C4.33363 16.2541 4.33166 16.9739 4.33067 17.6938C4.3304 17.8921 4.33004 18.0905 4.3296 18.2889C4.32957 18.3017 4.32954 18.3145 4.32951 18.3277C4.32923 18.4556 4.32893 18.5835 4.32862 18.7113C4.32795 18.9946 4.32756 19.2779 4.3276 19.5612C4.3276 19.743 4.32728 19.9249 4.32668 20.1068C4.32636 20.2112 4.32619 20.3157 4.32643 20.4201C4.32664 20.5155 4.32643 20.6108 4.32588 20.7061C4.32576 20.7406 4.3258 20.7751 4.32601 20.8096C4.32627 20.8563 4.32596 20.9029 4.3255 20.9496C4.32571 20.9631 4.32593 20.9765 4.32615 20.9904C4.32478 21.0618 4.31512 21.0928 4.27054 21.1497C4.20426 21.2002 4.14929 21.2011 4.06912 21.1999C4.04643 21.2001 4.04643 21.2001 4.02328 21.2004C3.97264 21.2007 3.92202 21.2004 3.87138 21.2001C3.83505 21.2003 3.79873 21.2004 3.76241 21.2006C3.66378 21.2011 3.56515 21.2009 3.46652 21.2006C3.36334 21.2004 3.26016 21.2006 3.15698 21.2007C2.9837 21.2009 2.81042 21.2007 2.63714 21.2002C2.43675 21.1997 2.23638 21.1999 2.036 21.2004C1.864 21.2008 1.69201 21.2009 1.52002 21.2006C1.41727 21.2005 1.31453 21.2005 1.21178 21.2008C1.11519 21.2011 1.0186 21.2009 0.92201 21.2003C0.886544 21.2002 0.851076 21.2002 0.815611 21.2005C0.767221 21.2007 0.718868 21.2004 0.670481 21.1999C0.649385 21.2002 0.649385 21.2002 0.627863 21.2006C0.560777 21.1993 0.523699 21.1912 0.469004 21.1515C0.409491 21.0729 0.413283 21.0154 0.415122 20.9193C0.41509 20.9014 0.415059 20.8835 0.415026 20.8651C0.415032 20.8046 0.415712 20.7442 0.416382 20.6837C0.416523 20.6399 0.416623 20.596 0.416684 20.5521C0.416912 20.4559 0.417431 20.3597 0.418199 20.2635C0.41935 20.1185 0.41995 19.9736 0.420432 19.8287C0.421218 19.595 0.422335 19.3613 0.423664 19.1277C0.425858 18.7413 0.427145 18.3549 0.428192 17.9685C0.428612 17.8143 0.429055 17.6601 0.429498 17.5059C0.429548 17.4886 0.429597 17.4713 0.429648 17.4534C0.430863 17.031 0.432406 16.6086 0.433986 16.1861C0.434057 16.1671 0.434128 16.1481 0.434201 16.1286C0.434856 15.9532 0.435514 15.7778 0.436175 15.6024C0.437243 15.319 0.438292 15.0356 0.439329 14.7522C0.439442 14.7214 0.439442 14.7214 0.439557 14.69C0.439862 14.6067 0.440166 14.5234 0.440471 14.4401C0.443304 13.6659 0.446186 12.8918 0.449093 12.1176C0.451645 11.4379 0.454153 10.7583 0.456623 10.0787C0.459431 9.30607 0.462267 8.53347 0.465146 7.76087C0.465456 7.67763 0.465766 7.5944 0.466076 7.51116C0.466152 7.49068 0.466228 7.4702 0.466307 7.4491C0.467358 7.16691 0.468393 6.88472 0.469416 6.60253C0.470048 6.42812 0.470685 6.25372 0.471323 6.07931C0.471392 6.06038 0.471462 6.04145 0.471533 6.02194C0.473085 5.59831 0.474706 5.17468 0.476568 4.75105C0.476645 4.73352 0.476722 4.716 0.476801 4.69794C0.477493 4.5407 0.47819 4.38346 0.478906 4.22622C0.480718 3.82787 0.482295 3.42953 0.483362 3.03118C0.48413 2.74492 0.485142 2.45866 0.486408 2.1724C0.487154 2.00149 0.487687 1.83058 0.487921 1.65966C0.488097 1.54576 0.48854 1.43185 0.489202 1.31794C0.489572 1.25287 0.489821 1.1878 0.489744 1.12272C0.489722 1.05267 0.490152 0.982633 0.490701 0.91258C0.490585 0.892144 0.490469 0.871707 0.490349 0.850651C0.492094 0.715163 0.492094 0.715163 0.534495 0.652559C0.595962 0.615276 0.655394 0.617407 0.725142 0.618226Z" fill="#31BA77"/>
</svg>
