<svg width="10" height="14" viewBox="0 0 10 14" fill="none" xmlns="http://www.w3.org/2000/svg">
<path d="M8.87063 2.95497H7.23801C7.09573 2.41701 6.84427 1.91409 6.49927 1.47749H8.87063C9.06656 1.47749 9.25446 1.39965 9.393 1.26111C9.53154 1.12257 9.60938 0.93467 9.60938 0.738743C9.60938 0.542816 9.53154 0.354914 9.393 0.216373C9.25446 0.0778316 9.06656 0 8.87063 0H0.74446C0.548533 0 0.360631 0.0778316 0.22209 0.216373C0.0835484 0.354914 0.00571667 0.542816 0.00571667 0.738743C0.00571667 0.93467 0.0835484 1.12257 0.22209 1.26111C0.360631 1.39965 0.548533 1.47749 0.74446 1.47749H3.33006C3.81781 1.4792 4.29512 1.61884 4.70689 1.88027C5.11865 2.14171 5.44807 2.51429 5.6571 2.95497H0.74446C0.548533 2.95497 0.360631 3.0328 0.22209 3.17134C0.0835484 3.30989 0.00571667 3.49779 0.00571667 3.69371C0.00571667 3.88964 0.0835484 4.07754 0.22209 4.21608C0.360631 4.35463 0.548533 4.43246 0.74446 4.43246H5.91566C5.8271 5.04606 5.52102 5.60741 5.05319 6.01422C4.58537 6.42102 3.98695 6.64619 3.367 6.64869H0.74446C0.710072 6.64523 0.675424 6.64523 0.641036 6.64869C0.592081 6.64106 0.542242 6.64106 0.493287 6.64869C0.442932 6.66584 0.395571 6.69076 0.352926 6.72256L0.264277 6.77427C0.22381 6.81082 0.18896 6.85314 0.160853 6.89986C0.13611 6.93261 0.113884 6.96718 0.0943657 7.00328C0.0877901 7.04736 0.0877901 7.09218 0.0943657 7.13626C0.0417217 7.20995 0.0109896 7.29702 0.00571667 7.38743C0.00226054 7.42182 0.00226054 7.45647 0.00571667 7.49085C-0.00190556 7.53981 -0.00190556 7.58965 0.00571667 7.6386C0.0228666 7.68896 0.047793 7.73632 0.0795909 7.77896C0.0795909 7.77896 0.079591 7.83806 0.131303 7.86761L4.56376 13.0388C4.69111 13.1877 4.8724 13.2799 5.06775 13.2952C5.26309 13.3104 5.45648 13.2474 5.60539 13.1201C5.75429 12.9927 5.84651 12.8114 5.86175 12.6161C5.87699 12.4207 5.814 12.2274 5.68665 12.0784L2.35492 8.12617H3.33006C4.34661 8.13038 5.32781 7.75337 6.08001 7.06956C6.8322 6.38575 7.30074 5.44481 7.39315 4.43246H8.87063C9.06656 4.43246 9.25446 4.35463 9.393 4.21608C9.53154 4.07754 9.60938 3.88964 9.60938 3.69371C9.60938 3.49779 9.53154 3.30989 9.393 3.17134C9.25446 3.0328 9.06656 2.95497 8.87063 2.95497Z" fill="black"/>
</svg>
