<svg width="10" height="14" viewBox="0 0 10 14" fill="none" xmlns="http://www.w3.org/2000/svg">
<path d="M8.87063 3.21278H7.23801C7.09573 2.67482 6.84427 2.1719 6.49927 1.7353H8.87063C9.06656 1.7353 9.25446 1.65747 9.393 1.51893C9.53154 1.38038 9.60938 1.19248 9.60938 0.996556C9.60938 0.800629 9.53154 0.612726 9.393 0.474185C9.25446 0.335644 9.06656 0.257813 8.87063 0.257812H0.74446C0.548533 0.257813 0.360631 0.335644 0.22209 0.474185C0.0835484 0.612726 0.00571667 0.800629 0.00571667 0.996556C0.00571667 1.19248 0.0835484 1.38038 0.22209 1.51893C0.360631 1.65747 0.548533 1.7353 0.74446 1.7353H3.33006C3.81781 1.73701 4.29512 1.87665 4.70689 2.13809C5.11865 2.39952 5.44807 2.7721 5.6571 3.21278H0.74446C0.548533 3.21278 0.360631 3.29062 0.22209 3.42916C0.0835484 3.5677 0.00571667 3.7556 0.00571667 3.95153C0.00571667 4.14745 0.0835484 4.33536 0.22209 4.4739C0.360631 4.61244 0.548533 4.69027 0.74446 4.69027H5.91566C5.8271 5.30387 5.52102 5.86522 5.05319 6.27203C4.58537 6.67883 3.98695 6.904 3.367 6.9065H0.74446C0.710072 6.90304 0.675424 6.90304 0.641036 6.9065C0.592081 6.89888 0.542242 6.89888 0.493287 6.9065C0.442932 6.92365 0.395571 6.94858 0.352926 6.98037L0.264277 7.03209C0.22381 7.06863 0.18896 7.11095 0.160853 7.15767C0.13611 7.19042 0.113884 7.22499 0.0943657 7.2611C0.0877901 7.30518 0.0877901 7.34999 0.0943657 7.39407C0.0417217 7.46776 0.0109896 7.55483 0.00571667 7.64524C0.00226054 7.67963 0.00226054 7.71428 0.00571667 7.74867C-0.00190556 7.79762 -0.00190556 7.84746 0.00571667 7.89641C0.0228666 7.94677 0.047793 7.99413 0.0795909 8.03678C0.0795909 8.03678 0.079591 8.09588 0.131303 8.12543L4.56376 13.2966C4.69111 13.4455 4.8724 13.5377 5.06775 13.553C5.26309 13.5682 5.45648 13.5052 5.60539 13.3779C5.75429 13.2505 5.84651 13.0692 5.86175 12.8739C5.87699 12.6786 5.814 12.4852 5.68665 12.3363L2.35492 8.38399H3.33006C4.34661 8.38819 5.32781 8.01119 6.08001 7.32737C6.8322 6.64356 7.30074 5.70262 7.39315 4.69027H8.87063C9.06656 4.69027 9.25446 4.61244 9.393 4.4739C9.53154 4.33536 9.60938 4.14745 9.60938 3.95153C9.60938 3.7556 9.53154 3.5677 9.393 3.42916C9.25446 3.29062 9.06656 3.21278 8.87063 3.21278Z" fill="black"/>
</svg>
