<svg width="21" height="20" viewBox="0 0 21 20" fill="none" xmlns="http://www.w3.org/2000/svg">
<g opacity="0.6">
<path fill-rule="evenodd" clip-rule="evenodd" d="M17.4478 18H4.32281C3.61681 18 3.0948 17.303 3.3618 16.662C4.5978 13.698 7.5018 12 10.8848 12C14.2688 12 17.1728 13.698 18.4088 16.662C18.6758 17.303 18.1538 18 17.4478 18ZM6.8018 5.99998C6.8018 3.79398 8.6338 1.99998 10.8848 1.99998C13.1368 1.99998 14.9678 3.79398 14.9678 5.99998C14.9678 8.20599 13.1368 9.99998 10.8848 9.99998C8.6338 9.99998 6.8018 8.20599 6.8018 5.99998ZM20.8408 17.636C20.0988 14.277 17.7768 11.798 14.7218 10.673C16.3408 9.39596 17.2848 7.33093 16.9378 5.06993C16.5358 2.44693 14.3078 0.347977 11.6198 0.0419769C7.9078 -0.381023 4.7598 2.44898 4.7598 5.99998C4.7598 7.88998 5.6538 9.57396 7.0488 10.673C3.9918 11.798 1.6718 14.277 0.9288 17.636C0.6588 18.857 1.6638 20 2.9388 20H18.8308C20.1068 20 21.1108 18.857 20.8408 17.636Z" fill="#1E1E1E"/>
</g>
</svg>
