<svg width="22" height="22" viewBox="0 0 22 22" fill="none" xmlns="http://www.w3.org/2000/svg">
<path opacity="0.6" d="M21.2494 9.59198L21.25 9.5836V9.5752V7.2533C21.25 5.2701 20.63 3.63827 19.4912 2.5018C18.3525 1.36542 16.7208 0.75 14.7467 0.75H7.2533C5.27061 0.75 3.63869 1.36528 2.50198 2.50198C1.36528 3.63869 0.75 5.27061 0.75 7.2533V14.7555C0.75 16.7339 1.36537 18.3637 2.50207 19.4992C3.63875 20.6347 5.27061 21.25 7.2533 21.25H14.7555C16.7339 21.25 18.3636 20.6346 19.4991 19.4991C20.6346 18.3636 21.25 16.7339 21.25 14.7555C21.25 14.1948 20.7955 13.7403 20.2348 13.7403C19.6742 13.7403 19.2197 14.1948 19.2197 14.7555C19.2197 16.228 18.8149 17.3347 18.0759 18.0737C17.3369 18.8127 16.228 19.2197 14.7467 19.2197H7.2533C5.77622 19.2197 4.66727 18.8148 3.92719 18.0767C3.18723 17.3388 2.78034 16.2322 2.78034 14.7555V7.2533C2.78034 5.77623 3.18523 4.66736 3.92426 3.92731C4.66323 3.18733 5.772 2.78034 7.2533 2.78034H14.7467C16.2234 2.78034 17.3324 3.18724 18.0726 3.92744C18.8128 4.66763 19.2197 5.77657 19.2197 7.2533V9.56366C19.2142 9.83351 19.3174 10.0943 19.5061 10.2874C19.6576 10.4425 19.8541 10.5434 20.0653 10.5775L20.0752 10.5791L20.0852 10.5799L20.2061 10.5896L20.216 10.5904H20.226H20.2348C20.749 10.5904 21.1735 10.2084 21.2407 9.71264L21.2419 9.70425L21.2425 9.69581L21.2494 9.59198ZM7.74062 15.7492L7.74077 15.7492V15.7405V9.35061C7.74892 9.08297 7.65099 8.82287 7.46821 8.62703C7.28474 8.43045 7.03078 8.31471 6.7621 8.30517C6.49374 8.29296 6.23161 8.38856 6.0341 8.5707C5.87576 8.71673 5.76953 8.90863 5.72871 9.11731L5.72679 9.12709L5.72566 9.137L5.71203 9.25666L5.71042 9.27076V9.28496V15.6838C5.69364 16.2423 6.13154 16.7099 6.69059 16.7292C7.25117 16.7485 7.72129 16.3097 7.74062 15.7492ZM12.0504 6.32102C12.0504 5.76036 11.5958 5.30585 11.0352 5.30585C10.4745 5.30585 10.02 5.76036 10.02 6.32102V15.6966C10.02 16.2572 10.4745 16.7117 11.0352 16.7117C11.5958 16.7117 12.0504 16.2572 12.0504 15.6966V6.32102ZM16.2896 12.6974C16.2896 12.1368 15.8351 11.6823 15.2744 11.6823C14.7137 11.6823 14.2592 12.1368 14.2592 12.6974V15.6878C14.2592 16.2484 14.7137 16.7029 15.2744 16.7029C15.8351 16.7029 16.2896 16.2484 16.2896 15.6878V12.6974Z" fill="#1E1E1E" stroke="#111C30" stroke-width="0.5"/>
</svg>
