<svg width="10" height="12" viewBox="0 0 10 12" fill="none" xmlns="http://www.w3.org/2000/svg">
<path d="M4.50961 8.50249e-05L4.59806 0.00979605L9.5981 1.0098C9.80259 1.0507 9.95693 1.21292 9.99232 1.41251L10 1.50008V10.497C10 10.7055 9.87122 10.8887 9.68247 10.9626L9.5981 10.9873L4.59806 11.9873C4.45117 12.0167 4.29885 11.9786 4.18301 11.8837C4.09033 11.8077 4.02881 11.7017 4.00791 11.5856L4 11.497V0.500085L4.00791 0.41147C4.02881 0.29541 4.09033 0.189392 4.18301 0.113416C4.27568 0.0374399 4.3917 -0.00208807 4.50961 8.50249e-05ZM3 1.00009V2.00009H1V9.99699H3V10.997H0.5C0.254542 10.997 0.050392 10.8201 0.00805569 10.5869L0 10.497V1.50009C0 1.25463 0.176877 1.05048 0.410125 1.00814L0.5 1.00009H3ZM5 1.11V10.8871L9 10.0871V1.91L5 1.11ZM6.5 5.4985C6.77614 5.4985 7 5.72236 7 5.9985C7 6.27465 6.77614 6.4985 6.5 6.4985C6.22386 6.4985 6 6.27465 6 5.9985C6 5.72236 6.22386 5.4985 6.5 5.4985Z" fill="#666666"/>
</svg>
