<svg width="6" height="9" viewBox="0 0 6 9" fill="none" xmlns="http://www.w3.org/2000/svg">
<path d="M1.09548 0.795614L0.929068 0.634838C0.874 0.691836 0.831368 0.759397 0.802506 0.832579C0.77365 0.905747 0.758789 0.983899 0.758249 1.0624C0.75771 1.14091 0.771494 1.21925 0.799304 1.29281C0.827005 1.36608 0.868406 1.43399 0.922242 1.49166L3.57855 4.36987L3.57855 4.36987L3.5798 4.37122C3.59069 4.38282 3.60072 4.39829 3.60802 4.41739C3.61533 4.4365 3.61938 4.45792 3.61938 4.48014C3.61938 4.50236 3.61533 4.52378 3.60802 4.54289C3.60072 4.56199 3.59069 4.57746 3.5798 4.58906L3.5798 4.58906L3.57854 4.59042L0.94352 7.44587C0.890182 7.50292 0.849041 7.57003 0.821331 7.64245C0.7935 7.7152 0.779435 7.79269 0.779435 7.87044C0.779435 7.94819 0.7935 8.02569 0.821331 8.09843C0.849067 8.17092 0.89026 8.23809 0.94367 8.29518C1.17151 8.54087 1.54824 8.54099 1.77576 8.29437C1.77577 8.29436 1.77578 8.29436 1.77578 8.29435L4.65653 5.17238C4.65674 5.17216 4.65695 5.17193 4.65717 5.1717C4.74275 5.08018 4.80956 4.97161 4.8548 4.85323C4.90015 4.73458 4.92325 4.60765 4.92325 4.47995C4.92325 4.35225 4.90015 4.22532 4.8548 4.10667C4.80956 3.9883 4.74275 3.87972 4.65717 3.7882L1.75491 0.642489L1.75491 0.642484L1.7537 0.641188C1.64741 0.527744 1.501 0.458692 1.34261 0.457469C1.18419 0.456246 1.03672 0.523065 0.928816 0.6351L1.09548 0.795614ZM1.09548 0.795614C1.06242 0.829833 1.03597 0.871308 1.01776 0.917472C0.999554 0.963637 0.989981 1.01351 0.989634 1.06399C0.989287 1.11448 0.998173 1.16451 1.01574 1.21099C1.03331 1.25746 1.05919 1.29939 1.09178 1.33418L1.58484 0.799393C1.51896 0.729077 1.43171 0.689554 1.34082 0.688852C1.24994 0.68815 1.16221 0.726322 1.09548 0.795614Z" fill="#646464" stroke="#646464" stroke-width="0.46278"/>
</svg>
