<svg width="7" height="12" viewBox="0 0 7 12" fill="none" xmlns="http://www.w3.org/2000/svg">
<path d="M1.14296 1.1442L0.97655 0.983423C0.909894 1.05242 0.857989 1.13451 0.822745 1.22388C0.787507 1.31323 0.76929 1.40886 0.768629 1.50506C0.767967 1.60127 0.784867 1.69715 0.818835 1.787C0.852697 1.87657 0.903175 1.95918 0.968444 2.02904C0.968657 2.02927 0.968871 2.0295 0.969085 2.02973L4.55604 5.91634L4.55603 5.91634L4.55729 5.91769C4.57949 5.94136 4.59853 5.97136 4.61199 6.00656C4.62546 6.04177 4.63269 6.08053 4.63269 6.12027C4.63269 6.16002 4.62546 6.19878 4.61199 6.23399C4.59853 6.26919 4.57949 6.29919 4.55729 6.32286L4.55729 6.32286L4.55603 6.32422L0.997862 10.18C0.997631 10.1803 0.997401 10.1805 0.99717 10.1808C0.932503 10.2499 0.882341 10.3315 0.84847 10.4201C0.814483 10.5089 0.797242 10.6037 0.797242 10.699C0.797242 10.7942 0.814483 10.8891 0.84847 10.9779C0.882352 11.0665 0.932537 11.1481 0.997239 11.2173C1.27286 11.5147 1.72691 11.5148 2.00212 11.2165L5.89309 6.99971C5.8933 6.99948 5.89352 6.99925 5.89373 6.99902C6.00193 6.88337 6.08674 6.74575 6.14429 6.59519C6.20194 6.44435 6.23139 6.28275 6.23139 6.12002C6.23139 5.95729 6.20194 5.79569 6.14429 5.64485C6.08674 5.49429 6.00193 5.35667 5.89374 5.24102C5.89352 5.24079 5.89331 5.24056 5.89309 5.24033L1.97392 0.992398L1.97393 0.992393L1.97271 0.991097C1.84333 0.853004 1.66634 0.770099 1.4761 0.76863C1.28581 0.76716 1.10759 0.84736 0.976298 0.983684L1.14296 1.1442ZM1.14296 1.1442C1.09831 1.19041 1.06259 1.24643 1.038 1.30877C1.01341 1.37112 1.00048 1.43847 1.00001 1.50665C0.999545 1.57484 1.01155 1.64241 1.03527 1.70517C1.059 1.76794 1.09395 1.82456 1.13796 1.87155L1.80386 1.1493C1.71488 1.05434 1.59706 1.00096 1.47431 1.00001C1.35156 0.999065 1.23309 1.05062 1.14296 1.1442Z" fill="#646464" stroke="#646464" stroke-width="0.46278"/>
</svg>
