<svg width="8" height="13" viewBox="0 0 8 13" fill="none" xmlns="http://www.w3.org/2000/svg">
<path d="M6.82845 11.8459L6.99788 12.0297C7.07662 11.9572 7.13962 11.8692 7.18299 11.7713C7.22635 11.6734 7.24915 11.5676 7.24998 11.4605C7.2508 11.3534 7.22964 11.2473 7.18779 11.1487C7.14608 11.0505 7.0847 10.9618 7.00743 10.8882C7.00719 10.8879 7.00694 10.8877 7.0067 10.8875L2.7023 6.73409L2.7023 6.73409L2.70086 6.73271C2.67314 6.70639 2.65106 6.67469 2.63597 6.63956C2.62089 6.60443 2.61311 6.5666 2.61311 6.52837C2.61311 6.49013 2.62089 6.4523 2.63597 6.41717C2.65106 6.38204 2.67314 6.35035 2.70086 6.32402L2.70086 6.32403L2.70231 6.32263L6.97218 2.20215C6.97246 2.20188 6.97275 2.20161 6.97304 2.20133C7.04955 2.1285 7.1105 2.04091 7.1522 1.94385C7.19406 1.84642 7.21564 1.74149 7.21564 1.63545C7.21564 1.52942 7.19406 1.42449 7.1522 1.32706C7.11047 1.22993 7.04945 1.14227 6.97286 1.06941C6.65522 0.764182 6.14506 0.764085 5.82792 1.07023L1.15869 5.57643C1.15843 5.57668 1.15818 5.57692 1.15792 5.57716C1.02916 5.69973 0.926607 5.84717 0.856488 6.01054C0.78623 6.17423 0.75 6.3505 0.75 6.52864C0.75 6.70677 0.78623 6.88305 0.856488 7.04674C0.926612 7.21012 1.02917 7.35757 1.15795 7.48014L5.86175 12.0203L5.86174 12.0203L5.86314 12.0217C6.01594 12.1669 6.2183 12.2485 6.42911 12.25C6.63992 12.2514 6.84338 12.1726 6.99817 12.0295L6.82845 11.8459ZM6.82845 11.8459C6.88203 11.7965 6.92489 11.7367 6.9544 11.67C6.98391 11.6034 6.99942 11.5314 6.99998 11.4586C7.00055 11.3857 6.98614 11.3135 6.95767 11.2464C6.9292 11.1794 6.88726 11.1189 6.83445 11.0686L6.03537 11.8405C6.14214 11.9419 6.28353 11.999 6.43083 12C6.57813 12.001 6.72029 11.9459 6.82845 11.8459Z" fill="#111C30" stroke="#111C30" stroke-width="0.5"/>
</svg>
