<svg width="14" height="16" viewBox="0 0 14 16" fill="none" xmlns="http://www.w3.org/2000/svg">
<path d="M3.36092 9.26192H4.6567C4.82854 9.26192 4.99333 9.18526 5.11483 9.04882C5.23634 8.91238 5.3046 8.72733 5.3046 8.53437C5.3046 8.34141 5.23634 8.15636 5.11483 8.01992C4.99333 7.88348 4.82854 7.80683 4.6567 7.80683H3.36092C3.18909 7.80683 3.0243 7.88348 2.90279 8.01992C2.78129 8.15636 2.71303 8.34141 2.71303 8.53437C2.71303 8.72733 2.78129 8.91238 2.90279 9.04882C3.0243 9.18526 3.18909 9.26192 3.36092 9.26192ZM7.24827 10.717H3.36092C3.18909 10.717 3.0243 10.7937 2.90279 10.9301C2.78129 11.0665 2.71303 11.2516 2.71303 11.4446C2.71303 11.6375 2.78129 11.8226 2.90279 11.959C3.0243 12.0954 3.18909 12.1721 3.36092 12.1721H7.24827C7.4201 12.1721 7.5849 12.0954 7.7064 11.959C7.82791 11.8226 7.89617 11.6375 7.89617 11.4446C7.89617 11.2516 7.82791 11.0665 7.7064 10.9301C7.5849 10.7937 7.4201 10.717 7.24827 10.717ZM11.1356 0.531372H2.06514C1.54964 0.531372 1.05526 0.761328 0.69075 1.17065C0.32624 1.57998 0.12146 2.13514 0.12146 2.71401V12.8996C0.12146 13.4785 0.32624 14.0337 0.69075 14.443C1.05526 14.8523 1.54964 15.0823 2.06514 15.0823H11.1356C11.6511 15.0823 12.1455 14.8523 12.51 14.443C12.8745 14.0337 13.0793 13.4785 13.0793 12.8996V2.71401C13.0793 2.13514 12.8745 1.57998 12.51 1.17065C12.1455 0.761328 11.6511 0.531372 11.1356 0.531372ZM7.89617 1.98646V4.38009L6.91785 3.76895C6.81936 3.70509 6.70763 3.67148 6.5939 3.67148C6.48017 3.67148 6.36845 3.70509 6.26996 3.76895L5.3046 4.38009V1.98646H7.89617ZM11.7835 12.8996C11.7835 13.0926 11.7153 13.2777 11.5938 13.4141C11.4723 13.5505 11.3075 13.6272 11.1356 13.6272H2.06514C1.8933 13.6272 1.72851 13.5505 1.60701 13.4141C1.4855 13.2777 1.41724 13.0926 1.41724 12.8996V2.71401C1.41724 2.52105 1.4855 2.336 1.60701 2.19956C1.72851 2.06311 1.8933 1.98646 2.06514 1.98646H4.00881V5.62419C4.0095 5.75116 4.03975 5.87571 4.09659 5.98548C4.15342 6.09524 4.23484 6.1864 4.33276 6.24988C4.43125 6.31373 4.54298 6.34735 4.6567 6.34735C4.77043 6.34735 4.88216 6.31373 4.98065 6.24988L6.60038 5.23859L8.22659 6.25715C8.32342 6.31878 8.43276 6.35135 8.54406 6.35174C8.71589 6.35174 8.88068 6.27508 9.00219 6.13864C9.12369 6.0022 9.19195 5.81715 9.19195 5.62419V1.98646H11.1356C11.3075 1.98646 11.4723 2.06311 11.5938 2.19956C11.7153 2.336 11.7835 2.52105 11.7835 2.71401V12.8996Z" fill="#7C807D"/>
</svg>
