<svg width="21" height="20" viewBox="0 0 21 20" fill="none" xmlns="http://www.w3.org/2000/svg">
<g id="Group">
<g id="Group_2">
<path id="Vector" fill-rule="evenodd" clip-rule="evenodd" d="M17.4478 18H4.32277C3.61677 18 3.09477 17.303 3.36177 16.662C4.59777 13.698 7.50177 12 10.8848 12C14.2688 12 17.1728 13.698 18.4088 16.662C18.6758 17.303 18.1538 18 17.4478 18ZM6.80177 5.99998C6.80177 3.79398 8.63377 1.99998 10.8848 1.99998C13.1368 1.99998 14.9678 3.79398 14.9678 5.99998C14.9678 8.20599 13.1368 9.99998 10.8848 9.99998C8.63377 9.99998 6.80177 8.20599 6.80177 5.99998ZM20.8408 17.636C20.0988 14.277 17.7768 11.798 14.7218 10.673C16.3408 9.39596 17.2848 7.33093 16.9378 5.06993C16.5358 2.44693 14.3078 0.347977 11.6198 0.0419769C7.90777 -0.381023 4.75977 2.44898 4.75977 5.99998C4.75977 7.88998 5.65377 9.57396 7.04877 10.673C3.99177 11.798 1.67177 14.277 0.92877 17.636C0.65877 18.857 1.66377 20 2.93877 20H18.8308C20.1068 20 21.1108 18.857 20.8408 17.636Z" fill="#1E1E1E"/>
</g>
</g>
</svg>
