<svg width="26" height="26" viewBox="0 0 26 26" fill="none" xmlns="http://www.w3.org/2000/svg">
<g id="desktop">
<path id="Rectangle 3957" d="M4.25 8.66665C4.25 7.617 4.25212 6.93036 4.32041 6.42247C4.38482 5.94335 4.49118 5.77555 4.59171 5.67502C4.69224 5.57449 4.86003 5.46814 5.33916 5.40372C5.84705 5.33544 6.53369 5.33331 7.58333 5.33331L18.4167 5.33331C19.4663 5.33331 20.153 5.33544 20.6608 5.40372C21.14 5.46814 21.3078 5.57449 21.4083 5.67502C21.5088 5.77555 21.6152 5.94335 21.6796 6.42247C21.7479 6.93036 21.75 7.617 21.75 8.66665V17.4166H4.25L4.25 8.66665Z" stroke="#FFCB66" stroke-width="2"/>
<path id="Rectangle 3958" d="M3.97222 17.4167C3.02107 17.4167 2.25 18.1878 2.25 19.1389C2.25 20.4889 3.34442 21.5834 4.69444 21.5834H21.3056C22.6556 21.5834 23.75 20.4889 23.75 19.1389C23.75 18.1878 22.9789 17.4167 22.0278 17.4167H3.97222Z" stroke="#FFCB66" stroke-width="2"/>
</g>
</svg>
