<svg width="21" height="18" viewBox="0 0 21 18" fill="none" xmlns="http://www.w3.org/2000/svg">
<path id="Vector" d="M16.3848 4V4.5H16.8848H17.8848C18.5478 4.5 19.1837 4.76339 19.6525 5.23223C20.1214 5.70107 20.3848 6.33696 20.3848 7V15C20.3848 15.663 20.1214 16.2989 19.6525 16.7678C19.1837 17.2366 18.5478 17.5 17.8848 17.5H3.88477C3.22172 17.5 2.58584 17.2366 2.117 16.7678C1.64816 16.2989 1.38477 15.663 1.38477 15V3C1.38477 2.33696 1.64816 1.70107 2.117 1.23223C2.58584 0.763392 3.22172 0.5 3.88477 0.5H13.8848C14.5478 0.5 15.1837 0.763392 15.6525 1.23223C16.1214 1.70107 16.3848 2.33696 16.3848 3V4ZM14.8848 4.5H15.3848V4V3C15.3848 2.60217 15.2267 2.22064 14.9454 1.93934C14.6641 1.65804 14.2826 1.5 13.8848 1.5H3.88477C3.48694 1.5 3.10541 1.65804 2.82411 1.93934C2.5428 2.22064 2.38477 2.60217 2.38477 3C2.38477 3.39783 2.5428 3.77936 2.82411 4.06066C3.10541 4.34196 3.48694 4.5 3.88477 4.5H14.8848ZM18.8848 12.5H19.3848V12V10V9.5H18.8848H17.8848C17.4869 9.5 17.1054 9.65804 16.8241 9.93934C16.5428 10.2206 16.3848 10.6022 16.3848 11C16.3848 11.3978 16.5428 11.7794 16.8241 12.0607C17.1054 12.342 17.4869 12.5 17.8848 12.5H18.8848ZM18.8848 8.5H19.3848V8V7C19.3848 6.60218 19.2267 6.22064 18.9454 5.93934C18.6641 5.65804 18.2826 5.5 17.8848 5.5L3.88477 5.5L3.88402 5.5C3.60022 5.50042 3.31841 5.45251 3.05069 5.35833L2.38477 5.12407V5.83V15C2.38477 15.3978 2.5428 15.7794 2.82411 16.0607C3.10541 16.342 3.48694 16.5 3.88477 16.5H17.8848C18.2826 16.5 18.6641 16.342 18.9454 16.0607C19.2267 15.7794 19.3848 15.3978 19.3848 15V14V13.5H18.8848H17.8848C17.2217 13.5 16.5858 13.2366 16.117 12.7678C15.6482 12.2989 15.3848 11.663 15.3848 11C15.3848 10.337 15.6482 9.70107 16.117 9.23223C16.5858 8.76339 17.2217 8.5 17.8848 8.5H18.8848Z" fill="#1E1E1E" stroke="#111C30"/>
</svg>
