<svg width="24" height="24" viewBox="0 0 24 24" fill="none" xmlns="http://www.w3.org/2000/svg">
<path id="Vector" d="M18.1796 2.57127C18.2434 2.61622 18.3103 2.65367 18.3787 2.69133C18.4667 2.74379 18.5514 2.80105 18.636 2.85869C18.6614 2.87569 18.6614 2.87569 18.6873 2.89304C18.729 2.92175 18.7692 2.95255 18.8092 2.98366C18.8092 3.00251 18.8092 3.02136 18.8092 3.04078C18.8291 3.04723 18.8491 3.05367 18.8697 3.06031C18.9699 3.10608 19.0452 3.17028 19.1269 3.24251C19.1599 3.27106 19.1928 3.29959 19.2258 3.32809C19.2422 3.3423 19.2586 3.35651 19.2754 3.37114C19.3448 3.43049 19.4162 3.48724 19.4876 3.54421C19.611 3.64453 19.7231 3.75158 19.8339 3.86555C19.8918 3.9235 19.9517 3.97679 20.0142 4.02979C20.104 4.10679 20.1802 4.1886 20.2554 4.27972C20.3357 4.37517 20.4275 4.45964 20.5176 4.54571C20.5801 4.61177 20.5801 4.61177 20.5801 4.66889C20.5966 4.67548 20.613 4.68207 20.63 4.68886C20.7109 4.73555 20.7528 4.78997 20.8104 4.86348C20.8845 4.95695 20.9587 5.0495 21.037 5.13952C21.0584 5.16422 21.0584 5.16422 21.0802 5.18941C21.1082 5.22153 21.1362 5.25352 21.1644 5.28538C21.2309 5.36233 21.2823 5.42269 21.2942 5.52579C21.313 5.52579 21.3319 5.52579 21.3513 5.52579C21.3915 5.57717 21.4291 5.63058 21.4656 5.68468C21.4769 5.70137 21.4881 5.71805 21.4998 5.73525C21.5239 5.77095 21.5479 5.8067 21.5718 5.84251C21.6071 5.89527 21.6429 5.94771 21.6788 6.0001C22.1073 6.62905 22.4739 7.30168 22.7509 8.0108C22.7614 8.03735 22.7719 8.06389 22.7827 8.09124C22.9384 8.48718 23.0725 8.88436 23.1794 9.29615C23.1886 9.33103 23.1886 9.33103 23.1981 9.36662C23.2812 9.68242 23.3439 10.0008 23.399 10.3226C23.4047 10.3559 23.4105 10.3892 23.4165 10.4235C23.5123 11.006 23.5328 11.5862 23.5311 12.1757C23.531 12.2293 23.531 12.2293 23.5309 12.284C23.5244 14.9406 22.6818 17.5097 20.928 19.534C20.8636 19.6073 20.8636 19.6073 20.8086 19.6932C20.7898 19.6932 20.7709 19.6932 20.7515 19.6932C20.7437 19.7101 20.736 19.7271 20.728 19.7445C20.695 19.8064 20.6612 19.8495 20.6134 19.9003C20.5973 19.9175 20.5812 19.9347 20.5646 19.9525C20.5473 19.9706 20.53 19.9887 20.5123 20.0074C20.4856 20.0357 20.4856 20.0357 20.4583 20.0646C20.2005 20.3366 19.9409 20.6065 19.6464 20.8393C19.5783 20.8926 19.5783 20.8926 19.5149 20.9588C19.0953 21.376 18.5913 21.7163 18.0951 22.0354C18.0762 22.0476 18.0573 22.0599 18.0379 22.0724C17.8254 22.2095 17.6135 22.3393 17.385 22.4483C17.3191 22.4807 17.2554 22.5141 17.1913 22.5499C16.4299 22.9735 15.5464 23.2741 14.6961 23.4636C14.6699 23.4694 14.6438 23.4752 14.6169 23.4813C14.3967 23.5292 14.1756 23.5693 13.9534 23.6064C13.9204 23.6121 13.8874 23.6178 13.8534 23.6237C12.6558 23.8232 11.352 23.7964 10.1545 23.6064C10.1348 23.6033 10.1151 23.6002 10.0948 23.597C9.5806 23.5147 9.07883 23.3962 8.58352 23.2351C8.5563 23.2263 8.52909 23.2176 8.50105 23.2085C8.07902 23.0714 7.67328 22.9047 7.2696 22.7209C7.24529 22.71 7.22098 22.699 7.19594 22.6878C6.86464 22.5382 6.55044 22.3693 6.24132 22.1782C6.21161 22.1599 6.1819 22.1416 6.15128 22.1228C5.97722 22.0136 5.80887 21.8974 5.64149 21.7783C5.61057 21.7569 5.57964 21.7354 5.54777 21.7133C5.32604 21.5586 5.11865 21.3929 4.91429 21.216C4.84487 21.1568 4.77359 21.1 4.70247 21.0428C4.59639 20.9566 4.49838 20.8672 4.40345 20.7689C4.35457 20.7199 4.30353 20.6753 4.25082 20.6304C4.02981 20.4395 3.82277 20.2291 3.63347 20.0069C3.57693 19.941 3.51848 19.877 3.45997 19.8128C3.14336 19.4614 2.85085 19.0849 2.58522 18.6935C2.57478 18.6783 2.56433 18.6631 2.55357 18.6474C2.36046 18.3656 2.18192 18.0769 2.01395 17.7795C2.00325 17.7606 1.99254 17.7417 1.98151 17.7222C1.54349 16.9416 1.22365 16.0978 1.00594 15.2314C0.989093 15.1651 0.971441 15.0992 0.952982 15.0334C0.355062 12.8323 0.577895 10.3611 1.60994 7.56432C1.64556 7.49059 1.67986 7.41632 1.71404 7.34191C1.83163 7.08752 1.95309 6.84324 2.105 6.60741C2.15726 6.52473 2.20377 6.44052 2.2496 6.35413C2.30574 6.24913 2.36603 6.16015 2.4424 6.0685C2.46659 6.02503 2.46659 6.02503 2.49127 5.98069C2.56509 5.84978 2.65294 5.73032 2.74232 5.6097C2.75989 5.58591 2.77746 5.56213 2.79556 5.53762C2.94257 5.34062 3.09917 5.15428 3.26144 4.96984C3.3189 4.90325 3.37317 4.83419 3.42784 4.76529C3.5371 4.63027 3.65569 4.5081 3.7803 4.38743C3.8653 4.30485 3.93962 4.21875 4.01338 4.12619C4.047 4.09485 4.08152 4.06445 4.11693 4.03514C4.20924 3.95648 4.29468 3.87383 4.37935 3.787C4.74737 3.41499 4.74737 3.41499 4.92741 3.35498C4.92741 3.33613 4.92741 3.31728 4.92741 3.29785C4.97937 3.25308 5.03134 3.21193 5.08629 3.1711C5.10298 3.15853 5.11967 3.14595 5.13687 3.13299C5.17255 3.10618 5.20831 3.07946 5.24413 3.05283C5.29683 3.01363 5.34929 2.97412 5.40172 2.93456C6.2073 2.33089 7.11894 1.80883 8.06938 1.4698C8.10189 1.45805 8.1344 1.44631 8.1679 1.43421C8.45895 1.3332 8.75566 1.25336 9.05344 1.1749C9.11539 1.15847 9.17717 1.14155 9.23891 1.12436C11.8599 0.422402 14.8403 0.794442 18.1796 2.57127ZM10.9828 6.89683C10.9618 6.90066 10.9408 6.90448 10.9192 6.90842C10.0431 7.07405 9.2389 7.49941 8.56165 8.0715C8.49783 8.12506 8.49783 8.12506 8.43222 8.17147C8.41617 8.18443 8.40011 8.19739 8.38357 8.21075C8.38357 8.2296 8.38357 8.24845 8.38357 8.26787C8.36826 8.27377 8.35294 8.27966 8.33716 8.28573C8.24305 8.34021 8.16667 8.41207 8.09794 8.49638C8.09794 8.51523 8.09794 8.53409 8.09794 8.55351C8.08189 8.55969 8.06583 8.56588 8.04929 8.57225C7.96168 8.62351 7.91152 8.68887 7.84801 8.76773C7.81377 8.80971 7.81377 8.80971 7.77883 8.85253C7.72104 8.91769 7.72104 8.91769 7.72662 8.98196C7.70776 8.98196 7.68891 8.98196 7.66949 8.98196C7.62858 9.03823 7.59171 9.09424 7.55524 9.15334C7.54339 9.17209 7.53154 9.19084 7.51934 9.21016C6.71591 10.487 6.39537 11.9952 6.72636 13.4842C6.79922 13.7922 6.88477 14.0907 7.01253 14.3804C7.02285 14.4038 7.03316 14.4272 7.04379 14.4514C7.32836 15.0882 7.70318 15.6194 8.18363 16.1228C8.20535 16.1457 8.22708 16.1686 8.24946 16.1922C9.14788 17.1162 10.4328 17.6993 11.7255 17.7223C11.7545 17.7229 11.7835 17.7235 11.8133 17.7241C13.0261 17.7449 14.1848 17.5065 15.1816 16.7798C15.1976 16.7682 15.2136 16.7567 15.23 16.7448C15.478 16.5645 15.7032 16.3634 15.9243 16.1514C15.9514 16.1258 15.9785 16.1002 16.0064 16.0738C16.5732 15.5256 17.01 14.8142 17.2492 14.0636C17.2648 14.0152 17.2816 13.9672 17.2986 13.9192C17.4017 13.6158 17.448 13.2969 17.4953 12.9808C17.4983 12.9611 17.5014 12.9413 17.5046 12.921C17.5354 12.6916 17.5308 12.4586 17.531 12.2275C17.531 12.2045 17.531 12.1815 17.5311 12.1578C17.5308 11.8156 17.5163 11.4872 17.4381 11.1528C17.4339 11.1333 17.4296 11.1137 17.4252 11.0936C17.363 10.8118 17.278 10.5391 17.1811 10.2673C17.1727 10.2432 17.1643 10.219 17.1556 10.1941C17.0076 9.79573 16.7801 9.43355 16.5324 9.0906C16.5066 9.05457 16.4814 9.01819 16.4564 8.98154C16.4232 8.9331 16.3881 8.88599 16.3527 8.83914C16.3339 8.83914 16.315 8.83914 16.2956 8.83914C16.2879 8.82223 16.2801 8.80531 16.2721 8.78788C16.2391 8.72599 16.2051 8.68224 16.1575 8.63105C16.1414 8.61368 16.1253 8.59631 16.1087 8.57841C16.0914 8.56018 16.0742 8.54194 16.0564 8.52316C16.0386 8.50432 16.0209 8.48548 16.0026 8.46607C15.7155 8.14081 15.7155 8.14081 15.353 7.92511C15.353 7.90626 15.353 7.88741 15.353 7.86799C15.2958 7.82463 15.2958 7.82463 15.2209 7.78051C15.1298 7.72467 15.0398 7.66875 14.952 7.60779C14.2784 7.14559 13.4957 6.94579 12.6966 6.83971C12.6647 6.83523 12.6647 6.83523 12.6322 6.83066C12.0879 6.76081 11.5207 6.79629 10.9828 6.89683Z" fill="white"/>
</svg>
