<svg width="24" height="32" viewBox="0 0 24 32" fill="none" xmlns="http://www.w3.org/2000/svg">
<path id="Vector" d="M18.394 0.0593956C18.4232 0.0593028 18.4232 0.0593028 18.4531 0.059208C18.5188 0.0591429 18.5844 0.0599024 18.6501 0.0606578C18.6977 0.0607898 18.7452 0.0608729 18.7928 0.0609111C18.9232 0.0611675 19.0537 0.0621514 19.1842 0.0632633C19.322 0.0643209 19.4599 0.0647278 19.5978 0.0652324C19.936 0.0666376 20.2742 0.0692363 20.6124 0.0719982C20.717 0.0728423 20.8215 0.0736527 20.926 0.0744531C21.9123 0.0820075 22.8985 0.0910455 23.8847 0.101383C23.9035 0.139086 23.9224 0.17679 23.9418 0.215636C23.9606 0.215636 23.9795 0.215636 23.9989 0.215636C24.0011 2.43916 23.9993 4.66265 23.9915 6.88617C23.9914 6.91355 23.9913 6.94092 23.9912 6.96913C23.9887 7.69052 23.986 8.4119 23.9832 9.13329C23.9816 9.56357 23.98 9.99385 23.9784 10.4241C23.9783 10.4553 23.9782 10.4865 23.9781 10.5186C23.9776 10.6454 23.9771 10.7721 23.9767 10.8988C23.9724 12.0744 23.968 13.2499 23.9635 14.4255C23.9596 15.4578 23.9558 16.4902 23.952 17.5225C23.9477 18.697 23.9434 19.8714 23.939 21.0459C23.9385 21.1722 23.938 21.2986 23.9376 21.425C23.9374 21.4716 23.9374 21.4716 23.9372 21.5192C23.9356 21.9481 23.934 22.377 23.9324 22.8059C23.928 24.0296 23.9233 25.2533 23.9176 26.477C23.915 27.0342 23.9127 27.5914 23.9111 28.1486C23.91 28.5536 23.9084 28.9585 23.9065 29.3635C23.9053 29.6024 23.9045 29.8413 23.9042 30.0802C23.9039 30.2571 23.903 30.434 23.9019 30.6109C23.9015 30.6825 23.9013 30.7541 23.9014 30.8258C23.9014 30.9225 23.9008 31.0192 23.8999 31.116C23.9001 31.1441 23.9003 31.1723 23.9005 31.2013C23.8978 31.3886 23.8978 31.3886 23.831 31.4812C23.7553 31.531 23.7103 31.5352 23.6199 31.535C23.5894 31.5352 23.5588 31.5354 23.5274 31.5356C23.494 31.5352 23.4606 31.5348 23.4261 31.5345C23.3731 31.5346 23.3731 31.5346 23.3191 31.5347C23.2218 31.5347 23.1245 31.5342 23.0272 31.5336C22.9239 31.5329 22.8206 31.533 22.7174 31.5329C22.5425 31.5327 22.3676 31.5321 22.1928 31.5312C21.9517 31.53 21.7105 31.5295 21.4694 31.5292C20.4747 31.5278 19.4806 31.5173 18.4862 31.4925C18.4553 31.1699 18.4243 30.8474 18.3934 30.5249C18.3911 30.5012 18.3888 30.4774 18.3865 30.453C18.3147 29.7046 18.2431 28.9562 18.172 28.2077C18.1072 28.2881 18.0433 28.3688 17.9827 28.4524C17.8217 28.6721 17.6563 28.88 17.4686 29.0774C17.3993 29.1496 17.3993 29.1496 17.3383 29.2312C17.3127 29.2618 17.3127 29.2618 17.2865 29.2931C17.2677 29.2931 17.2488 29.2931 17.2294 29.2931C17.2229 29.309 17.2165 29.3249 17.2098 29.3413C17.1244 29.4917 16.9689 29.6194 16.8295 29.7215C16.8107 29.7215 16.7918 29.7215 16.7724 29.7215C16.763 29.7498 16.7536 29.7781 16.7438 29.8072C16.7033 29.8461 16.7033 29.8461 16.6509 29.8858C16.6314 29.9007 16.612 29.9155 16.5919 29.9308C16.5602 29.9545 16.5602 29.9545 16.5278 29.9786C16.4951 30.0033 16.4951 30.0033 16.4617 30.0284C15.6423 30.6413 14.7324 31.1759 13.7447 31.4639C13.7256 31.4696 13.7066 31.4753 13.6869 31.4811C13.3938 31.5675 13.0972 31.6301 12.7967 31.6853C12.7646 31.6913 12.7324 31.6973 12.6992 31.7035C12.2553 31.7818 11.8104 31.7834 11.361 31.7834C11.273 31.7835 11.185 31.784 11.0969 31.7845C10.5643 31.7861 10.0359 31.7546 9.51196 31.6549C9.4784 31.6487 9.44483 31.6425 9.41025 31.6361C7.40494 31.2556 5.66844 30.2289 4.22596 28.8057C4.20958 28.7897 4.19319 28.7737 4.17631 28.7572C4.13698 28.718 4.09919 28.6772 4.06172 28.6361C4.06172 28.6173 4.06172 28.5984 4.06172 28.579C4.04526 28.5721 4.02881 28.5652 4.01185 28.558C3.78134 28.4286 3.61403 28.1423 3.45308 27.9347C3.38576 27.848 3.31621 27.7635 3.24588 27.6793C3.09879 27.5002 2.96525 27.3127 2.8335 27.1223C2.81599 27.0971 2.81599 27.0971 2.79813 27.0714C1.98765 25.9004 1.40987 24.5669 1.10893 23.1755C1.0966 23.1196 1.08368 23.0639 1.07028 23.0083C1.01147 22.7641 0.968577 22.5185 0.932253 22.2701C0.929178 22.2491 0.926103 22.2281 0.922935 22.2065C0.608378 20.0309 0.831492 17.7365 1.6624 15.697C1.67275 15.6715 1.6831 15.6461 1.69377 15.6198C1.81406 15.3266 1.94229 15.0413 2.09587 14.764C2.14356 14.6768 2.18721 14.5887 2.2301 14.4991C2.33897 14.2793 2.47198 14.0746 2.60499 13.8689C2.63277 13.8257 2.63277 13.8257 2.66112 13.7817C2.91974 13.3869 3.19695 13.0108 3.50888 12.6568C3.56834 12.5881 3.62476 12.5171 3.68147 12.4461C3.78123 12.3231 3.88788 12.2116 4.00136 12.1012C4.05748 12.0451 4.10881 11.9873 4.15991 11.9266C4.25443 11.8167 4.3586 11.7219 4.4673 11.6262C4.54055 11.5613 4.61229 11.495 4.68378 11.4282C4.99149 11.1408 5.31961 10.8866 5.66127 10.6412C5.68759 10.6223 5.71392 10.6034 5.74104 10.5839C6.62811 9.95492 7.62089 9.48055 8.67289 9.20379C8.7202 9.19134 8.76746 9.17865 8.81464 9.16569C9.49056 8.98069 10.2164 8.87698 10.9169 8.87032C10.9499 8.86978 10.9829 8.86924 11.0168 8.86868C12.0115 8.85332 12.9656 8.96204 13.9161 9.27021C13.94 9.27763 13.9639 9.28505 13.9885 9.29269C14.7949 9.54302 15.5584 9.9598 16.2297 10.4699C16.2466 10.4826 16.2634 10.4954 16.2808 10.5086C16.4788 10.6596 16.6701 10.8153 16.8528 10.9848C16.9165 11.0438 16.9165 11.0438 16.9945 11.1019C17.0155 11.1196 17.0365 11.1372 17.058 11.1554C17.058 11.1742 17.058 11.1931 17.058 11.2125C17.0836 11.224 17.0836 11.224 17.1097 11.2358C17.1728 11.2699 17.2111 11.3028 17.2599 11.3549C17.284 11.3805 17.284 11.3805 17.3086 11.4067C17.3255 11.4251 17.3423 11.4435 17.3597 11.4624C17.3773 11.4814 17.3948 11.5004 17.4129 11.5199C17.6282 11.7555 17.8245 12.0031 18.0006 12.2694C18.005 11.793 18.0089 11.3166 18.0126 10.8402C18.0131 10.779 18.0136 10.7178 18.0141 10.6566C18.025 9.27154 18.0313 7.8865 18.036 6.50143C18.0364 6.37128 18.0369 6.24114 18.0373 6.11099C18.0401 5.29814 18.0429 4.48529 18.0452 3.67245C18.0462 3.31213 18.0474 2.95182 18.0486 2.59151C18.0493 2.37346 18.0499 2.15542 18.0505 1.93738C18.0509 1.77202 18.0514 1.60666 18.052 1.4413C18.0522 1.3742 18.0524 1.30711 18.0525 1.24001C18.0529 1.04134 18.0542 0.842727 18.0578 0.644086C18.0583 0.60845 18.0583 0.60845 18.059 0.572093C18.0604 0.507783 18.0626 0.443574 18.0652 0.379304C18.0665 0.344481 18.0678 0.309659 18.0691 0.273781C18.1067 0.0844191 18.2174 0.0585461 18.394 0.0593956ZM11.5168 14.7258C11.4933 14.7294 11.4699 14.7329 11.4457 14.7366C10.7654 14.8422 10.1006 15.0707 9.51732 15.4399C9.50072 15.4503 9.48413 15.4607 9.46703 15.4714C9.19863 15.6409 8.95375 15.8279 8.71755 16.0397C8.69426 16.0606 8.69426 16.0606 8.6705 16.0819C8.44522 16.2831 8.44522 16.2831 8.23197 16.4967C8.23197 16.5156 8.23197 16.5344 8.23197 16.5539C8.20369 16.5633 8.17541 16.5727 8.14628 16.5824C8.09584 16.6391 8.04941 16.6955 8.00346 16.7556C7.98973 16.7734 7.97601 16.7912 7.96186 16.8095C7.69827 17.1549 7.47105 17.5012 7.28938 17.8963C7.28055 17.915 7.27171 17.9337 7.26261 17.953C6.64526 19.2623 6.60629 20.871 7.07556 22.2313C7.28474 22.8046 7.58774 23.3378 7.9749 23.8089C7.98812 23.8251 8.00133 23.8413 8.01495 23.8579C8.32355 24.2327 8.65339 24.5691 9.04286 24.8599C9.0845 24.8911 9.12571 24.9228 9.16686 24.9546C9.79793 25.432 10.5374 25.7372 11.3168 25.8655C11.3393 25.8694 11.3617 25.8733 11.3848 25.8773C12.8378 26.1243 14.3182 25.8445 15.5417 25.0146C15.8221 24.8138 16.1035 24.5991 16.344 24.3516C16.3579 24.3376 16.3718 24.3235 16.3861 24.309C16.8808 23.8062 17.2975 23.2326 17.5722 22.5807C17.5847 22.551 17.5847 22.551 17.5975 22.5208C18.0307 21.4735 18.1236 20.2641 17.9149 19.1531C17.9105 19.1294 17.906 19.1057 17.9015 19.0813C17.6943 18.0365 17.1293 17.1152 16.4011 16.3539C16.3752 16.3268 16.3492 16.2997 16.3225 16.2718C16.0428 15.9857 15.7366 15.7433 15.4014 15.5256C15.3839 15.5142 15.3665 15.5028 15.3485 15.4911C14.2453 14.7813 12.8095 14.5142 11.5168 14.7258Z" fill="white"/>
</svg>
