<svg width="8" height="8" viewBox="0 0 8 8" fill="none" xmlns="http://www.w3.org/2000/svg">
<path id="Vector" d="M5.94421 1.50435C6.61476 2.04618 7.08691 2.72708 7.26705 3.57697C7.27206 3.5994 7.27706 3.62183 7.28221 3.64494C7.47306 4.57221 7.25018 5.52423 6.74855 6.31375C6.68791 6.40486 6.62626 6.49475 6.55297 6.57612C6.53412 6.57612 6.51527 6.57612 6.49584 6.57612C6.48612 6.5991 6.48612 6.5991 6.47621 6.62254C6.38559 6.7865 6.24833 6.9249 6.09596 7.03314C6.0771 7.03314 6.05825 7.03314 6.03883 7.03314C6.03883 7.05199 6.03883 7.07084 6.03883 7.09026C5.97791 7.13735 5.91741 7.18021 5.85317 7.22237C5.83393 7.23504 5.8147 7.24772 5.79488 7.26077C4.99971 7.77388 4.05365 7.99628 3.11912 7.79977C3.08348 7.79186 3.04784 7.78394 3.01111 7.77578C2.96649 7.767 2.96649 7.767 2.92096 7.75804C2.43055 7.65192 1.93358 7.38693 1.55438 7.0617C1.5197 7.03221 1.5197 7.03221 1.48431 7.00212C0.792664 6.39746 0.34775 5.55358 0.269033 4.63382C0.215186 3.63309 0.518829 2.75041 1.1545 1.97743C1.16693 1.96208 1.17936 1.94673 1.19216 1.93091C1.25771 1.8507 1.32366 1.77673 1.40264 1.70965C1.41925 1.69529 1.43585 1.68093 1.45296 1.66613C1.49726 1.63467 1.49726 1.63467 1.55438 1.63467C1.55438 1.61582 1.55438 1.59696 1.55438 1.57754C2.78373 0.529485 4.6811 0.550975 5.94421 1.50435Z" fill="white"/>
</svg>
