<svg width="7" height="32" viewBox="0 0 7 32" fill="none" xmlns="http://www.w3.org/2000/svg">
<path id="Vector" d="M1.12223 0.00121346C1.14545 0.00103523 1.16868 0.000856996 1.19261 0.00067336C1.27055 0.000217149 1.34847 0.000578828 1.42641 0.000938012C1.48224 0.00078322 1.53807 0.000579805 1.5939 0.00033132C1.74563 -0.000190234 1.89735 1.26991e-05 2.04907 0.000374632C2.20772 0.000663521 2.36636 0.000395734 2.52501 0.000216258C2.79145 8.28614e-06 3.05788 0.000282622 3.32432 0.000826437C3.63253 0.00144825 3.94074 0.00124685 4.24895 0.000617763C4.51338 9.95997e-05 4.77782 2.59674e-05 5.04225 0.000325123C5.20027 0.000503419 5.35829 0.000526516 5.51631 0.000149574C5.66485 -0.000180011 5.81339 4.76364e-05 5.96194 0.000708759C6.01652 0.000860078 6.0711 0.000816024 6.12567 0.000564495C6.20006 0.000253226 6.27442 0.00064268 6.3488 0.00121346C6.37051 0.000958596 6.39222 0.000703729 6.41458 0.000441139C6.50679 0.00181781 6.56866 0.0103285 6.64811 0.0584338C6.71108 0.161498 6.70741 0.257947 6.70594 0.375118C6.70615 0.412994 6.70615 0.412994 6.70636 0.451636C6.70669 0.537345 6.70619 0.62303 6.7057 0.708738C6.70576 0.771084 6.70587 0.83343 6.70602 0.895776C6.7063 1.07001 6.70584 1.24424 6.70528 1.41847C6.70483 1.59134 6.70491 1.76421 6.70496 1.93709C6.70505 2.32534 6.70443 2.71358 6.70355 3.10182C6.70276 3.45345 6.70223 3.80507 6.70192 4.1567C6.69952 6.74552 6.69114 9.33434 6.65802 18.7498C6.65771 18.8309 6.6574 18.912 6.65708 18.9931C6.65372 19.8705 6.65025 20.7479 6.6464 21.6253C6.64495 21.9572 6.64352 22.289 6.6421 22.6209C6.64185 22.6791 6.6416 22.7373 6.64135 22.7955C6.63661 23.8955 6.6336 24.9955 6.63209 26.0955C6.63167 26.3987 6.63111 26.7018 6.63044 27.0049C6.6304 27.0245 6.63035 27.0441 6.63031 27.0643C6.62988 27.2597 6.62943 27.4551 6.62896 27.6506C6.62792 28.0834 6.62733 28.5163 6.62739 28.9492C6.62739 29.2272 6.6269 29.5051 6.62599 29.783C6.62549 29.9427 6.62523 30.1023 6.6256 30.2619C6.62593 30.4076 6.62561 30.5532 6.62477 30.6989C6.62458 30.7516 6.62464 30.8043 6.62495 30.857C6.62535 30.9283 6.62488 30.9996 6.62418 31.071C6.62451 31.0916 6.62483 31.1122 6.62517 31.1334C6.62308 31.2425 6.60832 31.2898 6.54019 31.3767C6.43891 31.454 6.3549 31.4553 6.23239 31.4535C6.19772 31.4539 6.19772 31.4539 6.16234 31.4542C6.08495 31.4548 6.0076 31.4543 5.9302 31.4539C5.8747 31.4541 5.81919 31.4543 5.76368 31.4546C5.61295 31.4553 5.46224 31.455 5.31152 31.4546C5.15384 31.4542 4.99616 31.4545 4.83848 31.4548C4.57368 31.455 4.30888 31.4547 4.04408 31.454C3.73786 31.4532 3.43165 31.4535 3.12543 31.4543C2.8626 31.4549 2.59977 31.455 2.33693 31.4546C2.17992 31.4544 2.02291 31.4544 1.86589 31.4549C1.71828 31.4553 1.57068 31.455 1.42307 31.4542C1.36887 31.454 1.31467 31.454 1.26048 31.4543C1.18653 31.4547 1.11264 31.4542 1.03869 31.4535C1.00646 31.454 1.00646 31.454 0.973567 31.4545C0.871048 31.4526 0.814387 31.4402 0.730804 31.3796C0.639858 31.2594 0.645653 31.1715 0.648464 31.0246C0.648415 30.9973 0.648366 30.97 0.648315 30.9418C0.648326 30.8494 0.649364 30.7571 0.650388 30.6647C0.650604 30.5976 0.650756 30.5306 0.65085 30.4636C0.651198 30.3165 0.651992 30.1695 0.653164 30.0225C0.654924 29.801 0.655841 29.5795 0.656577 29.3581C0.657778 29.001 0.659485 28.6439 0.661516 28.2867C0.664869 27.6963 0.666837 27.1058 0.668436 26.5153C0.669078 26.2797 0.669755 26.0441 0.670432 25.8084C0.670508 25.782 0.670583 25.7555 0.670661 25.7283C0.672518 25.0827 0.674876 24.4371 0.677291 23.7916C0.677399 23.7626 0.677507 23.7335 0.677619 23.7037C0.67862 23.4356 0.679625 23.1676 0.680636 22.8995C0.682268 22.4664 0.683871 22.0333 0.685456 21.6002C0.685628 21.5533 0.685628 21.5533 0.685803 21.5053C0.686269 21.378 0.686735 21.2507 0.687201 21.1234C0.691529 19.9403 0.695934 18.7572 0.700377 17.5741C0.704276 16.5355 0.708108 15.497 0.711883 14.4584C0.716174 13.2777 0.720508 12.097 0.724907 10.9164C0.725381 10.7892 0.725855 10.662 0.726329 10.5348C0.726445 10.5035 0.726562 10.4722 0.726682 10.4399C0.728288 10.0087 0.72987 9.57748 0.731433 9.14624C0.732399 8.87972 0.733372 8.6132 0.734347 8.34667C0.734453 8.31774 0.734559 8.28881 0.734668 8.25901C0.73704 7.61163 0.739518 6.96425 0.742362 6.31687C0.74248 6.29008 0.742598 6.2633 0.742719 6.2357C0.743776 5.99541 0.744842 5.75513 0.745935 5.51484C0.748705 4.9061 0.751114 4.29736 0.752745 3.68861C0.753919 3.25116 0.755465 2.81371 0.7574 2.37626C0.75854 2.11507 0.759354 1.85389 0.759712 1.59271C0.759982 1.41864 0.760658 1.24457 0.76167 1.0705C0.762235 0.971056 0.762615 0.871619 0.762497 0.772173C0.762464 0.665118 0.763121 0.558089 0.763961 0.451037C0.763783 0.419807 0.763606 0.388576 0.763423 0.356399C0.76609 0.149349 0.76609 0.149349 0.830885 0.0536807C0.924816 -0.0032948 1.01564 -3.80675e-05 1.12223 0.00121346Z" fill="white"/>
</svg>
