<svg width="35" height="31" viewBox="0 0 35 31" fill="none" xmlns="http://www.w3.org/2000/svg">
<path id="Vector" d="M15.099 0.92554C15.135 0.925566 15.171 0.925592 15.2081 0.92562C15.238 0.925583 15.238 0.925583 15.2686 0.925546C15.336 0.925498 15.4034 0.925656 15.4708 0.925812C15.519 0.92582 15.5671 0.925815 15.6152 0.925799C15.7463 0.925791 15.8773 0.925959 16.0084 0.926158C16.1452 0.926336 16.282 0.926354 16.4189 0.926388C16.6781 0.926476 16.9374 0.926711 17.1967 0.926997C17.4918 0.927316 17.7869 0.927474 18.0819 0.927617C18.6891 0.927916 19.2963 0.928419 19.9035 0.929054C19.9353 1.04658 19.9671 1.16412 19.9988 1.28167C20.0077 1.31458 20.0166 1.34749 20.0257 1.3814C20.0972 1.64637 20.1651 1.91208 20.2309 2.17852C20.261 2.30046 20.2913 2.42234 20.3216 2.54422C20.3275 2.56784 20.3334 2.59146 20.3394 2.6158C20.3925 2.82868 20.4473 3.04108 20.5041 3.25302C20.541 3.39227 20.5748 3.53199 20.6073 3.67236C20.6985 4.06492 20.8 4.45505 20.8994 4.84561C20.9212 4.93126 20.9429 5.01693 20.9646 5.10259C21.1145 5.69375 21.1145 5.69375 21.2694 6.28363C21.3559 6.61172 21.4352 6.94176 21.5159 7.27132C21.5421 7.37804 21.5683 7.48474 21.5945 7.59145C21.6274 7.72562 21.6603 7.85979 21.6932 7.99398C21.7201 8.10398 21.7471 8.21396 21.7741 8.32393C21.7843 8.36521 21.7944 8.40649 21.8045 8.44778C21.8624 8.68497 21.9247 8.92037 21.9927 9.15488C22.0209 9.25389 22.045 9.35273 22.0674 9.4532C22.1205 9.68449 22.1782 9.91453 22.2366 10.1445C22.2438 10.1729 22.2438 10.1729 22.2511 10.2018C22.2811 10.3198 22.3111 10.4378 22.3412 10.5558C22.3614 10.635 22.3815 10.7142 22.4016 10.7934C22.4938 11.1563 22.5864 11.519 22.6816 11.8811C22.728 12.0578 22.773 12.2347 22.814 12.4127C22.8913 12.7484 22.9782 13.0816 23.0633 13.4153C23.1098 13.5976 23.1562 13.7799 23.2026 13.9621C23.2128 14.0023 23.223 14.0424 23.2332 14.0826C23.3105 14.3865 23.3874 14.6904 23.4633 14.9947C23.468 15.0138 23.4728 15.033 23.4777 15.0527C23.503 15.154 23.5282 15.2553 23.5534 15.3566C23.7699 16.2261 23.9873 17.0953 24.2074 17.9639C24.2277 18.0442 24.248 18.1245 24.2683 18.2048C24.2967 18.317 24.3252 18.4291 24.3536 18.5412C24.3621 18.5746 24.3705 18.608 24.3792 18.6424C24.387 18.6734 24.3949 18.7043 24.403 18.7361C24.4132 18.7763 24.4132 18.7763 24.4236 18.8172C24.4468 18.9015 24.4739 18.984 24.5022 19.0668C24.5083 19.0431 24.5083 19.0431 24.5144 19.019C24.5578 18.8486 24.6012 18.6783 24.6446 18.508C24.6616 18.4412 24.6786 18.3743 24.6957 18.3074C24.8662 17.6383 24.8662 17.6383 24.9488 17.3175C24.9545 17.2954 24.9602 17.2733 24.966 17.2505C24.9716 17.2287 24.9772 17.207 24.983 17.1845C24.9941 17.1413 25.0053 17.0981 25.0164 17.0548C25.0219 17.0332 25.0275 17.0117 25.0332 16.9894C25.1488 16.5402 25.2606 16.09 25.3727 15.6399C25.4713 15.2439 25.5721 14.8487 25.6787 14.4547C25.7504 14.1892 25.8177 13.9227 25.884 13.6558C25.9731 13.2972 26.0634 12.939 26.1553 12.5811C26.1612 12.5582 26.1671 12.5353 26.1732 12.5116C26.1974 12.4176 26.2216 12.3235 26.2457 12.2295C26.3237 11.9262 26.4013 11.6228 26.4788 11.3194C26.5477 11.0497 26.6168 10.78 26.6862 10.5104C26.7092 10.4211 26.7322 10.3318 26.7552 10.2425C26.7609 10.2204 26.7665 10.1983 26.7724 10.1755C26.889 9.72207 27.0019 9.26771 27.115 8.81335C27.2137 8.41729 27.3145 8.02208 27.4211 7.62809C27.4927 7.36255 27.5601 7.09607 27.6264 6.82916C27.7154 6.47057 27.8057 6.11233 27.8977 5.75447C27.9036 5.73146 27.9095 5.70846 27.9156 5.68476C27.946 5.56646 27.9764 5.44818 28.0068 5.3299C28.0705 5.08227 28.1342 4.83463 28.1976 4.58694C28.2073 4.54914 28.2073 4.54914 28.2172 4.51058C28.3168 4.12184 28.4144 3.73264 28.5113 3.34323C28.6469 2.79861 28.7864 2.2553 28.9318 1.71325C28.9564 1.62111 28.9806 1.5289 29.0047 1.43661C29.0114 1.41066 29.0182 1.38472 29.0251 1.35799C29.0371 1.3121 29.0489 1.2662 29.0608 1.22029C29.0978 1.07815 29.0978 1.07815 29.1295 1.01474C29.8597 1.00874 30.5899 1.00421 31.3201 1.00143C31.6592 1.0001 31.9982 0.998292 32.3373 0.995351C32.6328 0.992789 32.9283 0.99113 33.2238 0.990557C33.3803 0.990222 33.5368 0.989434 33.6933 0.987564C33.8406 0.985819 33.9878 0.985281 34.1352 0.985668C34.1892 0.985597 34.2432 0.985086 34.2973 0.9841C34.7034 0.977053 34.7034 0.977053 34.8341 1.06978C34.9046 1.15515 34.9528 1.22347 34.9613 1.33556C34.9552 1.3976 34.9399 1.4511 34.9206 1.51036C34.9146 1.53241 34.9086 1.55447 34.9023 1.57719C34.8896 1.62373 34.8763 1.67013 34.8625 1.71639C34.8365 1.80539 34.8143 1.89513 34.7921 1.98515C34.7689 2.07855 34.7447 2.17166 34.7205 2.2648C34.6861 2.39738 34.652 2.53005 34.6179 2.66271C34.6107 2.69076 34.6035 2.71881 34.5961 2.74771C34.4912 3.15656 34.3896 3.56626 34.2878 3.97589C34.2028 4.31738 34.1158 4.65823 34.0265 4.99863C33.9682 5.22121 33.9113 5.44415 33.8544 5.6671C33.8206 5.79977 33.7867 5.93243 33.7528 6.0651C33.7424 6.10543 33.7424 6.10543 33.7319 6.14658C33.67 6.38895 33.6079 6.63127 33.5457 6.87357C33.5281 6.94208 33.5106 7.01059 33.493 7.0791C33.3936 7.46702 33.3936 7.46702 33.348 7.64443C33.3092 7.79516 33.2706 7.94591 33.2319 8.09666C33.2254 8.12188 33.219 8.1471 33.2123 8.17308C33.0977 8.62034 32.9859 9.06826 32.8744 9.5163C32.7784 9.90212 32.6797 10.2871 32.577 10.6712C32.4974 10.9687 32.421 11.2669 32.3469 11.5658C32.2639 11.9005 32.1787 12.2346 32.093 12.5686C31.978 13.0162 31.8653 13.4644 31.7538 13.9129C31.6512 14.3253 31.5464 14.7369 31.4365 15.1474C31.3475 15.4799 31.2633 15.8133 31.1806 16.1474C31.1038 16.4567 31.0243 16.7651 30.9399 17.0725C30.8808 17.288 30.8262 17.5045 30.7725 17.7214C30.7481 17.8199 30.7236 17.9183 30.699 18.0167C30.694 18.0371 30.6889 18.0575 30.6837 18.0785C30.4481 19.0241 30.2085 19.9687 29.9657 20.9124C29.9598 20.9351 29.954 20.9578 29.948 20.9811C29.9255 21.0685 29.903 21.1558 29.8805 21.2432C29.766 21.6881 29.6553 22.134 29.5443 22.5798C29.4484 22.9648 29.3506 23.3489 29.2465 23.7318C29.1413 24.122 29.0453 24.5146 28.9479 24.9068C28.8564 25.2745 28.7643 25.6419 28.6654 26.0076C28.5861 26.3009 28.5102 26.5948 28.4368 26.8895C28.4316 26.9105 28.4264 26.9315 28.421 26.9531C28.3872 27.0888 28.3536 27.2246 28.3199 27.3603C28.2567 27.6152 28.1933 27.8701 28.1298 28.1249C28.1225 28.1542 28.1152 28.1834 28.1077 28.2136C28.0044 28.6273 27.8982 29.0402 27.7879 29.4522C27.7154 29.7229 27.6462 29.9944 27.5803 30.2668C27.5708 30.3055 27.5708 30.3055 27.5612 30.3449C27.5558 30.3673 27.5504 30.3897 27.5449 30.4128C27.53 30.4635 27.53 30.4635 27.5014 30.4921C27.4284 30.4949 27.3562 30.4958 27.2833 30.4955C27.2601 30.4955 27.237 30.4956 27.2132 30.4956C27.1351 30.4956 27.0571 30.4955 26.979 30.4953C26.9233 30.4953 26.8675 30.4953 26.8118 30.4953C26.66 30.4954 26.5083 30.4952 26.3565 30.495C26.198 30.4948 26.0396 30.4948 25.8812 30.4948C25.5809 30.4947 25.2807 30.4944 24.9805 30.4941C24.6387 30.4938 24.297 30.4937 23.9553 30.4935C23.2522 30.4932 22.549 30.4927 21.8459 30.4921C21.8108 30.3525 21.7757 30.2128 21.7407 30.0732C21.7289 30.0258 21.717 29.9785 21.7051 29.9311C21.635 29.6522 21.5664 29.3731 21.5031 29.0925C21.436 28.7968 21.3632 28.5028 21.2889 28.2088C21.2131 27.9091 21.14 27.6094 21.0746 27.3073C21.0106 27.0118 20.9397 26.7185 20.8658 26.4254C20.8576 26.393 20.8576 26.393 20.8493 26.36C20.8382 26.3161 20.8272 26.2722 20.8161 26.2283C20.8106 26.2064 20.8051 26.1845 20.7994 26.162C20.7938 26.1399 20.7883 26.1179 20.7825 26.0951C20.7206 25.849 20.6599 25.6026 20.5998 25.356C20.5917 25.3229 20.5917 25.3229 20.5835 25.2891C20.5107 24.9902 20.4414 24.6906 20.3748 24.3902C20.2894 24.0049 20.1921 23.6232 20.0928 23.2412C20.0875 23.2208 20.0822 23.2004 20.0767 23.1793C20.0689 23.1492 20.0689 23.1492 20.0609 23.1186C19.987 22.8335 19.92 22.5469 19.8539 22.26C19.7495 21.8078 19.6414 21.3569 19.528 20.9069C19.4526 20.6079 19.3806 20.3085 19.3125 20.0077C19.2518 19.7412 19.185 19.4763 19.1181 19.2114C19.0423 18.9117 18.9692 18.612 18.9038 18.3098C18.8398 18.0144 18.7689 17.7211 18.695 17.4279C18.6868 17.3956 18.6868 17.3956 18.6785 17.3626C18.6674 17.3187 18.6564 17.2749 18.6453 17.231C18.6398 17.2091 18.6343 17.1872 18.6286 17.1646C18.623 17.1426 18.6175 17.1205 18.6117 17.0978C18.5496 16.8511 18.4891 16.604 18.429 16.3568C18.4236 16.3346 18.4182 16.3125 18.4126 16.2896C18.3336 15.9648 18.2573 15.6394 18.1822 15.3137C18.1057 14.9846 18.0232 14.657 17.9407 14.3294C17.852 13.9769 17.767 13.624 17.6865 13.2696C17.6192 12.9734 17.5471 12.6782 17.4757 12.3829C17.3169 12.9769 17.1665 13.5728 17.0304 14.1723C16.9632 14.4656 16.8898 14.7572 16.8162 15.0489C16.7374 15.3615 16.6623 15.6746 16.591 15.9891C16.5461 16.1858 16.4967 16.3807 16.4441 16.5755C16.3956 16.7569 16.3532 16.9395 16.3117 17.1227C16.2422 17.4291 16.1672 17.7339 16.0903 18.0385C16.0161 18.333 15.9432 18.6276 15.8761 18.9239C15.8055 19.2355 15.7288 19.5453 15.6508 19.8551C15.5598 20.2166 15.4708 20.5786 15.3831 20.941C15.3183 21.2086 15.2527 21.4759 15.1852 21.7428C15.1288 21.9665 15.0757 22.1908 15.0246 22.4158C14.9505 22.7415 14.8699 23.0654 14.7882 23.3893C14.7094 23.7019 14.6343 24.0151 14.563 24.3296C14.5231 24.5043 14.4804 24.6778 14.4337 24.8508C14.3685 25.0922 14.3121 25.3352 14.2564 25.5789C14.1801 25.9129 14.1001 26.2459 14.0195 26.5789C14.01 26.6181 14.0005 26.6574 13.991 26.6966C13.8687 27.2028 13.7447 27.7084 13.6179 28.2135C13.5345 28.546 13.4524 28.8789 13.3715 29.2121C13.3661 29.2342 13.3607 29.2562 13.3552 29.279C13.3014 29.5005 13.2479 29.7222 13.1951 29.944C13.1831 29.9943 13.1831 29.9943 13.1709 30.0455C13.1563 30.107 13.1417 30.1684 13.1273 30.2298C13.121 30.2564 13.1146 30.283 13.1082 30.3103C13.1001 30.3447 13.1001 30.3447 13.0918 30.3797C13.0769 30.435 13.0769 30.435 13.0483 30.4921C11.1914 30.4921 9.33454 30.4921 7.42137 30.4921C6.927 28.5764 6.927 28.5764 6.76597 27.9277C6.69691 27.6502 6.62542 27.3732 6.55403 27.0963C6.45296 26.7039 6.35452 26.3108 6.25667 25.9176C6.14194 25.4566 6.02625 24.9961 5.90213 24.5376C5.8305 24.272 5.76315 24.0056 5.69686 23.7386C5.61015 23.3896 5.52228 23.0408 5.43265 22.6925C5.30979 22.2149 5.18809 21.737 5.06668 21.259C4.9421 20.7686 4.81734 20.2782 4.69179 19.788C4.57537 19.3334 4.45939 18.8788 4.34367 18.4241C4.33118 18.375 4.33118 18.375 4.31843 18.3249C4.22119 17.9428 4.12402 17.5606 4.02691 17.1785C3.79461 16.2643 3.56194 15.3503 3.32722 14.4368C3.30482 14.3496 3.28243 14.2625 3.26005 14.1753C3.25447 14.1536 3.24889 14.1319 3.24315 14.1095C3.11605 13.6143 2.99041 13.1188 2.86468 12.6233C2.73986 12.1314 2.61482 11.6395 2.4885 11.148C2.37211 10.6951 2.25677 10.2419 2.14152 9.78862C2.0554 9.44999 1.96927 9.11136 1.88242 8.77292C1.87593 8.74759 1.86943 8.72226 1.86273 8.69616C1.85311 8.65868 1.85311 8.65868 1.8433 8.62045C1.83057 8.57082 1.81784 8.52118 1.8051 8.47155C1.79883 8.44712 1.79256 8.42268 1.7861 8.3975C1.68926 8.01985 1.59442 7.64172 1.50028 7.26339C1.3567 6.68639 1.20855 6.11079 1.05578 5.53616C0.961425 5.18118 0.868116 4.82604 0.779899 4.46948C0.756619 4.37543 0.733185 4.28141 0.709765 4.18739C0.70262 4.1587 0.70262 4.1587 0.69533 4.12942C0.587855 3.69794 0.479045 3.26681 0.368607 2.83607C0.348484 2.75754 0.328403 2.679 0.308337 2.60046C0.295276 2.54936 0.282215 2.49825 0.269153 2.44715C0.26282 2.42237 0.256488 2.3976 0.249963 2.37207C0.215295 2.23662 0.180315 2.10125 0.144936 1.96598C0.129991 1.90871 0.115172 1.85141 0.100409 1.7941C0.083014 1.72664 0.0653923 1.65925 0.047494 1.59192C0.0362616 1.54802 0.0362616 1.54802 0.0248023 1.50322C0.018276 1.47828 0.0117496 1.45334 0.00502552 1.42764C-0.0166925 1.2772 0.0338091 1.1771 0.121216 1.05824C0.184059 0.997586 0.246504 0.990647 0.331991 0.988935C0.364208 0.989809 0.364209 0.989809 0.397078 0.9907C0.420178 0.990529 0.443277 0.990359 0.467077 0.990183C0.544428 0.989853 0.621691 0.990952 0.699033 0.992046C0.754492 0.992102 0.80995 0.992071 0.865409 0.991957C1.01596 0.9919 1.16647 0.993076 1.31701 0.994471C1.47434 0.995721 1.63166 0.995839 1.78899 0.996076C2.08691 0.996698 2.38481 0.998339 2.68272 1.00034C3.02189 1.00258 3.36105 1.00368 3.70022 1.00468C4.39791 1.00677 5.09558 1.01029 5.79326 1.01474C5.83599 1.17331 5.87868 1.33189 5.92132 1.49048C5.93578 1.54422 5.95025 1.59796 5.96473 1.65169C6.05279 1.9784 6.13893 2.30539 6.21992 2.63393C6.22962 2.67316 6.23932 2.71239 6.24902 2.75163C6.25724 2.78488 6.26546 2.81813 6.27393 2.85239C6.3508 3.1623 6.43194 3.47112 6.5127 3.78003C6.51991 3.80763 6.52712 3.83522 6.53455 3.86365C6.59508 4.09516 6.65564 4.32665 6.71684 4.55798C6.78625 4.82044 6.85405 5.08323 6.91927 5.34677C7.20741 6.51153 7.20741 6.51153 7.51292 7.67182C7.54719 7.79842 7.58077 7.9252 7.61417 8.05203C7.61916 8.07085 7.62415 8.08967 7.62929 8.10905C7.66412 8.24125 7.69738 8.37383 7.73043 8.50648C7.79879 8.78077 7.86892 9.05461 7.93908 9.32845C7.95293 9.38256 7.96678 9.43666 7.98063 9.49077C8.0227 9.65506 8.06479 9.81934 8.10689 9.98363C8.1164 10.0208 8.1164 10.0208 8.12611 10.0586C8.19727 10.3363 8.26848 10.614 8.3397 10.8917C8.39897 11.1227 8.45821 11.3538 8.51746 11.5848C8.54722 11.7009 8.57698 11.817 8.60675 11.9331C8.61865 11.9795 8.63055 12.0259 8.64245 12.0723C8.64834 12.0953 8.65423 12.1183 8.6603 12.1419C8.77337 12.5829 8.88643 13.0238 8.99949 13.4648C9.00538 13.4878 9.01128 13.5107 9.01734 13.5344C9.02925 13.5808 9.04115 13.6272 9.05305 13.6737C9.08278 13.7896 9.11252 13.9056 9.14225 14.0215C9.19608 14.2314 9.2499 14.4414 9.30371 14.6513C9.43406 15.1598 9.56452 15.6684 9.69536 16.1768C9.75027 16.3902 9.80505 16.6036 9.85963 16.8171C9.99365 17.3411 10.1288 17.8649 10.2652 18.3884C10.2766 18.4321 10.2766 18.4321 10.2882 18.4768C10.3097 18.5594 10.3312 18.6419 10.3528 18.7244C10.3592 18.7492 10.3657 18.774 10.3723 18.7995C10.3783 18.8222 10.3842 18.845 10.3903 18.8684C10.3955 18.8882 10.4007 18.908 10.406 18.9284C10.4188 18.975 10.4338 19.0209 10.4491 19.0668C10.5296 18.7508 10.6099 18.4348 10.6901 18.1188C10.6992 18.0829 10.6992 18.0829 10.7085 18.0463C10.8914 17.3255 11.0717 16.6042 11.2489 15.882C11.4202 15.1834 11.5946 14.4858 11.775 13.7896C11.8025 13.6832 11.8299 13.5768 11.8574 13.4705C11.8678 13.4302 11.8782 13.39 11.8885 13.3498C11.8935 13.3305 11.8985 13.3113 11.9036 13.2914C11.9179 13.236 11.9322 13.1805 11.9466 13.1251C12.0634 12.6726 12.0634 12.6726 12.1726 12.2182C12.2352 11.9476 12.3048 11.6789 12.3751 11.4101C12.4262 11.214 12.475 11.0177 12.5203 10.8202C12.5656 10.6241 12.6171 10.4296 12.669 10.2351C12.7101 10.0801 12.7484 9.92453 12.7847 9.76828C12.8655 9.42132 12.9529 9.07597 13.0394 8.73041C13.0488 8.6931 13.0581 8.65579 13.0674 8.61848C13.1761 8.18395 13.2854 7.7496 13.3959 7.31552C13.4008 7.29618 13.4057 7.27684 13.4108 7.25692C13.4358 7.15872 13.4608 7.06052 13.4858 6.96232C13.4908 6.94274 13.4958 6.92317 13.5009 6.90301C13.511 6.86317 13.5212 6.82334 13.5313 6.78351C13.6968 6.13347 13.8587 5.48261 14.0184 4.83115C14.2032 4.07743 14.3925 3.32488 14.584 2.57281C14.5915 2.54303 14.5915 2.54303 14.5993 2.51265C14.6241 2.4151 14.6489 2.31757 14.6738 2.22004C14.7255 2.01699 14.7766 1.8138 14.827 1.6104C14.8323 1.58904 14.8375 1.56768 14.843 1.54568C14.8685 1.44277 14.8939 1.33983 14.9192 1.23686C14.9281 1.20061 14.9371 1.16437 14.9464 1.12702C14.9542 1.09491 14.9621 1.0628 14.9703 1.02972C14.9985 0.929968 14.9985 0.929968 15.099 0.92554Z" fill="white"/>
</svg>
