<svg width="10" height="14" viewBox="0 0 10 14" fill="none" xmlns="http://www.w3.org/2000/svg">
<path d="M4.17611 0.610196L4.25798 0.620289L8.88582 1.65964C9.07508 1.70216 9.21793 1.87076 9.25069 2.0782L9.2578 2.16922V11.5202C9.2578 11.7369 9.13861 11.9273 8.9639 12.004L8.88582 12.0297L4.25798 13.0691C4.12202 13.0997 3.98104 13.0601 3.87382 12.9614C3.78804 12.8824 3.7311 12.7722 3.71176 12.6516L3.70444 12.5595V1.12987L3.71176 1.03777C3.7311 0.917142 3.78804 0.806952 3.87382 0.727986C3.9596 0.649021 4.06698 0.607937 4.17611 0.610196ZM2.77888 1.64955V2.6889H0.927757V11.0005H2.77888V12.0398H0.464977C0.237791 12.0398 0.0488381 11.856 0.00965329 11.6136L0.00219727 11.5202V2.16922C0.00219727 1.91411 0.165908 1.70192 0.381793 1.65792L0.464977 1.64955H2.77888ZM4.63 1.76378V11.9256L8.33224 11.0941V2.59526L4.63 1.76378ZM6.01834 6.32497C6.27392 6.32497 6.48112 6.55764 6.48112 6.84465C6.48112 7.13166 6.27392 7.36432 6.01834 7.36432C5.76275 7.36432 5.55556 7.13166 5.55556 6.84465C5.55556 6.55764 5.76275 6.32497 6.01834 6.32497Z" fill="#666666"/>
</svg>
