<svg width="48" height="49" viewBox="0 0 48 49" fill="none" xmlns="http://www.w3.org/2000/svg">
<g id="Group 8818">
<circle id="Ellipse 185" cx="24" cy="24.9359" r="23.5" fill="#F6F7FB" stroke="#BCBCBC"/>
<path id="Vector" d="M31 23.9359H25V17.9359C25 17.6707 24.8946 17.4163 24.7071 17.2288C24.5196 17.0413 24.2652 16.9359 24 16.9359C23.7348 16.9359 23.4804 17.0413 23.2929 17.2288C23.1054 17.4163 23 17.6707 23 17.9359V23.9359H17C16.7348 23.9359 16.4804 24.0413 16.2929 24.2288C16.1054 24.4163 16 24.6707 16 24.9359C16 25.2011 16.1054 25.4555 16.2929 25.643C16.4804 25.8306 16.7348 25.9359 17 25.9359H23V31.9359C23 32.2011 23.1054 32.4555 23.2929 32.643C23.4804 32.8306 23.7348 32.9359 24 32.9359C24.2652 32.9359 24.5196 32.8306 24.7071 32.643C24.8946 32.4555 25 32.2011 25 31.9359V25.9359H31C31.2652 25.9359 31.5196 25.8306 31.7071 25.643C31.8946 25.4555 32 25.2011 32 24.9359C32 24.6707 31.8946 24.4163 31.7071 24.2288C31.5196 24.0413 31.2652 23.9359 31 23.9359Z" fill="#7C7C7C"/>
</g>
</svg>
