<svg width="22" height="22" viewBox="0 0 22 22" fill="none" xmlns="http://www.w3.org/2000/svg">
<path id="Vector" d="M21.1342 9.59198L21.1348 9.5836V9.5752V7.2533C21.1348 5.2701 20.5148 3.63827 19.376 2.5018C18.2373 1.36542 16.6056 0.75 14.6315 0.75H7.13806C5.15537 0.75 3.52346 1.36528 2.38675 2.50198C1.25004 3.63869 0.634766 5.27061 0.634766 7.2533V14.7555C0.634766 16.7339 1.25013 18.3637 2.38684 19.4992C3.52352 20.6347 5.15538 21.25 7.13806 21.25H14.6403C16.6187 21.25 18.2484 20.6346 19.3839 19.4991C20.5194 18.3636 21.1348 16.7339 21.1348 14.7555C21.1348 14.1948 20.6803 13.7403 20.1196 13.7403C19.5589 13.7403 19.1044 14.1948 19.1044 14.7555C19.1044 16.228 18.6996 17.3347 17.9606 18.0737C17.2216 18.8127 16.1128 19.2197 14.6315 19.2197H7.13806C5.66099 19.2197 4.55204 18.8148 3.81196 18.0767C3.07199 17.3388 2.66511 16.2322 2.66511 14.7555V7.2533C2.66511 5.77623 3.07 4.66736 3.80903 3.92731C4.54799 3.18733 5.65677 2.78034 7.13806 2.78034H14.6315C16.1082 2.78034 17.2171 3.18724 17.9573 3.92744C18.6975 4.66763 19.1044 5.77657 19.1044 7.2533V9.56366C19.099 9.83351 19.2021 10.0943 19.3908 10.2874C19.5424 10.4425 19.7388 10.5434 19.9501 10.5775L19.96 10.5791L19.97 10.5799L20.0908 10.5896L20.1008 10.5904H20.1108H20.1196C20.6337 10.5904 21.0583 10.2084 21.1255 9.71264L21.1266 9.70425L21.1272 9.69581L21.1342 9.59198ZM7.62538 15.7492L7.62553 15.7492V15.7405V9.35061C7.63368 9.08297 7.53576 8.82287 7.35298 8.62703C7.1695 8.43045 6.91555 8.31471 6.64686 8.30517C6.37851 8.29296 6.11638 8.38856 5.91887 8.5707C5.76053 8.71673 5.65429 8.90863 5.61347 9.11731L5.61156 9.12709L5.61043 9.137L5.59679 9.25666L5.59519 9.27076V9.28496V15.6838C5.57841 16.2423 6.01631 16.7099 6.57536 16.7292C7.13594 16.7485 7.60605 16.3097 7.62538 15.7492ZM11.9351 6.32102C11.9351 5.76036 11.4806 5.30585 10.9199 5.30585C10.3593 5.30585 9.90477 5.76036 9.90477 6.32102V15.6966C9.90477 16.2572 10.3593 16.7117 10.9199 16.7117C11.4806 16.7117 11.9351 16.2572 11.9351 15.6966V6.32102ZM16.1743 12.6974C16.1743 12.1368 15.7198 11.6823 15.1592 11.6823C14.5985 11.6823 14.144 12.1368 14.144 12.6974V15.6878C14.144 16.2484 14.5985 16.7029 15.1592 16.7029C15.7198 16.7029 16.1743 16.2484 16.1743 15.6878V12.6974Z" fill="#1E1E1E" stroke="#111C30" stroke-width="0.5"/>
</svg>
