<svg width="10" height="16" viewBox="0 0 10 16" fill="none" xmlns="http://www.w3.org/2000/svg">
<path d="M8.77126 15.1587L8.9407 15.3426C9.0373 15.2535 9.11459 15.1456 9.16779 15.0255C9.22099 14.9054 9.24896 14.7756 9.24997 14.6442C9.25099 14.5129 9.22502 14.3827 9.17368 14.2618C9.12247 14.1411 9.04711 14.0323 8.95224 13.9419C8.952 13.9417 8.95176 13.9414 8.95152 13.9412L3.21187 8.40295L3.21187 8.40295L3.21043 8.40158C3.16526 8.35869 3.1293 8.30706 3.10473 8.24983L2.87501 8.34847L3.10473 8.24983C3.08015 8.1926 3.06748 8.13097 3.06748 8.06869C3.06748 8.0064 3.08015 7.94477 3.10473 7.88754C3.1293 7.83031 3.16526 7.77868 3.21043 7.73579L3.21043 7.7358L3.21188 7.73441L8.90554 2.23995C8.90582 2.23968 8.9061 2.23941 8.90638 2.23915C9.00034 2.14977 9.07518 2.04225 9.12637 1.9231C9.17771 1.80359 9.20419 1.67488 9.20419 1.5448C9.20419 1.41473 9.17771 1.28602 9.12637 1.16651C9.07515 1.04731 9.00027 0.939742 8.90626 0.850339C8.51499 0.474177 7.88573 0.474059 7.49513 0.851103C7.49512 0.85111 7.49511 0.851119 7.4951 0.851127L1.26899 6.85985C1.26874 6.86009 1.26849 6.86033 1.26824 6.86057C1.10461 7.01626 0.97431 7.20356 0.885228 7.41111C0.796008 7.61899 0.75 7.84284 0.75 8.06905C0.75 8.29526 0.796008 8.51911 0.885228 8.72698C0.974315 8.93455 1.10463 9.12186 1.26826 9.27755L7.54021 15.3313L7.5402 15.3313L7.54159 15.3327C7.72999 15.5117 7.97948 15.6124 8.23939 15.6142C8.4993 15.616 8.75015 15.5188 8.94099 15.3423L8.77126 15.1587ZM8.77126 15.1587C8.8427 15.0929 8.89986 15.0131 8.9392 14.9242C8.97854 14.8354 8.99923 14.7395 8.99998 14.6423C9.00073 14.5451 8.98153 14.4489 8.94356 14.3594L7.71383 15.1515C7.85619 15.2868 8.04471 15.3628 8.24111 15.3642C8.43751 15.3655 8.62706 15.2921 8.77126 15.1587Z" fill="#111C30" stroke="#111C30" stroke-width="0.5"/>
</svg>
