<svg width="11" height="14" viewBox="0 0 11 14" fill="none" xmlns="http://www.w3.org/2000/svg">
<path d="M9.63626 3.24403H8.00364C7.86135 2.70607 7.60989 2.20315 7.26489 1.76655H9.63626C9.83218 1.76655 10.0201 1.68872 10.1586 1.55018C10.2972 1.41163 10.375 1.22373 10.375 1.02781C10.375 0.831879 10.2972 0.643976 10.1586 0.505435C10.0201 0.366894 9.83218 0.289063 9.63626 0.289062H1.51008C1.31416 0.289063 1.12626 0.366894 0.987715 0.505435C0.849173 0.643976 0.771342 0.831879 0.771342 1.02781C0.771342 1.22373 0.849173 1.41163 0.987715 1.55018C1.12626 1.68872 1.31416 1.76655 1.51008 1.76655H4.09569C4.58343 1.76826 5.06075 1.9079 5.47251 2.16934C5.88427 2.43077 6.21369 2.80335 6.42273 3.24403H1.51008C1.31416 3.24403 1.12626 3.32187 0.987715 3.46041C0.849173 3.59895 0.771342 3.78685 0.771342 3.98278C0.771342 4.1787 0.849173 4.36661 0.987715 4.50515C1.12626 4.64369 1.31416 4.72152 1.51008 4.72152H6.68129C6.59273 5.33512 6.28664 5.89647 5.81882 6.30328C5.35099 6.71008 4.75258 6.93525 4.13262 6.93775H1.51008C1.4757 6.93429 1.44105 6.93429 1.40666 6.93775C1.35771 6.93013 1.30787 6.93013 1.25891 6.93775C1.20856 6.9549 1.1612 6.97983 1.11855 7.01162L1.0299 7.06334C0.989435 7.09988 0.954585 7.1422 0.926478 7.18892C0.901735 7.22167 0.879509 7.25624 0.859991 7.29235C0.853415 7.33643 0.853415 7.38124 0.859991 7.42532C0.807347 7.49901 0.776615 7.58608 0.771342 7.67649C0.767886 7.71088 0.767886 7.74553 0.771342 7.77992C0.763719 7.82887 0.763719 7.87871 0.771342 7.92766C0.788492 7.97802 0.813418 8.02538 0.845216 8.06803C0.845216 8.06803 0.845216 8.12713 0.896928 8.15668L5.32939 13.3279C5.45674 13.4768 5.63803 13.569 5.83337 13.5842C6.02871 13.5995 6.22211 13.5365 6.37101 13.4091C6.51992 13.2818 6.61213 13.1005 6.62737 12.9052C6.64261 12.7098 6.57963 12.5164 6.45228 12.3675L3.12054 8.41524H4.09569C5.11224 8.41944 6.09344 8.04244 6.84563 7.35862C7.59783 6.67481 8.06637 5.73387 8.15877 4.72152H9.63626C9.83218 4.72152 10.0201 4.64369 10.1586 4.50515C10.2972 4.36661 10.375 4.1787 10.375 3.98278C10.375 3.78685 10.2972 3.59895 10.1586 3.46041C10.0201 3.32187 9.83218 3.24403 9.63626 3.24403Z" fill="black"/>
</svg>
