<svg width="10" height="14" viewBox="0 0 10 14" fill="none" xmlns="http://www.w3.org/2000/svg">
<path d="M9.02688 3.55653H7.39426C7.25198 3.01857 7.00052 2.51565 6.65552 2.07905H9.02688C9.22281 2.07905 9.41071 2.00122 9.54925 1.86268C9.68779 1.72413 9.76562 1.53623 9.76562 1.34031C9.76562 1.14438 9.68779 0.956476 9.54925 0.817935C9.41071 0.679394 9.22281 0.601563 9.02688 0.601562H0.90071C0.704783 0.601563 0.516881 0.679394 0.37834 0.817935C0.239798 0.956476 0.161967 1.14438 0.161967 1.34031C0.161967 1.53623 0.239798 1.72413 0.37834 1.86268C0.516881 2.00122 0.704783 2.07905 0.90071 2.07905H3.48631C3.97406 2.08076 4.45137 2.2204 4.86314 2.48184C5.2749 2.74327 5.60432 3.11585 5.81335 3.55653H0.90071C0.704783 3.55653 0.516881 3.63437 0.37834 3.77291C0.239798 3.91145 0.161967 4.09935 0.161967 4.29528C0.161967 4.4912 0.239798 4.67911 0.37834 4.81765C0.516881 4.95619 0.704783 5.03402 0.90071 5.03402H6.07191C5.98335 5.64762 5.67727 6.20897 5.20944 6.61578C4.74162 7.02258 4.1432 7.24775 3.52325 7.25025H0.90071C0.866322 7.24679 0.831674 7.24679 0.797286 7.25025C0.748331 7.24263 0.698492 7.24263 0.649537 7.25025C0.599182 7.2674 0.551821 7.29233 0.509176 7.32412L0.420527 7.37584C0.38006 7.41238 0.34521 7.4547 0.317103 7.50142C0.29236 7.53417 0.270134 7.56874 0.250616 7.60485C0.24404 7.64893 0.24404 7.69374 0.250616 7.73782C0.197972 7.81151 0.16724 7.89858 0.161967 7.98899C0.158511 8.02338 0.158511 8.05803 0.161967 8.09242C0.154344 8.14137 0.154344 8.19121 0.161967 8.24016C0.179117 8.29052 0.204043 8.33788 0.235841 8.38053C0.235841 8.38053 0.235841 8.43963 0.287553 8.46918L4.72001 13.6404C4.84736 13.7893 5.02865 13.8815 5.224 13.8967C5.41934 13.912 5.61273 13.849 5.76164 13.7216C5.91054 13.5943 6.00276 13.413 6.018 13.2177C6.03324 13.0223 5.97025 12.8289 5.8429 12.68L2.51117 8.72774H3.48631C4.50286 8.73194 5.48406 8.35494 6.23626 7.67112C6.98845 6.98731 7.45699 6.04637 7.5494 5.03402H9.02688C9.22281 5.03402 9.41071 4.95619 9.54925 4.81765C9.68779 4.67911 9.76562 4.4912 9.76562 4.29528C9.76562 4.09935 9.68779 3.91145 9.54925 3.77291C9.41071 3.63437 9.22281 3.55653 9.02688 3.55653Z" fill="black"/>
</svg>
