<svg width="16" height="16" viewBox="0 0 16 16" fill="none" xmlns="http://www.w3.org/2000/svg">
<path id="Vector" d="M12.182 1.53508C12.2238 1.56449 12.2676 1.589 12.3124 1.61364C12.3699 1.64797 12.4253 1.68544 12.4807 1.72316C12.4973 1.73429 12.4973 1.73428 12.5143 1.74564C12.5416 1.76442 12.5679 1.78458 12.594 1.80493C12.594 1.81727 12.594 1.8296 12.594 1.84231C12.6071 1.84653 12.6202 1.85075 12.6336 1.85509C12.6992 1.88505 12.7485 1.92706 12.802 1.97432C12.8235 1.99301 12.8451 2.01167 12.8667 2.03032C12.8774 2.03962 12.8881 2.04892 12.8991 2.0585C12.9445 2.09733 12.9913 2.13447 13.038 2.17175C13.1187 2.23739 13.1921 2.30745 13.2646 2.38202C13.3025 2.41994 13.3417 2.45482 13.3826 2.4895C13.4414 2.53989 13.4912 2.59342 13.5404 2.65305C13.593 2.71551 13.6531 2.77078 13.712 2.82711C13.7529 2.87033 13.7529 2.87033 13.7529 2.90771C13.7637 2.91203 13.7744 2.91634 13.7855 2.92078C13.8385 2.95133 13.8659 2.98694 13.9036 3.03505C13.9521 3.09621 14.0007 3.15677 14.0519 3.21568C14.0659 3.23184 14.0659 3.23184 14.0802 3.24833C14.0984 3.26935 14.1168 3.29028 14.1353 3.31113C14.1788 3.36149 14.2124 3.40098 14.2202 3.46845C14.2325 3.46845 14.2448 3.46845 14.2576 3.46845C14.2839 3.50207 14.3085 3.53702 14.3323 3.57242C14.3397 3.58334 14.3471 3.59426 14.3547 3.60551C14.3705 3.62887 14.3862 3.65227 14.4018 3.67571C14.425 3.71023 14.4484 3.74455 14.4718 3.77883C14.7522 4.1904 14.9921 4.63055 15.1734 5.09459C15.1803 5.11196 15.1872 5.12932 15.1942 5.14722C15.2961 5.40632 15.3838 5.66622 15.4538 5.93569C15.4599 5.95852 15.4598 5.95852 15.466 5.9818C15.5204 6.18846 15.5615 6.39681 15.5975 6.60741C15.6013 6.62918 15.605 6.65094 15.6089 6.67337C15.6716 7.05456 15.6851 7.43423 15.6839 7.82C15.6839 7.85508 15.6839 7.85508 15.6838 7.89086C15.6796 9.62931 15.1282 11.3104 13.9805 12.6351C13.9384 12.6831 13.9384 12.6831 13.9024 12.7393C13.8901 12.7393 13.8777 12.7393 13.865 12.7393C13.86 12.7504 13.8549 12.7615 13.8497 12.7729C13.828 12.8133 13.806 12.8415 13.7747 12.8748C13.7641 12.8861 13.7536 12.8973 13.7427 12.9089C13.7314 12.9208 13.7201 12.9327 13.7085 12.9449C13.691 12.9634 13.691 12.9634 13.6732 12.9823C13.5045 13.1603 13.3346 13.3369 13.1419 13.4893C13.0974 13.5241 13.0974 13.5241 13.0558 13.5675C12.7813 13.8405 12.4515 14.0632 12.1268 14.272C12.1144 14.28 12.102 14.288 12.0893 14.2962C11.9503 14.3859 11.8116 14.4708 11.6621 14.5422C11.619 14.5634 11.5772 14.5852 11.5354 14.6086C11.0371 14.8859 10.4589 15.0826 9.9025 15.2065C9.88541 15.2104 9.86831 15.2142 9.85069 15.2181C9.70663 15.2495 9.56195 15.2757 9.41653 15.3C9.39493 15.3037 9.37333 15.3075 9.35108 15.3113C8.56741 15.4419 7.71421 15.4243 6.9306 15.3C6.91771 15.298 6.90481 15.2959 6.89152 15.2938C6.55506 15.24 6.22671 15.1625 5.90259 15.057C5.88478 15.0513 5.86697 15.0455 5.84862 15.0396C5.57245 14.9499 5.30695 14.8408 5.04279 14.7206C5.02688 14.7134 5.01098 14.7062 4.99459 14.6989C4.7778 14.601 4.57219 14.4905 4.36991 14.3654C4.35047 14.3535 4.33102 14.3415 4.31099 14.3291C4.19709 14.2577 4.08692 14.1817 3.97739 14.1038C3.95715 14.0897 3.93692 14.0757 3.91606 14.0612C3.77097 13.96 3.63526 13.8515 3.50153 13.7358C3.4561 13.6971 3.40946 13.6599 3.36292 13.6225C3.2935 13.566 3.22936 13.5075 3.16725 13.4432C3.13526 13.4111 3.10186 13.3819 3.06737 13.3526C2.92275 13.2277 2.78726 13.09 2.66339 12.9445C2.62639 12.9014 2.58814 12.8595 2.54985 12.8176C2.34267 12.5876 2.15126 12.3412 1.97744 12.0851C1.9706 12.0751 1.96377 12.0652 1.95673 12.0549C1.83036 11.8705 1.71353 11.6816 1.60361 11.487C1.59661 11.4746 1.5896 11.4623 1.58238 11.4495C1.29575 10.9387 1.08645 10.3866 0.943989 9.81956C0.932965 9.77619 0.921414 9.73308 0.909335 9.69C0.518069 8.24964 0.663887 6.63256 1.33923 4.80242C1.36255 4.75417 1.38499 4.70557 1.40735 4.65688C1.4843 4.49041 1.56378 4.33056 1.66319 4.17623C1.69739 4.12213 1.72782 4.06703 1.75781 4.0105C1.79455 3.94179 1.834 3.88356 1.88398 3.82358C1.89981 3.79514 1.89981 3.79514 1.91596 3.76612C1.96426 3.68046 2.02175 3.60229 2.08024 3.52336C2.09173 3.50779 2.10323 3.49223 2.11508 3.47619C2.21128 3.34728 2.31375 3.22534 2.41994 3.10465C2.45754 3.06107 2.49305 3.01588 2.52883 2.9708C2.60032 2.88244 2.67792 2.8025 2.75947 2.72353C2.81509 2.66949 2.86372 2.61315 2.912 2.55258C2.93399 2.53207 2.95658 2.51218 2.97975 2.493C3.04016 2.44153 3.09607 2.38744 3.15148 2.33062C3.3923 2.08719 3.3923 2.08719 3.51011 2.04792C3.51011 2.03558 3.51011 2.02325 3.51011 2.01054C3.54411 1.98124 3.57812 1.95431 3.61408 1.92759C3.625 1.91936 3.63592 1.91113 3.64718 1.90266C3.67053 1.88511 3.69393 1.86763 3.71737 1.8502C3.75186 1.82455 3.78618 1.79869 3.82049 1.77281C4.34765 1.37778 4.9442 1.03615 5.56615 0.814298C5.58742 0.806612 5.6087 0.798925 5.63062 0.791007C5.82108 0.724912 6.01524 0.672666 6.2101 0.621325C6.25064 0.610573 6.29106 0.599498 6.33146 0.588251C8.0466 0.128904 9.9969 0.37236 12.182 1.53508ZM7.47265 4.36563C7.4589 4.36813 7.44516 4.37064 7.43099 4.37321C6.85769 4.48159 6.33146 4.75994 5.88828 5.13431C5.84651 5.16935 5.84651 5.16935 5.80358 5.19973C5.79308 5.20821 5.78257 5.21669 5.77175 5.22543C5.77175 5.23776 5.77175 5.2501 5.77175 5.26281C5.76173 5.26666 5.7517 5.27052 5.74138 5.27449C5.67979 5.31014 5.62982 5.35717 5.58484 5.41234C5.58484 5.42467 5.58484 5.43701 5.58484 5.44972C5.57433 5.45377 5.56383 5.45782 5.553 5.46199C5.49567 5.49553 5.46285 5.5383 5.42129 5.5899C5.39888 5.61737 5.39888 5.61737 5.37602 5.64539C5.3382 5.68803 5.3382 5.68803 5.34185 5.73009C5.32952 5.73009 5.31718 5.73009 5.30447 5.73009C5.2777 5.76691 5.25357 5.80356 5.2297 5.84224C5.22195 5.85451 5.2142 5.86678 5.20621 5.87942C4.68047 6.71497 4.47071 7.70191 4.6873 8.67628C4.73498 8.87782 4.79097 9.07314 4.87457 9.26273C4.88132 9.27805 4.88807 9.29337 4.89502 9.30915C5.08124 9.72587 5.32651 10.0735 5.64091 10.4029C5.65513 10.4179 5.66934 10.4329 5.68399 10.4483C6.2719 11.053 7.11273 11.4345 7.95862 11.4496C7.97759 11.45 7.99657 11.4504 8.01612 11.4508C8.80972 11.4644 9.56794 11.3084 10.2203 10.8328C10.2307 10.8253 10.2411 10.8177 10.2519 10.8099C10.4142 10.692 10.5616 10.5603 10.7062 10.4216C10.724 10.4048 10.7417 10.3881 10.76 10.3708C11.1308 10.0121 11.4167 9.54659 11.5732 9.05543C11.5834 9.02374 11.5944 8.99229 11.6055 8.9609C11.673 8.76236 11.7033 8.55372 11.7342 8.34686C11.7363 8.33394 11.7383 8.32102 11.7403 8.30772C11.7605 8.15757 11.7575 8.00511 11.7576 7.85388C11.7576 7.83884 11.7576 7.8238 11.7577 7.80831C11.7575 7.58436 11.748 7.36948 11.6969 7.15062C11.6941 7.13785 11.6913 7.12508 11.6884 7.11193C11.6477 6.92749 11.592 6.74903 11.5286 6.57119C11.5231 6.55539 11.5177 6.53958 11.512 6.5233C11.4151 6.2626 11.2663 6.0256 11.1042 5.80118C11.0873 5.77761 11.0708 5.7538 11.0545 5.72982C11.0327 5.69812 11.0098 5.66729 10.9866 5.63663C10.9743 5.63663 10.9619 5.63663 10.9492 5.63663C10.9441 5.62556 10.9391 5.61449 10.9338 5.60309C10.9122 5.56259 10.89 5.53396 10.8588 5.50046C10.8483 5.4891 10.8377 5.47773 10.8269 5.46602C10.8156 5.45408 10.8043 5.44215 10.7927 5.42986C10.7811 5.41753 10.7694 5.4052 10.7575 5.3925C10.5696 5.17966 10.5696 5.17966 10.3324 5.03851C10.3324 5.02618 10.3324 5.01384 10.3324 5.00113C10.295 4.97276 10.295 4.97276 10.246 4.94389C10.1863 4.90735 10.1275 4.87076 10.07 4.83087C9.62918 4.52841 9.117 4.39766 8.59412 4.32825C8.57325 4.32531 8.57325 4.32532 8.55196 4.32232C8.19577 4.27662 7.8246 4.29983 7.47265 4.36563Z" fill="#31BA77"/>
</svg>
