<svg width="16" height="22" viewBox="0 0 16 22" fill="none" xmlns="http://www.w3.org/2000/svg">
<path id="Vector" d="M11.6081 0.656375C11.6272 0.656315 11.6272 0.656315 11.6468 0.656253C11.6898 0.65621 11.7327 0.656707 11.7757 0.657201C11.8068 0.657288 11.8379 0.657342 11.8691 0.657367C11.9544 0.657535 12.0398 0.658179 12.1252 0.658906C12.2154 0.659598 12.3056 0.659865 12.3958 0.660195C12.6172 0.661114 12.8385 0.662815 13.0598 0.664622C13.1282 0.665175 13.1966 0.665705 13.265 0.666229C13.9104 0.671172 14.5557 0.677086 15.2011 0.683851C15.2134 0.708523 15.2258 0.733196 15.2385 0.758616C15.2508 0.758616 15.2632 0.758616 15.2759 0.758616C15.2773 2.21364 15.2761 3.66865 15.271 5.12366C15.2709 5.14158 15.2709 5.15949 15.2708 5.17795C15.2692 5.65001 15.2674 6.12207 15.2656 6.59413C15.2645 6.8757 15.2635 7.15727 15.2624 7.43883C15.2624 7.45924 15.2623 7.47964 15.2622 7.50066C15.2619 7.58359 15.2616 7.66652 15.2613 7.74945C15.2585 8.51871 15.2556 9.28797 15.2527 10.0572C15.2501 10.7328 15.2476 11.4083 15.2452 12.0838C15.2423 12.8524 15.2395 13.6209 15.2366 14.3895C15.2363 14.4722 15.236 14.5548 15.2357 14.6375C15.2356 14.6681 15.2356 14.6681 15.2355 14.6992C15.2344 14.9799 15.2334 15.2605 15.2324 15.5412C15.2294 16.342 15.2264 17.1427 15.2226 17.9435C15.2209 18.3081 15.2195 18.6727 15.2184 19.0373C15.2177 19.3023 15.2166 19.5673 15.2154 19.8323C15.2146 19.9886 15.2141 20.145 15.2139 20.3013C15.2137 20.4171 15.2131 20.5328 15.2123 20.6486C15.2121 20.6955 15.212 20.7423 15.212 20.7892C15.2121 20.8525 15.2116 20.9158 15.2111 20.9791C15.2112 20.9975 15.2113 21.016 15.2114 21.0349C15.2097 21.1575 15.2097 21.1575 15.166 21.2181C15.1164 21.2507 15.087 21.2534 15.0278 21.2533C15.0078 21.2534 14.9879 21.2536 14.9673 21.2537C14.9454 21.2534 14.9236 21.2532 14.901 21.253C14.8664 21.253 14.8664 21.253 14.831 21.2531C14.7673 21.2531 14.7037 21.2528 14.64 21.2524C14.5724 21.252 14.5048 21.252 14.4372 21.2519C14.3228 21.2518 14.2084 21.2514 14.094 21.2508C13.9362 21.25 13.7784 21.2497 13.6206 21.2495C12.9697 21.2486 12.3192 21.2418 11.6685 21.2255C11.6482 21.0144 11.628 20.8034 11.6077 20.5923C11.6062 20.5768 11.6047 20.5613 11.6032 20.5452C11.5562 20.0555 11.5094 19.5658 11.4629 19.076C11.4204 19.1286 11.3786 19.1814 11.339 19.2361C11.2336 19.3799 11.1254 19.5159 11.0026 19.6451C10.9572 19.6924 10.9572 19.6924 10.9173 19.7457C10.9005 19.7658 10.9005 19.7658 10.8834 19.7863C10.8711 19.7863 10.8588 19.7863 10.846 19.7863C10.8418 19.7967 10.8376 19.8071 10.8332 19.8178C10.7773 19.9162 10.6756 19.9998 10.5844 20.0666C10.572 20.0666 10.5597 20.0666 10.547 20.0666C10.5408 20.0851 10.5346 20.1036 10.5283 20.1227C10.5017 20.1481 10.5017 20.1481 10.4675 20.1741C10.4547 20.1838 10.442 20.1936 10.4289 20.2036C10.4081 20.2191 10.4081 20.2191 10.3869 20.2349C10.3655 20.251 10.3655 20.251 10.3437 20.2674C9.8075 20.6685 9.21204 21.0183 8.56572 21.2068C8.55324 21.2105 8.54076 21.2142 8.5279 21.2181C8.33609 21.2746 8.14202 21.3156 7.9454 21.3517C7.92434 21.3556 7.90328 21.3595 7.88158 21.3636C7.59111 21.4148 7.29996 21.4159 7.00591 21.4159C6.9483 21.4159 6.8907 21.4162 6.83309 21.4166C6.48454 21.4176 6.13879 21.397 5.79591 21.3318C5.77395 21.3277 5.75199 21.3236 5.72936 21.3194C4.41713 21.0705 3.2808 20.3986 2.33687 19.4673C2.32615 19.4569 2.31543 19.4464 2.30438 19.4356C2.27864 19.4099 2.25391 19.3832 2.2294 19.3564C2.2294 19.344 2.2294 19.3317 2.2294 19.319C2.21863 19.3145 2.20786 19.3099 2.19676 19.3053C2.04592 19.2206 1.93643 19.0332 1.83111 18.8973C1.78706 18.8406 1.74155 18.7853 1.69553 18.7302C1.59927 18.6131 1.51189 18.4904 1.42567 18.3657C1.41422 18.3493 1.41422 18.3493 1.40253 18.3324C0.872171 17.5662 0.494086 16.6936 0.297152 15.783C0.289088 15.7465 0.280631 15.71 0.271862 15.6736C0.23338 15.5138 0.20531 15.3531 0.181541 15.1906C0.179528 15.1768 0.177517 15.1631 0.175443 15.1489C-0.0303959 13.7253 0.115605 12.2239 0.659335 10.8892C0.666108 10.8726 0.672882 10.8559 0.679861 10.8388C0.758574 10.6469 0.842487 10.4602 0.942989 10.2787C0.974192 10.2217 1.00276 10.164 1.03082 10.1054C1.10206 9.96155 1.1891 9.82764 1.27614 9.69301C1.29432 9.66475 1.29432 9.66475 1.31287 9.63592C1.48211 9.37759 1.66351 9.13152 1.86763 8.89986C1.90654 8.85491 1.94346 8.8084 1.98057 8.76196C2.04585 8.68145 2.11564 8.60848 2.1899 8.53627C2.22662 8.49955 2.26021 8.46171 2.29365 8.42201C2.3555 8.35011 2.42367 8.28806 2.4948 8.22546C2.54273 8.18294 2.58968 8.13961 2.63646 8.09584C2.83781 7.90779 3.05253 7.74146 3.2761 7.58091C3.29333 7.56852 3.31056 7.55614 3.32831 7.54338C3.90878 7.13179 4.55844 6.82137 5.24684 6.64027C5.2778 6.63212 5.30873 6.62382 5.3396 6.61533C5.78191 6.49427 6.25685 6.42641 6.71529 6.42205C6.73686 6.4217 6.75843 6.42134 6.78066 6.42097C7.43157 6.41092 8.0559 6.48207 8.67786 6.68373C8.69351 6.68858 8.70916 6.69344 8.72529 6.69844C9.25293 6.86225 9.75255 7.13498 10.1919 7.46876C10.2029 7.47712 10.2139 7.48548 10.2253 7.49409C10.3549 7.5929 10.48 7.69483 10.5996 7.80571C10.6413 7.84431 10.6413 7.84431 10.6924 7.88237C10.7061 7.89392 10.7198 7.90546 10.7339 7.91735C10.7339 7.92968 10.7339 7.94202 10.7339 7.95473C10.7506 7.96226 10.7506 7.96226 10.7677 7.96993C10.809 7.99229 10.8341 8.01383 10.866 8.04789C10.8818 8.06468 10.8818 8.06468 10.8979 8.08181C10.9089 8.09385 10.9199 8.10588 10.9313 8.11828C10.9428 8.13069 10.9543 8.14309 10.9661 8.15588C11.107 8.31004 11.2354 8.47209 11.3507 8.64631C11.3535 8.33458 11.3561 8.02285 11.3586 7.71112C11.3589 7.67106 11.3592 7.63099 11.3595 7.59093C11.3667 6.6846 11.3708 5.77826 11.3739 4.8719C11.3741 4.78674 11.3744 4.70157 11.3747 4.6164C11.3766 4.08449 11.3784 3.55259 11.3799 3.02067C11.3806 2.78489 11.3813 2.54911 11.3821 2.31333C11.3825 2.17065 11.383 2.02797 11.3833 1.88529C11.3836 1.77708 11.3839 1.66887 11.3843 1.56066C11.3845 1.51676 11.3846 1.47285 11.3847 1.42894C11.3849 1.29894 11.3858 1.16897 11.3881 1.03898C11.3885 1.01566 11.3885 1.01566 11.3889 0.991873C11.3898 0.94979 11.3913 0.907773 11.393 0.865717C11.3938 0.842929 11.3947 0.820142 11.3955 0.796664C11.4201 0.67275 11.4925 0.655819 11.6081 0.656375ZM7.1078 10.2537C7.09247 10.2561 7.07713 10.2584 7.06133 10.2608C6.61616 10.3299 6.18108 10.4794 5.79942 10.721C5.78856 10.7278 5.7777 10.7347 5.76651 10.7417C5.59087 10.8526 5.43063 10.9749 5.27606 11.1135C5.26083 11.1272 5.26083 11.1272 5.24528 11.1411C5.09786 11.2728 5.09786 11.2728 4.95831 11.4126C4.95831 11.4249 4.95831 11.4373 4.95831 11.45C4.93981 11.4562 4.9213 11.4623 4.90224 11.4687C4.86923 11.5058 4.83885 11.5426 4.80878 11.582C4.7998 11.5936 4.79082 11.6053 4.78156 11.6173C4.60907 11.8433 4.46038 12.0699 4.3415 12.3285C4.33572 12.3407 4.32994 12.3529 4.32399 12.3656C3.92 13.2223 3.89451 14.275 4.20159 15.1652C4.33847 15.5404 4.53674 15.8892 4.79009 16.1976C4.79874 16.2081 4.80739 16.2187 4.8163 16.2296C5.01824 16.4748 5.23408 16.695 5.48894 16.8853C5.51619 16.9057 5.54316 16.9264 5.57009 16.9472C5.98304 17.2596 6.46695 17.4594 6.97696 17.5433C6.99165 17.5459 7.00635 17.5484 7.02148 17.5511C7.97226 17.7127 8.94101 17.5296 9.74166 16.9865C9.92512 16.8551 10.1093 16.7146 10.2666 16.5527C10.2757 16.5435 10.2848 16.5343 10.2942 16.5248C10.6179 16.1957 10.8906 15.8204 11.0703 15.3938C11.0785 15.3744 11.0785 15.3744 11.0869 15.3546C11.3704 14.6693 11.4311 13.8779 11.2946 13.1509C11.2917 13.1354 11.2888 13.1199 11.2858 13.1039C11.1502 12.4202 10.7805 11.8173 10.304 11.3191C10.287 11.3014 10.2701 11.2837 10.2526 11.2654C10.0696 11.0782 9.86916 10.9196 9.64981 10.7771C9.6384 10.7697 9.627 10.7622 9.61524 10.7545C8.8933 10.2901 7.95373 10.1153 7.1078 10.2537Z" fill="#31BA77"/>
</svg>
