<svg width="25" height="25" viewBox="0 0 25 25" fill="none" xmlns="http://www.w3.org/2000/svg">
<g id="&#240;&#159;&#166;&#134; icon &#34;earth&#34;">
<path id="Vector" d="M0 0H25V25H0V0Z" fill="white" fill-opacity="0.01"/>
<g id="Group">
<path id="Vector_2" fill-rule="evenodd" clip-rule="evenodd" d="M12.5 22.9167C18.253 22.9167 22.9167 18.253 22.9167 12.5C22.9167 6.74707 18.253 2.08337 12.5 2.08337C6.74704 2.08337 2.08334 6.74707 2.08334 12.5C2.08334 18.253 6.74704 22.9167 12.5 22.9167Z" stroke="#31BA77" stroke-width="2" stroke-linecap="round" stroke-linejoin="round"/>
<path id="Vector_3" d="M2.08337 12.5001H22.9167" stroke="#31BA77" stroke-width="2" stroke-linecap="round" stroke-linejoin="round"/>
<path id="Vector_4" fill-rule="evenodd" clip-rule="evenodd" d="M12.5 22.9167C14.8012 22.9167 16.6667 18.253 16.6667 12.5C16.6667 6.74707 14.8012 2.08337 12.5 2.08337C10.1988 2.08337 8.33334 6.74707 8.33334 12.5C8.33334 18.253 10.1988 22.9167 12.5 22.9167Z" stroke="#31BA77" stroke-width="2" stroke-linecap="round" stroke-linejoin="round"/>
<path id="Vector_5" d="M5.13437 5.28235C7.01942 7.1674 9.62358 8.33334 12.5 8.33334C15.3766 8.33334 17.9807 7.1674 19.8658 5.28235" stroke="#31BA77" stroke-width="2" stroke-linecap="round" stroke-linejoin="round"/>
<path id="Vector_6" d="M19.8658 19.7177C17.9807 17.8326 15.3766 16.6667 12.5 16.6667C9.62358 16.6667 7.01942 17.8326 5.13437 19.7177" stroke="#31BA77" stroke-width="2" stroke-linecap="round" stroke-linejoin="round"/>
</g>
</g>
</svg>
