<svg width="6" height="6" viewBox="0 0 6 6" fill="none" xmlns="http://www.w3.org/2000/svg">
<path id="Vector" d="M4.30297 1.4442C4.74176 1.79876 5.05072 2.24433 5.1686 2.80048C5.17188 2.81516 5.17515 2.82983 5.17852 2.84496C5.30341 3.45174 5.15756 4.07472 4.8293 4.59137C4.78962 4.65098 4.74928 4.70981 4.70132 4.76306C4.68899 4.76306 4.67665 4.76306 4.66394 4.76306C4.65758 4.77809 4.65758 4.77809 4.65109 4.79343C4.5918 4.90072 4.50197 4.99129 4.40226 5.06211C4.38993 5.06211 4.37759 5.06211 4.36488 5.06211C4.36488 5.07445 4.36488 5.08679 4.36488 5.0995C4.32502 5.13031 4.28543 5.15836 4.24339 5.18594C4.2308 5.19424 4.21821 5.20253 4.20524 5.21107C3.6849 5.54684 3.06583 5.69238 2.45429 5.56378C2.43096 5.5586 2.40764 5.55342 2.38361 5.54809C2.35441 5.54234 2.35441 5.54234 2.32462 5.53648C2.0037 5.46703 1.6785 5.29363 1.43036 5.08081C1.40766 5.06151 1.40766 5.06151 1.38451 5.04182C0.931906 4.64614 0.640764 4.09392 0.589254 3.49205C0.554017 2.8372 0.752715 2.25959 1.16868 1.75377C1.17682 1.74373 1.18495 1.73368 1.19333 1.72333C1.23622 1.67084 1.27938 1.62244 1.33106 1.57854C1.34193 1.56914 1.35279 1.55975 1.36399 1.55006C1.39298 1.52947 1.39298 1.52947 1.43036 1.52947C1.43036 1.51714 1.43036 1.5048 1.43036 1.49209C2.23481 0.806268 3.47642 0.820331 4.30297 1.4442Z" fill="#31BA77"/>
</svg>
