<svg width="23" height="21" viewBox="0 0 23 21" fill="none" xmlns="http://www.w3.org/2000/svg">
<path id="Vector" d="M9.88046 0.877565C9.90401 0.877582 9.92756 0.8776 9.95183 0.877617C9.97143 0.877594 9.97143 0.877594 9.99143 0.877569C10.0355 0.877538 10.0797 0.877641 10.1238 0.877743C10.1553 0.877749 10.1868 0.877746 10.2182 0.877735C10.304 0.87773 10.3898 0.87784 10.4755 0.87797C10.5651 0.878086 10.6546 0.878098 10.7441 0.87812C10.9138 0.878178 11.0835 0.878332 11.2531 0.878519C11.4462 0.878728 11.6393 0.878831 11.8324 0.878925C12.2298 0.87912 12.6271 0.879449 13.0244 0.879865C13.0452 0.956773 13.066 1.03369 13.0868 1.11061C13.0926 1.13214 13.0984 1.15368 13.1044 1.17587C13.1512 1.34926 13.1956 1.52314 13.2386 1.69749C13.2583 1.77728 13.2782 1.85704 13.298 1.93679C13.3019 1.95225 13.3057 1.96771 13.3097 1.98363C13.3444 2.12294 13.3803 2.26193 13.4174 2.40062C13.4416 2.49174 13.4637 2.58317 13.4849 2.67502C13.5446 2.93191 13.6111 3.1872 13.6761 3.44277C13.6903 3.49882 13.7046 3.55488 13.7188 3.61093C13.8169 3.99778 13.8169 3.99778 13.9182 4.38378C13.9748 4.59848 14.0267 4.81444 14.0795 5.0301C14.0966 5.09994 14.1138 5.16976 14.1309 5.23959C14.1525 5.32738 14.174 5.41519 14.1955 5.503C14.2132 5.57498 14.2308 5.64695 14.2485 5.71891C14.2551 5.74592 14.2618 5.77294 14.2684 5.79996C14.3063 5.95517 14.347 6.1092 14.3915 6.26267C14.41 6.32746 14.4257 6.39213 14.4404 6.45787C14.4751 6.60923 14.5129 6.75976 14.5511 6.91026C14.5558 6.92881 14.5558 6.92881 14.5606 6.94773C14.5803 7.02496 14.5999 7.10217 14.6196 7.17938C14.6328 7.23122 14.6459 7.28306 14.6591 7.33491C14.7194 7.57235 14.78 7.8097 14.8423 8.04663C14.8727 8.16228 14.9021 8.278 14.929 8.39453C14.9796 8.61415 15.0364 8.83225 15.0921 9.05062C15.1226 9.16987 15.1529 9.28915 15.1832 9.40842C15.1899 9.4347 15.1966 9.46097 15.2033 9.48724C15.2539 9.6861 15.3042 9.88502 15.3538 10.0841C15.357 10.0966 15.3601 10.1091 15.3633 10.122C15.3798 10.1883 15.3963 10.2546 15.4128 10.3209C15.5545 10.8899 15.6967 11.4587 15.8408 12.0271C15.8541 12.0796 15.8674 12.1322 15.8807 12.1847C15.8992 12.2581 15.9178 12.3315 15.9365 12.4049C15.942 12.4267 15.9475 12.4486 15.9532 12.4711C15.9583 12.4913 15.9635 12.5116 15.9688 12.5324C15.9755 12.5587 15.9755 12.5587 15.9823 12.5855C15.9975 12.6407 16.0152 12.6946 16.0337 12.7488C16.0377 12.7333 16.0377 12.7333 16.0417 12.7175C16.0701 12.606 16.0985 12.4946 16.1269 12.3832C16.138 12.3394 16.1492 12.2957 16.1603 12.2519C16.2719 11.814 16.2719 11.814 16.3259 11.6041C16.3296 11.5896 16.3334 11.5752 16.3372 11.5602C16.3409 11.546 16.3445 11.5318 16.3483 11.5171C16.3556 11.4888 16.3629 11.4605 16.3702 11.4322C16.3738 11.4181 16.3774 11.404 16.3812 11.3894C16.4568 11.0954 16.53 10.8009 16.6033 10.5063C16.6679 10.2472 16.7338 9.98857 16.8036 9.73076C16.8505 9.557 16.8945 9.38262 16.9379 9.20796C16.9962 8.97331 17.0553 8.73888 17.1155 8.50471C17.1193 8.48971 17.1232 8.47471 17.1272 8.45926C17.143 8.39771 17.1588 8.33617 17.1746 8.27462C17.2257 8.07615 17.2764 7.8776 17.3271 7.67906C17.3723 7.50256 17.4174 7.32608 17.4629 7.14967C17.4779 7.09124 17.493 7.0328 17.508 6.97437C17.5117 6.95991 17.5154 6.94546 17.5193 6.93056C17.5955 6.63382 17.6695 6.33649 17.7435 6.03918C17.808 5.78 17.874 5.52138 17.9438 5.26356C17.9906 5.0898 18.0347 4.91543 18.0781 4.74077C18.1364 4.50611 18.1955 4.27169 18.2556 4.03751C18.2595 4.02246 18.2634 4.0074 18.2674 3.99189C18.2872 3.91448 18.3071 3.83708 18.3271 3.75968C18.3687 3.59764 18.4104 3.43559 18.4519 3.27351C18.4582 3.24877 18.4582 3.24877 18.4647 3.22353C18.5299 2.96916 18.5938 2.71447 18.6572 2.45965C18.7459 2.10326 18.8372 1.74773 18.9323 1.39302C18.9484 1.33273 18.9643 1.27239 18.98 1.212C18.9844 1.19502 18.9888 1.17804 18.9934 1.16055C19.0012 1.13052 19.009 1.10049 19.0167 1.07044C19.041 0.977427 19.041 0.977427 19.0617 0.935939C19.5395 0.932009 20.0174 0.929043 20.4952 0.927223C20.7171 0.926355 20.9389 0.925173 21.1608 0.923248C21.3542 0.921572 21.5476 0.920486 21.7409 0.920111C21.8433 0.919892 21.9457 0.919376 22.0481 0.918153C22.1445 0.91701 22.2409 0.916659 22.3373 0.916912C22.3726 0.916865 22.408 0.916531 22.4434 0.915886C22.7091 0.911274 22.7091 0.911274 22.7946 0.971955C22.8408 1.02782 22.8723 1.07253 22.8779 1.14587C22.8739 1.18647 22.8639 1.22148 22.8513 1.26026C22.8473 1.27469 22.8434 1.28912 22.8393 1.30399C22.831 1.33444 22.8223 1.36481 22.8133 1.39508C22.7962 1.45332 22.7817 1.51205 22.7672 1.57095C22.752 1.63207 22.7361 1.693 22.7203 1.75395C22.6978 1.84071 22.6755 1.92752 22.6532 2.01433C22.6485 2.03269 22.6438 2.05104 22.6389 2.06995C22.5703 2.3375 22.5038 2.60559 22.4372 2.87365C22.3816 3.09711 22.3246 3.32016 22.2662 3.54291C22.228 3.68856 22.1908 3.83444 22.1536 3.98034C22.1314 4.06716 22.1092 4.15397 22.0871 4.24078C22.0803 4.26717 22.0803 4.26717 22.0734 4.2941C22.0329 4.4527 21.9923 4.61127 21.9516 4.76982C21.9401 4.81466 21.9286 4.85949 21.9171 4.90432C21.852 5.15817 21.852 5.15817 21.8222 5.27426C21.7968 5.3729 21.7715 5.47154 21.7462 5.57019C21.742 5.58669 21.7378 5.60319 21.7334 5.6202C21.6584 5.91287 21.5852 6.20598 21.5123 6.49917C21.4494 6.75164 21.3849 7.00355 21.3177 7.25489C21.2656 7.4496 21.2156 7.64473 21.1671 7.84035C21.1128 8.05935 21.0571 8.27798 21.0009 8.49653C20.9257 8.78944 20.852 9.08271 20.779 9.37618C20.7118 9.64605 20.6433 9.91543 20.5713 10.1841C20.5131 10.4016 20.458 10.6198 20.4039 10.8384C20.3537 11.0408 20.3016 11.2427 20.2464 11.4438C20.2077 11.5848 20.172 11.7265 20.1368 11.8684C20.1209 11.9328 20.1048 11.9972 20.0888 12.0617C20.0854 12.075 20.0821 12.0883 20.0787 12.1021C19.9245 12.7209 19.7677 13.339 19.6089 13.9566C19.605 13.9714 19.6012 13.9862 19.5973 14.0015C19.5826 14.0587 19.5679 14.1158 19.5532 14.173C19.4782 14.4641 19.4057 14.7559 19.3331 15.0476C19.2704 15.2996 19.2064 15.5509 19.1383 15.8015C19.0694 16.0568 19.0066 16.3137 18.9428 16.5704C18.883 16.811 18.8227 17.0514 18.758 17.2907C18.7061 17.4826 18.6565 17.675 18.6084 17.8678C18.605 17.8816 18.6016 17.8953 18.5981 17.9094C18.576 17.9982 18.5539 18.0871 18.5319 18.1759C18.4905 18.3427 18.4491 18.5095 18.4075 18.6762C18.4027 18.6954 18.398 18.7145 18.3931 18.7342C18.3255 19.005 18.256 19.2752 18.1838 19.5448C18.1363 19.7219 18.0911 19.8996 18.0479 20.0778C18.0417 20.1031 18.0417 20.1031 18.0354 20.129C18.0319 20.1436 18.0284 20.1583 18.0247 20.1734C18.015 20.2066 18.015 20.2066 17.9963 20.2253C17.9486 20.2271 17.9013 20.2277 17.8536 20.2275C17.8384 20.2275 17.8233 20.2275 17.8077 20.2276C17.7566 20.2276 17.7055 20.2275 17.6545 20.2274C17.618 20.2274 17.5815 20.2274 17.5451 20.2274C17.4457 20.2274 17.3464 20.2273 17.2471 20.2272C17.1434 20.227 17.0397 20.227 16.9361 20.227C16.7396 20.2269 16.5431 20.2268 16.3467 20.2266C16.123 20.2264 15.8994 20.2263 15.6758 20.2262C15.2157 20.226 14.7556 20.2257 14.2954 20.2253C14.2725 20.1339 14.2496 20.0425 14.2267 19.9511C14.2189 19.9201 14.2111 19.8892 14.2033 19.8582C14.1575 19.6757 14.1126 19.493 14.0711 19.3094C14.0273 19.1159 13.9796 18.9235 13.931 18.7311C13.8814 18.535 13.8336 18.3389 13.7908 18.1412C13.7489 17.9478 13.7025 17.7559 13.6541 17.5641C13.6488 17.5429 13.6488 17.5429 13.6433 17.5213C13.6361 17.4926 13.6288 17.4639 13.6216 17.4352C13.618 17.4208 13.6144 17.4065 13.6107 17.3917C13.607 17.3773 13.6034 17.3629 13.5996 17.348C13.5591 17.1869 13.5194 17.0257 13.48 16.8643C13.4748 16.8427 13.4748 16.8427 13.4694 16.8206C13.4217 16.6249 13.3764 16.4289 13.3328 16.2324C13.2769 15.9802 13.2133 15.7304 13.1483 15.4804C13.1448 15.4671 13.1413 15.4537 13.1378 15.4399C13.1326 15.4203 13.1326 15.4203 13.1274 15.4002C13.079 15.2137 13.0352 15.0261 12.9919 14.8384C12.9237 14.5424 12.8529 14.2474 12.7787 13.9529C12.7294 13.7573 12.6822 13.5613 12.6377 13.3645C12.5979 13.1901 12.5543 13.0168 12.5104 12.8434C12.4609 12.6473 12.413 12.4512 12.3702 12.2535C12.3283 12.0601 12.2819 11.8682 12.2336 11.6764C12.2282 11.6552 12.2282 11.6552 12.2228 11.6336C12.2156 11.6049 12.2083 11.5762 12.2011 11.5475C12.1975 11.5332 12.1938 11.5188 12.1901 11.5041C12.1865 11.4896 12.1829 11.4752 12.1791 11.4604C12.1385 11.2989 12.0989 11.1372 12.0595 10.9755C12.056 10.9609 12.0524 10.9464 12.0488 10.9315C11.9971 10.7189 11.9472 10.506 11.898 10.2928C11.848 10.0775 11.794 9.86314 11.74 9.64873C11.682 9.41811 11.6263 9.18718 11.5737 8.95527C11.5296 8.76141 11.4825 8.56826 11.4357 8.37504C11.3318 8.76371 11.2334 9.15365 11.1443 9.54598C11.1004 9.73788 11.0523 9.92868 11.0041 10.1195C10.9526 10.3241 10.9034 10.529 10.8568 10.7348C10.8274 10.8635 10.795 10.9911 10.7607 11.1185C10.7289 11.2373 10.7012 11.3568 10.674 11.4766C10.6285 11.6771 10.5795 11.8766 10.5292 12.0759C10.4806 12.2686 10.4329 12.4614 10.389 12.6553C10.3428 12.8592 10.2926 13.0619 10.2415 13.2646C10.182 13.5012 10.1238 13.7381 10.0664 13.9752C10.0239 14.1503 9.98102 14.3253 9.93689 14.4999C9.89994 14.6463 9.86523 14.7931 9.83175 14.9403C9.78327 15.1535 9.73054 15.3654 9.67706 15.5774C9.62548 15.7819 9.57634 15.9869 9.5297 16.1926C9.50362 16.307 9.47563 16.4205 9.44507 16.5337C9.40246 16.6917 9.3655 16.8507 9.32908 17.0102C9.27915 17.2287 9.22682 17.4467 9.17405 17.6646C9.16784 17.6902 9.16164 17.7159 9.15543 17.7416C9.07537 18.0728 8.99423 18.4037 8.91128 18.7342C8.85667 18.9518 8.80297 19.1696 8.74999 19.3877C8.74648 19.4021 8.74297 19.4165 8.73936 19.4314C8.70413 19.5764 8.66912 19.7215 8.63456 19.8666C8.62673 19.8995 8.62673 19.8995 8.61873 19.9331C8.60917 19.9732 8.59966 20.0134 8.59019 20.0537C8.58606 20.071 8.58194 20.0884 8.57768 20.1063C8.57239 20.1288 8.57239 20.1288 8.56699 20.1517C8.55724 20.1879 8.55724 20.1879 8.53855 20.2253C7.32343 20.2253 6.10832 20.2253 4.85638 20.2253C4.53288 18.9717 4.53288 18.9717 4.4275 18.5472C4.38231 18.3656 4.33553 18.1844 4.28881 18.0031C4.22267 17.7463 4.15826 17.4891 4.09422 17.2318C4.01915 16.9302 3.94345 16.6288 3.86222 16.3288C3.81535 16.155 3.77128 15.9806 3.7279 15.806C3.67116 15.5775 3.61366 15.3493 3.555 15.1214C3.47461 14.8088 3.39497 14.4961 3.31552 14.1833C3.234 13.8624 3.15236 13.5415 3.0702 13.2207C2.99402 12.9233 2.91813 12.6258 2.8424 12.3282C2.83423 12.2961 2.83423 12.2961 2.82589 12.2633C2.76225 12.0133 2.69867 11.7632 2.63512 11.5131C2.48311 10.9149 2.33085 10.3168 2.17726 9.71905C2.1626 9.66201 2.14795 9.60496 2.1333 9.54791C2.12965 9.5337 2.126 9.51948 2.12224 9.50484C2.03908 9.18082 1.95686 8.85656 1.87458 8.53231C1.79291 8.21042 1.71108 7.88857 1.62842 7.56693C1.55226 7.27053 1.47678 6.97396 1.40136 6.67737C1.34501 6.45578 1.28865 6.23419 1.23182 6.01272C1.22756 5.99614 1.22331 5.97957 1.21893 5.96249C1.21264 5.93796 1.21264 5.93796 1.20622 5.91294C1.19788 5.88046 1.18955 5.84799 1.18122 5.81551C1.17712 5.79952 1.17301 5.78353 1.16879 5.76705C1.10541 5.51993 1.04335 5.27249 0.981751 5.02491C0.887796 4.64734 0.790847 4.27068 0.690876 3.89465C0.629135 3.66236 0.568076 3.42997 0.510349 3.19664C0.495115 3.1351 0.47978 3.07357 0.464455 3.01205C0.459779 2.99327 0.459779 2.99327 0.455009 2.97412C0.384679 2.69176 0.313477 2.40964 0.241208 2.12778C0.22804 2.07639 0.2149 2.02499 0.201769 1.9736C0.193222 1.94016 0.184675 1.90671 0.176128 1.87327C0.171983 1.85706 0.16784 1.84085 0.163571 1.82414C0.140884 1.7355 0.117994 1.64692 0.0948429 1.5584C0.0850632 1.52093 0.0753661 1.48344 0.0657052 1.44593C0.0543225 1.40179 0.0427913 1.35769 0.031079 1.31363C0.0237288 1.2849 0.0237288 1.2849 0.0162301 1.25559C0.0119594 1.23927 0.00768869 1.22295 0.00328859 1.20613C-0.0109232 1.10769 0.0221239 1.04218 0.0793209 0.964398C0.120444 0.924711 0.161307 0.92017 0.217247 0.91905C0.23833 0.919622 0.238331 0.919622 0.259839 0.920205C0.274955 0.920093 0.290071 0.919981 0.305645 0.919866C0.356261 0.919651 0.406821 0.92037 0.457432 0.921085C0.493723 0.921122 0.530014 0.921101 0.566305 0.921027C0.664819 0.92099 0.763313 0.921759 0.861823 0.922673C0.964773 0.92349 1.06772 0.923567 1.17068 0.923723C1.36563 0.924129 1.56057 0.925203 1.75552 0.926516C1.97746 0.927978 2.1994 0.928698 2.42134 0.929355C2.87789 0.930722 3.33444 0.933024 3.79098 0.935939C3.81895 1.0397 3.84688 1.14347 3.87478 1.24725C3.88424 1.28241 3.89371 1.31758 3.90319 1.35274C3.96081 1.56653 4.01718 1.78051 4.07018 1.9955C4.07653 2.02117 4.08287 2.04684 4.08922 2.07252C4.0946 2.09428 4.09998 2.11604 4.10552 2.13845C4.15583 2.34125 4.20892 2.54333 4.26177 2.74548C4.26648 2.76354 4.2712 2.7816 4.27607 2.8002C4.31567 2.95169 4.35531 3.10318 4.39535 3.25455C4.44077 3.4263 4.48514 3.59826 4.52782 3.77072C4.71637 4.53292 4.71637 4.53292 4.91629 5.29218C4.93872 5.37503 4.96069 5.45799 4.98255 5.54098C4.98581 5.5533 4.98907 5.56561 4.99244 5.5783C5.01523 5.66481 5.03699 5.75156 5.05862 5.83836C5.10336 6.01786 5.14925 6.19705 5.19516 6.37625C5.20422 6.41165 5.21329 6.44706 5.22235 6.48246C5.24988 6.58997 5.27742 6.69747 5.30497 6.80498C5.3112 6.82928 5.3112 6.82928 5.31755 6.85407C5.36412 7.03578 5.41071 7.21748 5.45732 7.39918C5.4961 7.55038 5.53487 7.70158 5.57364 7.85278C5.59311 7.92873 5.61259 8.00469 5.63207 8.08065C5.63985 8.11102 5.64764 8.1414 5.65543 8.17177C5.65928 8.18681 5.66314 8.20184 5.66711 8.21733C5.7411 8.50588 5.81508 8.79442 5.88907 9.08297C5.89292 9.098 5.89678 9.11304 5.90075 9.12853C5.90854 9.1589 5.91633 9.18928 5.92412 9.21966C5.94357 9.29553 5.96303 9.37141 5.98248 9.44728C6.01771 9.58465 6.05293 9.72203 6.08814 9.8594C6.17344 10.1922 6.25881 10.5249 6.34443 10.8576C6.38036 10.9973 6.41621 11.1369 6.45192 11.2766C6.53962 11.6196 6.62807 11.9623 6.71732 12.3049C6.72478 12.3335 6.72478 12.3335 6.73238 12.3627C6.74645 12.4167 6.76054 12.4708 6.77464 12.5248C6.77885 12.541 6.78307 12.5572 6.78742 12.5739C6.79131 12.5888 6.7952 12.6036 6.79921 12.619C6.80259 12.6319 6.80597 12.6449 6.80945 12.6582C6.81785 12.6887 6.82765 12.7188 6.83765 12.7488C6.89031 12.542 6.94287 12.3353 6.99536 12.1285C7.00132 12.105 7.00132 12.105 7.00741 12.081C7.1271 11.6093 7.24508 11.1373 7.361 10.6647C7.47315 10.2076 7.58725 9.75111 7.70527 9.2955C7.72329 9.2259 7.74125 9.1563 7.75921 9.08669C7.76601 9.06037 7.7728 9.03405 7.7796 9.00773C7.78285 8.99512 7.7861 8.98252 7.78946 8.96954C7.79882 8.93325 7.8082 8.89697 7.81757 8.86068C7.89403 8.56459 7.89403 8.56459 7.96546 8.26726C8.00645 8.09013 8.05201 7.91433 8.09801 7.73844C8.13146 7.61013 8.16337 7.48167 8.19298 7.35242C8.22267 7.22409 8.25635 7.09683 8.29031 6.96956C8.3172 6.86809 8.34225 6.76631 8.36602 6.66406C8.41891 6.43702 8.47607 6.21103 8.53271 5.9849C8.53882 5.96049 8.54492 5.93607 8.55103 5.91166C8.62214 5.62731 8.69369 5.34308 8.76598 5.05903C8.7692 5.04637 8.77242 5.03372 8.77574 5.02068C8.7921 4.95642 8.80846 4.89216 8.82482 4.8279C8.82808 4.81509 8.83134 4.80228 8.8347 4.78909C8.84133 4.76302 8.84797 4.73696 8.8546 4.71089C8.96289 4.28552 9.0688 3.85961 9.17334 3.43331C9.29429 2.94009 9.41812 2.44764 9.54342 1.9555C9.54838 1.93601 9.54838 1.93601 9.55344 1.91613C9.56969 1.8523 9.58594 1.78848 9.60222 1.72466C9.63607 1.59179 9.66951 1.45883 9.70243 1.32573C9.7059 1.31175 9.70936 1.29777 9.71293 1.28337C9.72963 1.21603 9.74626 1.14867 9.76277 1.08128C9.76864 1.05757 9.77451 1.03385 9.78056 1.00941C9.78572 0.9884 9.79089 0.967388 9.79621 0.94574C9.81467 0.880463 9.81467 0.880463 9.88046 0.877565Z" fill="#31BA77"/>
</svg>
