<svg width="20" height="30" viewBox="0 0 20 30" fill="none" xmlns="http://www.w3.org/2000/svg">
<path d="M12.5858 0.585786C12.2107 0.210713 11.702 0 11.1716 0H2C0.895431 0 0 0.895431 0 2V28C0 29.1046 0.895431 30 2 30H18C19.1046 30 20 29.1046 20 28V8.82843C20 8.29799 19.7893 7.78929 19.4142 7.41421L12.5858 0.585786ZM18 26C18 27.1046 17.1046 28 16 28H4C2.89543 28 2 27.1046 2 26V4C2 2.89543 2.89543 2 4 2H9C10.1046 2 11 2.89543 11 4V7C11 8.10457 11.8954 9 13 9H16C17.1046 9 18 9.89543 18 11V26Z" fill="#31BA77"/>
</svg>
