<svg width="20" height="30" viewBox="0 0 20 30" fill="none" xmlns="http://www.w3.org/2000/svg">
<path d="M7.96391 20.4241C7.80755 20.2204 7.60813 20.0538 7.37991 19.9361C7.11879 19.8082 6.83058 19.7454 6.53991 19.7531C6.28391 19.7531 6.04891 19.8041 5.83591 19.9051C5.62447 20.0063 5.4485 20.1667 5.31094 20.3882C5.30906 20.3912 5.30574 20.3931 5.30218 20.3931C5.29651 20.3931 5.29191 20.3885 5.29191 20.3828V20.1286C5.29191 19.9825 5.17349 19.8641 5.02741 19.8641H4.75191C4.45368 19.8641 4.21191 20.1059 4.21191 20.4041V24.8811C4.21191 25.1948 4.46622 25.4491 4.77991 25.4491C5.09361 25.4491 5.34791 25.1948 5.34791 24.8811V23.4996C5.34791 23.4938 5.3526 23.4891 5.35839 23.4891C5.36185 23.4891 5.36509 23.4908 5.36705 23.4936C5.50557 23.6944 5.68153 23.8449 5.89591 23.9491C6.11191 24.0531 6.34791 24.1041 6.60391 24.1041C6.90791 24.1041 7.17291 24.0451 7.39991 23.9281C7.6221 23.8151 7.81618 23.6538 7.96791 23.4561C8.11991 23.2591 8.23291 23.0321 8.30791 22.7751C8.38335 22.5155 8.42107 22.2464 8.41991 21.9761C8.42067 21.6907 8.383 21.4065 8.30791 21.1311C8.23947 20.8756 8.1227 20.6356 7.96391 20.4241ZM7.23591 22.4321C7.20391 22.5921 7.14891 22.7331 7.07191 22.8521C6.99504 22.9723 6.89089 23.0727 6.76791 23.1451C6.62476 23.2236 6.46307 23.2619 6.29991 23.2561C6.13814 23.2609 5.97801 23.2226 5.83591 23.1451C5.71114 23.0737 5.60547 22.9731 5.52791 22.8521C5.44674 22.7235 5.3898 22.5812 5.35991 22.4321C5.32501 22.2718 5.30758 22.1082 5.30791 21.9441C5.30791 21.7741 5.32391 21.6081 5.35591 21.4491C5.3843 21.2986 5.43988 21.1546 5.51991 21.0241C5.60015 20.8925 5.71393 20.7847 5.84959 20.7116C5.98525 20.6385 6.13791 20.6027 6.29191 20.6081C6.47291 20.6081 6.62691 20.6471 6.75191 20.7251C6.87653 20.801 6.98194 20.9047 7.05991 21.0281C7.13991 21.1541 7.19791 21.2971 7.23191 21.4571C7.26691 21.6171 7.28391 21.7801 7.28391 21.9441C7.28391 22.1091 7.26791 22.2711 7.23591 22.4321ZM9.95591 19.9321C9.72591 20.0521 9.53591 20.2111 9.38391 20.4091C9.22805 20.6139 9.11142 20.8458 9.03991 21.0931C8.96191 21.3543 8.92282 21.6255 8.92391 21.8981C8.92391 22.1851 8.96291 22.4621 9.03991 22.7301C9.11691 22.9961 9.23191 23.2321 9.38391 23.4371C9.53591 23.6431 9.72891 23.8061 9.96391 23.9251C10.1989 24.0451 10.4709 24.1051 10.7799 24.1051C11.0519 24.1051 11.2959 24.0561 11.5119 23.9581C11.7304 23.8558 11.9122 23.689 12.033 23.4802C12.0348 23.477 12.0382 23.4751 12.0418 23.4751C12.0474 23.4751 12.0519 23.4796 12.0519 23.4852V23.7376C12.0519 23.8826 12.1694 24.0001 12.3144 24.0001H12.5919C12.8901 24.0001 13.1319 23.7583 13.1319 23.4601V18.8561C13.1319 18.5424 12.8776 18.2881 12.5639 18.2881C12.2502 18.2881 11.9959 18.5424 11.9959 18.8561V20.3578C11.9959 20.3635 11.9913 20.3681 11.9856 20.3681C11.9821 20.3681 11.9788 20.3663 11.9769 20.3633C11.8508 20.1645 11.6699 20.0064 11.4559 19.9081C11.2369 19.8052 10.9979 19.7519 10.7559 19.7521C10.4786 19.7459 10.2039 19.8077 9.95591 19.9321ZM11.5239 20.7211C11.645 20.7937 11.7476 20.8933 11.8239 21.0121C11.9019 21.1321 11.9559 21.2711 11.9879 21.4281C12.0531 21.7542 12.0531 22.09 11.9879 22.4161C11.9559 22.5761 11.9029 22.7191 11.8279 22.8441C11.7545 22.9678 11.6514 23.0713 11.5279 23.1451C11.3848 23.2236 11.2231 23.2619 11.0599 23.2561C10.9015 23.2604 10.745 23.2206 10.6079 23.1411C10.4831 23.0631 10.3767 22.9591 10.2959 22.8361C10.2108 22.7053 10.1499 22.5604 10.1159 22.4081C10.0786 22.2508 10.0598 22.0897 10.0599 21.9281C10.0599 21.7581 10.0769 21.5941 10.1119 21.4361C10.1437 21.2876 10.2005 21.1456 10.2799 21.0161C10.3571 20.8942 10.4628 20.7929 10.5879 20.7211C10.7323 20.6418 10.8953 20.6028 11.0599 20.6081C11.2221 20.6016 11.3829 20.6407 11.5239 20.7211ZM14.2359 23.4321C14.2359 23.7458 14.4902 24.0001 14.8039 24.0001C15.1176 24.0001 15.3719 23.7458 15.3719 23.4321V21.0161C15.3719 20.7996 15.5474 20.6241 15.7639 20.6241H15.7754C15.9856 20.6241 16.1559 20.4537 16.1559 20.2436C16.1559 20.0334 15.9856 19.8631 15.7754 19.8631H15.6189C15.4825 19.8631 15.3719 19.7525 15.3719 19.6161C15.3719 19.4451 15.4049 19.3241 15.4719 19.2521C15.5379 19.1801 15.6489 19.1441 15.8039 19.1441C16.0262 19.1441 16.2199 18.9725 16.2199 18.7502V18.6168C16.2199 18.45 16.0902 18.3133 15.9239 18.3001C15.8228 18.2921 15.7214 18.2881 15.6199 18.2881C15.1559 18.2881 14.8099 18.4051 14.5799 18.6411C14.3509 18.8751 14.2359 19.1761 14.2359 19.5441C14.2359 19.7203 14.0931 19.8631 13.9169 19.8631H13.8959C13.7081 19.8631 13.5559 20.0153 13.5559 20.2031V20.2841C13.5559 20.4719 13.7081 20.6241 13.8959 20.6241C14.0837 20.6241 14.2359 20.7763 14.2359 20.9641V23.4321Z" fill="#31BA77"/>
<path d="M12.5858 0.585786C12.2107 0.210713 11.702 0 11.1716 0H2C0.895431 0 0 0.895431 0 2V28C0 29.1046 0.895431 30 2 30H18C19.1046 30 20 29.1046 20 28V8.82843C20 8.29799 19.7893 7.78929 19.4142 7.41421L12.5858 0.585786ZM18 26C18 27.1046 17.1046 28 16 28H4C2.89543 28 2 27.1046 2 26V4C2 2.89543 2.89543 2 4 2H9C10.1046 2 11 2.89543 11 4V7C11 8.10457 11.8954 9 13 9H16C17.1046 9 18 9.89543 18 11V26Z" fill="#31BA77"/>
</svg>
