<svg width="10" height="14" viewBox="0 0 10 14" fill="none" xmlns="http://www.w3.org/2000/svg">
<path d="M9.23123 3.07509H7.53224C7.38417 2.51526 7.12249 1.9919 6.76346 1.53755H9.23123C9.43512 1.53755 9.63066 1.45655 9.77483 1.31238C9.919 1.1682 10 0.972664 10 0.768773C10 0.564882 9.919 0.369341 9.77483 0.225168C9.63066 0.0809955 9.43512 0 9.23123 0H0.774722C0.570831 0 0.375291 0.0809955 0.231118 0.225168C0.0869447 0.369341 0.00594905 0.564882 0.00594905 0.768773C0.00594905 0.972664 0.0869447 1.1682 0.231118 1.31238C0.375291 1.45655 0.570831 1.53755 0.774722 1.53755H3.46543C3.973 1.53933 4.46972 1.68464 4.89822 1.95671C5.32673 2.22877 5.66953 2.61649 5.88706 3.07509H0.774722C0.570831 3.07509 0.375291 3.15609 0.231118 3.30026C0.0869447 3.44443 0.00594905 3.63997 0.00594905 3.84387C0.00594905 4.04776 0.0869447 4.2433 0.231118 4.38747C0.375291 4.53164 0.570831 4.61264 0.774722 4.61264H6.15613C6.06397 5.25118 5.74545 5.83535 5.25861 6.25869C4.77177 6.68203 4.14902 6.91636 3.50387 6.91896H0.774722C0.738936 6.91536 0.70288 6.91536 0.667094 6.91896C0.616149 6.91103 0.564284 6.91103 0.513339 6.91896C0.460937 6.9368 0.411652 6.96274 0.367272 6.99583L0.27502 7.04965C0.232908 7.08768 0.196641 7.13172 0.167391 7.18034C0.141643 7.21442 0.118514 7.2504 0.0982017 7.28797C0.0913588 7.33384 0.0913588 7.38047 0.0982017 7.42635C0.0434177 7.50303 0.0114364 7.59365 0.00594905 7.68773C0.00235243 7.72352 0.00235243 7.75957 0.00594905 7.79536C-0.00198302 7.8463 -0.00198302 7.89817 0.00594905 7.94911C0.0237961 8.00152 0.0497358 8.0508 0.0828263 8.09518C0.0828263 8.09518 0.0828264 8.15668 0.136641 8.18743L4.74928 13.5688C4.88181 13.7238 5.07047 13.8198 5.27375 13.8356C5.47703 13.8515 5.67829 13.7859 5.83325 13.6534C5.98821 13.5209 6.08417 13.3322 6.10003 13.1289C6.11589 12.9257 6.05034 12.7244 5.91781 12.5694L2.45065 8.4565H3.46543C4.5233 8.46088 5.54439 8.06855 6.32716 7.35694C7.10993 6.64533 7.59752 5.66614 7.69368 4.61264H9.23123C9.43512 4.61264 9.63066 4.53164 9.77483 4.38747C9.919 4.2433 10 4.04776 10 3.84387C10 3.63997 9.919 3.44443 9.77483 3.30026C9.63066 3.15609 9.43512 3.07509 9.23123 3.07509Z" fill="white"/>
</svg>
