<svg width="16" height="23" viewBox="0 0 16 23" fill="none" xmlns="http://www.w3.org/2000/svg">
<path d="M14.77 4.92015H12.0516C11.8147 4.02442 11.396 3.18703 10.8215 2.46007H14.77C15.0962 2.46007 15.4091 2.33048 15.6397 2.0998C15.8704 1.86913 16 1.55626 16 1.23004C16 0.903811 15.8704 0.590946 15.6397 0.360269C15.4091 0.129593 15.0962 0 14.77 0H1.23956C0.913329 0 0.600465 0.129593 0.369788 0.360269C0.139112 0.590946 0.00951848 0.903811 0.00951848 1.23004C0.00951848 1.55626 0.139112 1.86913 0.369788 2.0998C0.600465 2.33048 0.913329 2.46007 1.23956 2.46007H5.54469C6.3568 2.46293 7.15155 2.69543 7.83716 3.13073C8.52276 3.56604 9.07125 4.18639 9.4193 4.92015H1.23956C0.913329 4.92015 0.600465 5.04974 0.369788 5.28042C0.139112 5.51109 0.00951848 5.82396 0.00951848 6.15019C0.00951848 6.47641 0.139112 6.78928 0.369788 7.01995C0.600465 7.25063 0.913329 7.38022 1.23956 7.38022H9.84982C9.70236 8.40189 9.19272 9.33657 8.41377 10.0139C7.63483 10.6913 6.63844 11.0662 5.60619 11.0703H1.23956C1.1823 11.0646 1.12461 11.0646 1.06735 11.0703C0.985839 11.0576 0.902854 11.0576 0.821343 11.0703C0.737499 11.0989 0.658642 11.1404 0.587636 11.1933L0.440031 11.2794C0.372653 11.3403 0.314626 11.4108 0.267826 11.4885C0.226629 11.5431 0.189622 11.6006 0.157123 11.6608C0.146174 11.7341 0.146174 11.8088 0.157123 11.8822C0.0694684 12.0049 0.0182982 12.1498 0.00951848 12.3004C0.00376389 12.3576 0.00376389 12.4153 0.00951848 12.4726C-0.00317283 12.5541 -0.00317283 12.6371 0.00951848 12.7186C0.0380737 12.8024 0.0795772 12.8813 0.132522 12.9523C0.132522 12.9523 0.132522 13.0507 0.218625 13.0999L7.59885 21.7102C7.81089 21.9581 8.11275 22.1116 8.438 22.137C8.76326 22.1624 9.08527 22.0575 9.3332 21.8455C9.58113 21.6334 9.73467 21.3316 9.76005 21.0063C9.78542 20.6811 9.68055 20.359 9.4685 20.1111L3.92104 13.5304H5.54469C7.23729 13.5374 8.87103 12.9097 10.1235 11.7711C11.3759 10.6325 12.156 9.06583 12.3099 7.38022H14.77C15.0962 7.38022 15.4091 7.25063 15.6397 7.01995C15.8704 6.78928 16 6.47641 16 6.15019C16 5.82396 15.8704 5.51109 15.6397 5.28042C15.4091 5.04974 15.0962 4.92015 14.77 4.92015Z" fill="white"/>
</svg>
