<svg width="8" height="13" viewBox="0 0 8 13" fill="none" xmlns="http://www.w3.org/2000/svg">
<path d="M1.17155 1.15409L1.00212 0.970269C0.923378 1.04285 0.860376 1.13081 0.817013 1.22873C0.773651 1.32664 0.75085 1.43241 0.750023 1.53949C0.749197 1.64657 0.770362 1.75268 0.812208 1.85125C0.853923 1.94952 0.915303 2.0382 0.992569 2.11184C0.992812 2.11208 0.993056 2.11231 0.993299 2.11254L5.2977 6.26591L5.2977 6.26591L5.29914 6.26729C5.32686 6.29361 5.34894 6.32531 5.36403 6.36044C5.37911 6.39557 5.38689 6.4334 5.38689 6.47163C5.38689 6.50987 5.37911 6.5477 5.36403 6.58283C5.34894 6.61796 5.32686 6.64965 5.29914 6.67598L5.29914 6.67598L5.29769 6.67737L1.02782 10.7978C1.02754 10.7981 1.02725 10.7984 1.02696 10.7987C0.950452 10.8715 0.889501 10.9591 0.847801 11.0562C0.805944 11.1536 0.784359 11.2585 0.784359 11.3645C0.784359 11.4706 0.805944 11.5755 0.847801 11.6729C0.889533 11.7701 0.950545 11.8577 1.02714 11.9306C1.34478 12.2358 1.85494 12.2359 2.17208 11.9298L6.84131 7.42357C6.84157 7.42332 6.84182 7.42308 6.84208 7.42284C6.97084 7.30027 7.07339 7.15283 7.14351 6.98946C7.21377 6.82577 7.25 6.6495 7.25 6.47136C7.25 6.29323 7.21377 6.11695 7.14351 5.95326C7.07339 5.78988 6.97083 5.64243 6.84205 5.51986L2.13825 0.97967L2.13826 0.979665L2.13686 0.978341C1.98406 0.833103 1.7817 0.75147 1.57089 0.75002C1.36008 0.74857 1.15662 0.827412 1.00183 0.970534L1.17155 1.15409ZM1.17155 1.15409C1.11797 1.20348 1.07511 1.26334 1.0456 1.32996C1.01609 1.39658 1.00058 1.46856 1.00002 1.54142C0.999453 1.61429 1.01386 1.68649 1.04233 1.75356C1.0708 1.82063 1.11274 1.88115 1.16555 1.93135L1.96463 1.15955C1.85786 1.05807 1.71647 1.00103 1.56917 1.00001C1.42187 0.999001 1.27971 1.05409 1.17155 1.15409Z" fill="#111C30" stroke="#111C30" stroke-width="0.5"/>
</svg>
