<svg width="10" height="14" viewBox="0 0 10 14" fill="none" xmlns="http://www.w3.org/2000/svg">
<path d="M8.73354 3.59632H7.12615C6.98607 3.06667 6.73849 2.57152 6.39883 2.14166H8.73354C8.92644 2.14166 9.11144 2.06504 9.24784 1.92864C9.38424 1.79224 9.46087 1.60724 9.46087 1.41434C9.46087 1.22144 9.38424 1.03644 9.24784 0.900041C9.11144 0.76364 8.92644 0.687012 8.73354 0.687012H0.732955C0.540056 0.687012 0.355058 0.76364 0.218657 0.900041C0.0822573 1.03644 0.00562832 1.22144 0.00562832 1.41434C0.00562832 1.60724 0.0822573 1.79224 0.218657 1.92864C0.355058 2.06504 0.540056 2.14166 0.732955 2.14166H3.2786C3.75881 2.14335 4.22874 2.28083 4.63414 2.53823C5.03955 2.79562 5.36387 3.16244 5.56967 3.59632H0.732955C0.540056 3.59632 0.355058 3.67295 0.218657 3.80935C0.0822573 3.94575 0.00562832 4.13074 0.00562832 4.32364C0.00562832 4.51654 0.0822573 4.70154 0.218657 4.83794C0.355058 4.97434 0.540056 5.05097 0.732955 5.05097H5.82424C5.73705 5.65509 5.43569 6.20777 4.9751 6.60828C4.51451 7.0088 3.92534 7.23049 3.31496 7.23295H0.732955C0.699098 7.22955 0.664986 7.22955 0.631129 7.23295C0.582931 7.22544 0.533862 7.22544 0.485664 7.23295C0.436087 7.24983 0.389458 7.27437 0.347472 7.30568L0.260192 7.35659C0.220351 7.39257 0.18604 7.43424 0.158367 7.48024C0.134007 7.51248 0.112124 7.54652 0.0929074 7.58206C0.0864333 7.62546 0.0864333 7.66958 0.0929074 7.71298C0.041077 7.78553 0.0108198 7.87126 0.00562832 7.96027C0.0022256 7.99413 0.0022256 8.02824 0.00562832 8.0621C-0.00187611 8.1103 -0.00187611 8.15937 0.00562832 8.20757C0.0225132 8.25714 0.0470544 8.30377 0.0783609 8.34576C0.0783609 8.34576 0.078361 8.40394 0.129274 8.43304L4.49323 13.5243C4.61862 13.6709 4.7971 13.7617 4.98943 13.7767C5.18175 13.7917 5.37216 13.7297 5.51876 13.6043C5.66536 13.4789 5.75616 13.3005 5.77116 13.1081C5.78616 12.9158 5.72415 12.7254 5.59877 12.5788L2.31853 8.6876H3.2786C4.27944 8.69174 5.24548 8.32056 5.98605 7.64732C6.72662 6.97407 7.18791 6.04768 7.27889 5.05097H8.73354C8.92644 5.05097 9.11144 4.97434 9.24784 4.83794C9.38424 4.70154 9.46087 4.51654 9.46087 4.32364C9.46087 4.13074 9.38424 3.94575 9.24784 3.80935C9.11144 3.67295 8.92644 3.59632 8.73354 3.59632Z" fill="#424242"/>
</svg>
