<svg width="16" height="22" viewBox="0 0 16 22" fill="none" xmlns="http://www.w3.org/2000/svg">
<path d="M11.608 0.656375C11.6272 0.656315 11.6272 0.656315 11.6467 0.656253C11.6897 0.65621 11.7327 0.656707 11.7757 0.657201C11.8068 0.657288 11.8379 0.657342 11.869 0.657367C11.9544 0.657535 12.0398 0.658179 12.1251 0.658906C12.2154 0.659598 12.3056 0.659865 12.3958 0.660195C12.6171 0.661114 12.8384 0.662815 13.0598 0.664622C13.1282 0.665175 13.1966 0.665705 13.265 0.666229C13.9103 0.671172 14.5557 0.677086 15.201 0.683851C15.2134 0.708523 15.2257 0.733196 15.2384 0.758616C15.2508 0.758616 15.2631 0.758616 15.2758 0.758616C15.2772 2.21364 15.2761 3.66865 15.2709 5.12366C15.2709 5.14158 15.2708 5.15949 15.2708 5.17795C15.2691 5.65001 15.2673 6.12207 15.2655 6.59413C15.2645 6.8757 15.2634 7.15727 15.2624 7.43883C15.2623 7.45924 15.2622 7.47964 15.2622 7.50066C15.2619 7.58359 15.2615 7.66652 15.2612 7.74945C15.2584 8.51871 15.2555 9.28797 15.2526 10.0572C15.2501 10.7328 15.2476 11.4083 15.2451 12.0838C15.2423 12.8524 15.2395 13.6209 15.2366 14.3895C15.2363 14.4722 15.2359 14.5548 15.2356 14.6375C15.2355 14.6681 15.2355 14.6681 15.2354 14.6992C15.2344 14.9799 15.2333 15.2605 15.2323 15.5412C15.2294 16.342 15.2263 17.1427 15.2226 17.9435C15.2209 18.3081 15.2194 18.6727 15.2184 19.0373C15.2176 19.3023 15.2166 19.5673 15.2153 19.8323C15.2146 19.9886 15.214 20.145 15.2138 20.3013C15.2136 20.4171 15.213 20.5328 15.2123 20.6486C15.2121 20.6955 15.2119 20.7423 15.212 20.7892C15.212 20.8525 15.2116 20.9158 15.211 20.9791C15.2111 20.9975 15.2112 21.016 15.2114 21.0349C15.2096 21.1575 15.2096 21.1575 15.1659 21.2181C15.1163 21.2507 15.0869 21.2534 15.0278 21.2533C15.0078 21.2534 14.9878 21.2536 14.9672 21.2537C14.9454 21.2534 14.9235 21.2532 14.901 21.253C14.8663 21.253 14.8663 21.253 14.8309 21.2531C14.7672 21.2531 14.7036 21.2528 14.6399 21.2524C14.5723 21.252 14.5048 21.252 14.4372 21.2519C14.3227 21.2518 14.2083 21.2514 14.0939 21.2508C13.9361 21.25 13.7783 21.2497 13.6205 21.2495C12.9697 21.2486 12.3191 21.2418 11.6684 21.2255C11.6481 21.0144 11.6279 20.8034 11.6076 20.5923C11.6062 20.5768 11.6047 20.5613 11.6031 20.5452C11.5562 20.0555 11.5093 19.5658 11.4628 19.076C11.4204 19.1286 11.3786 19.1814 11.3389 19.2361C11.2336 19.3799 11.1253 19.5159 11.0025 19.6451C10.9572 19.6924 10.9572 19.6924 10.9172 19.7457C10.9005 19.7658 10.9005 19.7658 10.8834 19.7863C10.871 19.7863 10.8587 19.7863 10.846 19.7863C10.8417 19.7967 10.8375 19.8071 10.8331 19.8178C10.7773 19.9162 10.6755 19.9998 10.5843 20.0666C10.572 20.0666 10.5596 20.0666 10.5469 20.0666C10.5408 20.0851 10.5346 20.1036 10.5282 20.1227C10.5017 20.1481 10.5017 20.1481 10.4674 20.1741C10.4547 20.1838 10.4419 20.1936 10.4288 20.2036C10.4081 20.2191 10.4081 20.2191 10.3869 20.2349C10.3655 20.251 10.3655 20.251 10.3436 20.2674C9.80744 20.6685 9.21198 21.0183 8.56565 21.2068C8.55318 21.2105 8.5407 21.2142 8.52784 21.2181C8.33603 21.2746 8.14196 21.3156 7.94534 21.3517C7.92428 21.3556 7.90321 21.3595 7.88151 21.3636C7.59105 21.4148 7.29989 21.4159 7.00585 21.4159C6.94824 21.4159 6.89064 21.4162 6.83303 21.4166C6.48448 21.4176 6.13873 21.397 5.79585 21.3318C5.77389 21.3277 5.75192 21.3236 5.7293 21.3194C4.41707 21.0705 3.28074 20.3986 2.33681 19.4673C2.32609 19.4569 2.31537 19.4464 2.30432 19.4356C2.27858 19.4099 2.25385 19.3832 2.22934 19.3564C2.22934 19.344 2.22934 19.3317 2.22934 19.319C2.21857 19.3145 2.2078 19.3099 2.1967 19.3053C2.04586 19.2206 1.93637 19.0332 1.83105 18.8973C1.787 18.8406 1.74149 18.7853 1.69547 18.7302C1.59921 18.6131 1.51183 18.4904 1.42561 18.3657C1.41416 18.3493 1.41416 18.3493 1.40247 18.3324C0.87211 17.5662 0.494025 16.6936 0.297091 15.783C0.289027 15.7465 0.28057 15.71 0.271801 15.6736C0.233319 15.5138 0.205249 15.3531 0.18148 15.1906C0.179467 15.1768 0.177456 15.1631 0.175382 15.1489C-0.0304569 13.7253 0.115544 12.2239 0.659274 10.8892C0.666047 10.8726 0.672821 10.8559 0.679799 10.8388C0.758513 10.6469 0.842425 10.4602 0.942928 10.2787C0.974131 10.2217 1.0027 10.164 1.03076 10.1054C1.102 9.96155 1.18904 9.82764 1.27608 9.69301C1.29426 9.66475 1.29426 9.66475 1.31281 9.63592C1.48205 9.37759 1.66344 9.13152 1.86757 8.89986C1.90648 8.85491 1.9434 8.8084 1.98051 8.76196C2.04579 8.68145 2.11557 8.60848 2.18984 8.53627C2.22656 8.49955 2.26015 8.46171 2.29359 8.42201C2.35544 8.35011 2.42361 8.28806 2.49474 8.22546C2.54267 8.18294 2.58962 8.13961 2.6364 8.09584C2.83775 7.90779 3.05247 7.74146 3.27604 7.58091C3.29327 7.56852 3.3105 7.55614 3.32825 7.54338C3.90872 7.13179 4.55837 6.82137 5.24678 6.64027C5.27774 6.63212 5.30867 6.62382 5.33954 6.61533C5.78185 6.49427 6.25679 6.42641 6.71523 6.42205C6.7368 6.4217 6.75837 6.42134 6.7806 6.42097C7.43151 6.41092 8.05584 6.48207 8.6778 6.68373C8.69345 6.68858 8.7091 6.69344 8.72522 6.69844C9.25287 6.86225 9.75249 7.13498 10.1918 7.46876C10.2028 7.47712 10.2138 7.48548 10.2252 7.49409C10.3548 7.5929 10.48 7.69483 10.5996 7.80571C10.6412 7.84431 10.6412 7.84431 10.6923 7.88237C10.706 7.89392 10.7197 7.90546 10.7338 7.91735C10.7338 7.92968 10.7338 7.94202 10.7338 7.95473C10.7506 7.96226 10.7506 7.96226 10.7676 7.96993C10.8089 7.99229 10.834 8.01383 10.8659 8.04789C10.8817 8.06468 10.8817 8.06468 10.8978 8.08181C10.9088 8.09385 10.9199 8.10588 10.9313 8.11828C10.9427 8.13069 10.9542 8.14309 10.966 8.15588C11.1069 8.31004 11.2354 8.47209 11.3506 8.64631C11.3535 8.33458 11.3561 8.02285 11.3585 7.71112C11.3588 7.67106 11.3591 7.63099 11.3595 7.59093C11.3666 6.6846 11.3707 5.77826 11.3738 4.8719C11.3741 4.78674 11.3744 4.70157 11.3747 4.6164C11.3765 4.08449 11.3783 3.55259 11.3798 3.02067C11.3805 2.78489 11.3812 2.54911 11.382 2.31333C11.3825 2.17065 11.3829 2.02797 11.3833 1.88529C11.3835 1.77708 11.3839 1.66887 11.3843 1.56066C11.3844 1.51676 11.3845 1.47285 11.3846 1.42894C11.3849 1.29894 11.3857 1.16897 11.388 1.03898C11.3884 1.01566 11.3884 1.01566 11.3888 0.991873C11.3897 0.94979 11.3912 0.907773 11.3929 0.865717C11.3938 0.842929 11.3946 0.820142 11.3955 0.796664C11.4201 0.67275 11.4925 0.655819 11.608 0.656375ZM7.10774 10.2537C7.0924 10.2561 7.07707 10.2584 7.06127 10.2608C6.6161 10.3299 6.18102 10.4794 5.79936 10.721C5.7885 10.7278 5.77764 10.7347 5.76645 10.7417C5.59081 10.8526 5.43057 10.9749 5.276 11.1135C5.26076 11.1272 5.26076 11.1272 5.24522 11.1411C5.0978 11.2728 5.0978 11.2728 4.95825 11.4126C4.95825 11.4249 4.95825 11.4373 4.95825 11.45C4.93975 11.4562 4.92124 11.4623 4.90218 11.4687C4.86917 11.5058 4.83879 11.5426 4.80872 11.582C4.79974 11.5936 4.79076 11.6053 4.7815 11.6173C4.60901 11.8433 4.46032 12.0699 4.34144 12.3285C4.33566 12.3407 4.32988 12.3529 4.32393 12.3656C3.91994 13.2223 3.89445 14.275 4.20153 15.1652C4.33841 15.5404 4.53668 15.8892 4.79003 16.1976C4.79868 16.2081 4.80733 16.2187 4.81624 16.2296C5.01818 16.4748 5.23402 16.695 5.48888 16.8853C5.51613 16.9057 5.54309 16.9264 5.57002 16.9472C5.98298 17.2596 6.46689 17.4594 6.9769 17.5433C6.99159 17.5459 7.00629 17.5484 7.02142 17.5511C7.9722 17.7127 8.94095 17.5296 9.7416 16.9865C9.92506 16.8551 10.1092 16.7146 10.2666 16.5527C10.2757 16.5435 10.2848 16.5343 10.2941 16.5248C10.6179 16.1957 10.8905 15.8204 11.0703 15.3938C11.0785 15.3744 11.0785 15.3744 11.0869 15.3546C11.3703 14.6693 11.4311 13.8779 11.2946 13.1509C11.2917 13.1354 11.2888 13.1199 11.2858 13.1039C11.1502 12.4202 10.7804 11.8173 10.3039 11.3191C10.287 11.3014 10.27 11.2837 10.2525 11.2654C10.0695 11.0782 9.8691 10.9196 9.64974 10.7771C9.63834 10.7697 9.62693 10.7622 9.61518 10.7545C8.89324 10.2901 7.95367 10.1153 7.10774 10.2537Z" fill="#31BA77"/>
</svg>
