<svg width="10" height="17" viewBox="0 0 10 17" fill="none" xmlns="http://www.w3.org/2000/svg">
<path d="M7.54021 15.5131L7.5402 15.5131L7.54159 15.5144C7.72999 15.6935 7.97948 15.7941 8.23939 15.7959C8.4993 15.7977 8.75015 15.7005 8.94099 15.524L8.77127 15.3405L8.9407 15.5243C9.0373 15.4353 9.11459 15.3273 9.16779 15.2072C9.22099 15.0871 9.24896 14.9573 9.24997 14.826C9.25099 14.6946 9.22502 14.5644 9.17368 14.4435C9.12247 14.3229 9.04711 14.214 8.95224 14.1236C8.952 14.1234 8.95176 14.1232 8.95152 14.1229L3.21187 8.58468L3.21187 8.58468L3.21043 8.58331C3.16526 8.54042 3.1293 8.48879 3.10472 8.43156C3.08015 8.37433 3.06748 8.3127 3.06748 8.25042C3.06748 8.18813 3.08015 8.1265 3.10472 8.06927C3.1293 8.01205 3.16526 7.96041 3.21043 7.91753L3.21043 7.91753L3.21187 7.91614L8.90554 2.42168C8.90582 2.42141 8.9061 2.42115 8.90638 2.42088C9.00034 2.3315 9.07517 2.22398 9.12637 2.10483C9.17771 1.98532 9.20419 1.85661 9.20419 1.72653C9.20419 1.59646 9.17771 1.46775 9.12637 1.34824C9.07515 1.22904 9.00027 1.12148 8.90626 1.03207C8.51499 0.65591 7.88573 0.65579 7.49513 1.03284C7.49512 1.03284 7.49511 1.03285 7.4951 1.03286L1.26899 7.04158C1.26873 7.04183 1.26847 7.04208 1.2682 7.04233C1.1046 7.19801 0.974304 7.3853 0.885227 7.59285C0.796007 7.80072 0.749999 8.02457 0.749999 8.25078C0.749999 8.47699 0.796007 8.70084 0.885227 8.90872C0.974321 9.1163 1.10465 9.30362 1.26829 9.45932C1.26853 9.45954 1.26876 9.45976 1.26899 9.45998L7.54021 15.5131Z" fill="#111C30" stroke="#111C30" stroke-width="0.5"/>
</svg>
