<svg width="6" height="9" viewBox="0 0 6 9" fill="none" xmlns="http://www.w3.org/2000/svg">
<path d="M0.944788 0.919037C0.883976 0.975127 0.835314 1.04309 0.801813 1.11874C0.768286 1.19444 0.750657 1.27622 0.750018 1.35902C0.749379 1.44181 0.765743 1.52385 0.798098 1.60007C0.830316 1.67596 0.877707 1.74446 0.937357 1.80137L3.80727 4.57057L3.80727 4.57058L3.80871 4.57195C3.81899 4.58172 3.82718 4.59348 3.83278 4.60651C3.83838 4.61954 3.84126 4.63357 3.84126 4.64776C3.84126 4.66194 3.83838 4.67597 3.83278 4.689C3.82718 4.70204 3.81899 4.71379 3.80871 4.72356L3.8087 4.72355L3.80726 4.72495L0.960331 7.47227C0.901251 7.52855 0.854182 7.59623 0.821968 7.67121C0.789599 7.74655 0.772906 7.8277 0.772906 7.9097C0.772906 7.9917 0.789599 8.07284 0.821968 8.14819C0.854222 8.22326 0.90137 8.29102 0.960557 8.34735C1.20456 8.5816 1.59557 8.58169 1.83924 8.34649C1.83925 8.34648 1.83926 8.34648 1.83926 8.34647L4.95162 5.34278C4.95186 5.34255 4.95211 5.34231 4.95236 5.34207C5.04628 5.25262 5.12109 5.14504 5.17225 5.02584C5.22355 4.90633 5.25 4.77763 5.25 4.64757C5.25 4.51752 5.22355 4.38882 5.17225 4.26931C5.12109 4.15011 5.04629 4.04253 4.95237 3.95308L1.81671 0.926488L1.81671 0.926482L1.81532 0.925158C1.6981 0.813747 1.54288 0.751127 1.38117 0.750015C1.21952 0.748903 1.06351 0.809333 0.944788 0.919037ZM0.944788 0.919037C0.944836 0.918993 0.944884 0.918949 0.944932 0.918905L1.11437 1.10273L0.944645 0.91917C0.944693 0.919126 0.94474 0.919082 0.944788 0.919037Z" fill="#646464" stroke="#646464" stroke-width="0.5"/>
</svg>
