<svg width="47" height="47" viewBox="0 0 47 47" fill="none" xmlns="http://www.w3.org/2000/svg">
<path id="Ellipse 8" d="M23.5 47C28.1479 47 32.6913 45.6217 36.5559 43.0395C40.4205 40.4573 43.4325 36.7871 45.2112 32.4931C46.9898 28.199 47.4552 23.4739 46.5485 18.9154C45.6417 14.3568 43.4035 10.1695 40.117 6.88299C36.8305 3.59646 32.6432 1.3583 28.0846 0.451545C23.5261 -0.455208 18.801 0.0101704 14.5069 1.78883C10.2129 3.56749 6.54268 6.57954 3.96046 10.4441C1.37825 14.3087 -8.24053e-07 18.8521 -1.02722e-06 23.5L4.91876 23.5C4.91876 19.825 6.00853 16.2325 8.05026 13.1768C10.092 10.1211 12.994 7.73954 16.3893 6.33317C19.7845 4.9268 23.5206 4.55883 27.125 5.27579C30.7294 5.99275 34.0403 7.76245 36.6389 10.3611C39.2376 12.9597 41.0072 16.2706 41.7242 19.875C42.4412 23.4794 42.0732 27.2155 40.6668 30.6107C39.2605 34.006 36.8789 36.908 33.8232 38.9497C30.7675 40.9915 27.175 42.0812 23.5 42.0812L23.5 47Z" fill="#D9D9D9"/>
</svg>
