<svg width="5" height="22" viewBox="0 0 5 22" fill="none" xmlns="http://www.w3.org/2000/svg">
<path id="Vector" d="M0.725234 0.618348C0.740434 0.618231 0.755634 0.618115 0.771295 0.617994C0.822296 0.617696 0.87328 0.617932 0.924282 0.618168C0.960817 0.618066 0.997352 0.617933 1.03389 0.617771C1.13317 0.617429 1.23245 0.617562 1.33174 0.617799C1.43556 0.617988 1.53937 0.617813 1.64318 0.617695C1.81753 0.617559 1.99188 0.617739 2.16623 0.618095C2.36792 0.618501 2.5696 0.61837 2.77129 0.617958C2.94433 0.617619 3.11737 0.617571 3.29041 0.617766C3.39382 0.617883 3.49722 0.617898 3.60062 0.617652C3.69783 0.617436 3.79503 0.617585 3.89223 0.618018C3.92795 0.618117 3.96366 0.618088 3.99938 0.617923C4.04806 0.617719 4.09671 0.617974 4.14539 0.618348C4.15959 0.618181 4.1738 0.618014 4.18843 0.617842C4.24877 0.618743 4.28926 0.624312 4.34125 0.655791C4.38246 0.723235 4.38005 0.786348 4.37909 0.863023C4.37923 0.887808 4.37923 0.887808 4.37937 0.913094C4.37958 0.96918 4.37925 1.02525 4.37893 1.08134C4.37897 1.12213 4.37904 1.16293 4.37914 1.20373C4.37933 1.31774 4.37903 1.43175 4.37866 1.54577C4.37836 1.65889 4.37842 1.77202 4.37845 1.88514C4.37851 2.1392 4.3781 2.39326 4.37753 2.64732C4.37701 2.87741 4.37667 3.10751 4.37646 3.33761C4.37489 5.03168 4.36941 6.72574 4.34773 12.887C4.34753 12.9401 4.34733 12.9931 4.34712 13.0462C4.34492 13.6204 4.34265 14.1945 4.34013 14.7687C4.33918 14.9858 4.33825 15.203 4.33732 15.4202C4.33715 15.4583 4.33699 15.4964 4.33682 15.5344C4.33372 16.2543 4.33176 16.9741 4.33076 17.6939C4.33049 17.8923 4.33013 18.0906 4.32969 18.289C4.32966 18.3018 4.32963 18.3146 4.3296 18.3278C4.32932 18.4557 4.32902 18.5836 4.32872 18.7115C4.32804 18.9947 4.32765 19.278 4.32769 19.5613C4.32769 19.7432 4.32737 19.925 4.32678 20.1069C4.32645 20.2114 4.32628 20.3158 4.32652 20.4203C4.32673 20.5156 4.32653 20.6109 4.32598 20.7062C4.32585 20.7407 4.32589 20.7752 4.3261 20.8097C4.32636 20.8564 4.32605 20.903 4.32559 20.9497C4.32581 20.9632 4.32602 20.9767 4.32624 20.9905C4.32487 21.062 4.31521 21.0929 4.27063 21.1498C4.20435 21.2004 4.14938 21.2012 4.06921 21.2C4.04652 21.2003 4.04652 21.2003 4.02338 21.2005C3.97273 21.2009 3.92211 21.2006 3.87147 21.2003C3.83514 21.2004 3.79882 21.2006 3.7625 21.2008C3.66387 21.2012 3.56524 21.201 3.46661 21.2007C3.36343 21.2005 3.26025 21.2007 3.15707 21.2009C2.98379 21.201 2.81051 21.2008 2.63723 21.2004C2.43685 21.1999 2.23647 21.2 2.03609 21.2005C1.86409 21.201 1.6921 21.201 1.52011 21.2008C1.41736 21.2006 1.31462 21.2006 1.21187 21.2009C1.11528 21.2012 1.01869 21.201 0.922102 21.2005C0.886635 21.2003 0.851168 21.2004 0.815702 21.2006C0.767312 21.2008 0.71896 21.2005 0.670572 21.2C0.649477 21.2004 0.649477 21.2004 0.627955 21.2007C0.560868 21.1994 0.523791 21.1913 0.469096 21.1517C0.409583 21.073 0.413375 21.0155 0.415214 20.9194C0.415182 20.9015 0.41515 20.8836 0.415117 20.8652C0.415124 20.8047 0.415803 20.7443 0.416473 20.6838C0.416615 20.64 0.416714 20.5961 0.416776 20.5522C0.417003 20.456 0.417523 20.3598 0.41829 20.2636C0.419442 20.1187 0.420042 19.9738 0.420523 19.8288C0.421309 19.5951 0.422426 19.3615 0.423755 19.1278C0.425949 18.7414 0.427237 18.355 0.428284 17.9686C0.428704 17.8144 0.429147 17.6602 0.42959 17.506C0.429639 17.4887 0.429689 17.4714 0.42974 17.4536C0.430954 17.0311 0.432498 16.6087 0.434078 16.1862C0.434149 16.1672 0.43422 16.1483 0.434293 16.1287C0.434948 15.9533 0.435606 15.7779 0.436267 15.6025C0.437335 15.3191 0.438384 15.0357 0.439421 14.7523C0.439533 14.7215 0.439533 14.7215 0.439648 14.6902C0.439953 14.6069 0.440258 14.5236 0.440563 14.4403C0.443395 13.6661 0.446278 12.8919 0.449185 12.1177C0.451737 11.438 0.454244 10.7584 0.456714 10.0788C0.459522 9.30619 0.462358 8.53359 0.465237 7.76099C0.465547 7.67776 0.465857 7.59452 0.466167 7.51128C0.466244 7.4908 0.46632 7.47032 0.466399 7.44922C0.46745 7.16703 0.468485 6.88484 0.469507 6.60265C0.47014 6.42824 0.470776 6.25384 0.471415 6.07943C0.471484 6.0605 0.471553 6.04157 0.471624 6.02207C0.473177 5.59843 0.474798 5.1748 0.476659 4.75117C0.476736 4.73365 0.476813 4.71612 0.476893 4.69806C0.477584 4.54082 0.478282 4.38358 0.478997 4.22635C0.48081 3.828 0.482386 3.42965 0.483453 3.0313C0.484222 2.74504 0.485233 2.45878 0.486499 2.17252C0.487246 2.00161 0.487778 1.8307 0.488013 1.65979C0.488189 1.54588 0.488632 1.43197 0.489294 1.31807C0.489664 1.25299 0.489912 1.18792 0.489835 1.12285C0.489813 1.05279 0.490244 0.982755 0.490793 0.912702C0.490677 0.892266 0.490561 0.871829 0.490441 0.850773C0.492186 0.715285 0.492186 0.715285 0.534586 0.652681C0.596053 0.615398 0.655486 0.617529 0.725234 0.618348Z" fill="#31BA77"/>
</svg>
