<svg width="8" height="12" viewBox="0 0 8 12" fill="none" xmlns="http://www.w3.org/2000/svg">
<path id="Vector" d="M1.17155 0.699381L1.00212 0.515557C0.923378 0.588133 0.860376 0.676101 0.817013 0.774014C0.773651 0.871926 0.75085 0.977698 0.750023 1.08478C0.749197 1.19186 0.770362 1.29797 0.812208 1.39654C0.853923 1.4948 0.915303 1.58349 0.992569 1.65713C0.992812 1.65736 0.993056 1.65759 0.993299 1.65783L5.2977 5.8112L5.2977 5.8112L5.29914 5.81257C5.32686 5.8389 5.34894 5.8706 5.36403 5.90573C5.37911 5.94086 5.38689 5.97869 5.38689 6.01692C5.38689 6.05515 5.37911 6.09299 5.36403 6.12812C5.34894 6.16325 5.32686 6.19494 5.29914 6.22127L5.29914 6.22126L5.29769 6.22266L1.02782 10.3431C1.02754 10.3434 1.02725 10.3437 1.02696 10.344C0.950452 10.4168 0.889501 10.5044 0.847801 10.6014C0.805944 10.6989 0.784359 10.8038 0.784359 10.9098C0.784359 11.0159 0.805944 11.1208 0.847801 11.2182C0.889533 11.3154 0.950545 11.403 1.02714 11.4759C1.34478 11.7811 1.85494 11.7812 2.17208 11.4751L6.84131 6.96885C6.84157 6.96861 6.84182 6.96837 6.84208 6.96813C6.97084 6.84556 7.07339 6.69812 7.14351 6.53475C7.21377 6.37106 7.25 6.19478 7.25 6.01665C7.25 5.83851 7.21377 5.66224 7.14351 5.49855C7.07339 5.33516 6.97083 5.18772 6.84205 5.06515L2.13825 0.524958L2.13826 0.524953L2.13686 0.523629C1.98406 0.378391 1.7817 0.296758 1.57089 0.295308C1.36008 0.293858 1.15662 0.3727 1.00183 0.515822L1.17155 0.699381ZM1.17155 0.699381C1.11797 0.748766 1.07511 0.808624 1.0456 0.875248C1.01609 0.941873 1.00058 1.01385 1.00002 1.08671C0.999453 1.15957 1.01386 1.23178 1.04233 1.29885C1.0708 1.36592 1.11274 1.42643 1.16555 1.47664L1.96463 0.704835C1.85786 0.603354 1.71647 0.546315 1.56917 0.545302C1.42187 0.544289 1.27971 0.599378 1.17155 0.699381Z" fill="#111C30" stroke="#111C30" stroke-width="0.5"/>
</svg>
