<svg width="63" height="23" viewBox="0 0 63 23" fill="none" xmlns="http://www.w3.org/2000/svg">
<path d="M9.88046 1.26001C9.90401 1.26003 9.92756 1.26005 9.95183 1.26006C9.97143 1.26004 9.97143 1.26004 9.99143 1.26002C10.0355 1.25998 10.0797 1.26009 10.1238 1.26019C10.1553 1.26019 10.1868 1.26019 10.2182 1.26018C10.304 1.26018 10.3898 1.26029 10.4755 1.26042C10.5651 1.26053 10.6546 1.26054 10.7441 1.26057C10.9138 1.26062 11.0835 1.26078 11.2531 1.26097C11.4462 1.26117 11.6393 1.26128 11.8324 1.26137C12.2298 1.26157 12.6271 1.2619 13.0244 1.26231C13.0452 1.33922 13.066 1.41614 13.0868 1.49305C13.0926 1.51459 13.0984 1.53613 13.1044 1.55832C13.1512 1.73171 13.1956 1.90558 13.2386 2.07993C13.2583 2.15973 13.2782 2.23948 13.298 2.31924C13.3019 2.3347 13.3057 2.35015 13.3097 2.36608C13.3444 2.50539 13.3803 2.64437 13.4174 2.78307C13.4416 2.87418 13.4637 2.96562 13.4849 3.05747C13.5446 3.31435 13.6111 3.56964 13.6761 3.82522C13.6903 3.88127 13.7046 3.93732 13.7188 3.99338C13.8169 4.38022 13.8169 4.38022 13.9182 4.76623C13.9748 4.98092 14.0267 5.19689 14.0795 5.41255C14.0966 5.48238 14.1138 5.55221 14.1309 5.62203C14.1525 5.70983 14.174 5.79763 14.1955 5.88545C14.2132 5.95743 14.2308 6.02939 14.2485 6.10135C14.2551 6.12837 14.2618 6.15538 14.2684 6.1824C14.3063 6.33761 14.347 6.49165 14.3915 6.64511C14.41 6.7099 14.4257 6.77458 14.4404 6.84032C14.4751 6.99168 14.5129 7.14221 14.5511 7.29271C14.5558 7.31125 14.5558 7.31125 14.5606 7.33018C14.5803 7.4074 14.5999 7.48462 14.6196 7.56183C14.6328 7.61366 14.6459 7.66551 14.6591 7.71735C14.7194 7.95479 14.78 8.19214 14.8423 8.42907C14.8727 8.54473 14.9021 8.66045 14.929 8.77698C14.9796 8.9966 15.0364 9.2147 15.0921 9.43306C15.1226 9.55232 15.1529 9.67159 15.1832 9.79087C15.1899 9.81714 15.1966 9.84342 15.2033 9.86969C15.2539 10.0685 15.3042 10.2675 15.3538 10.4666C15.357 10.4791 15.3601 10.4916 15.3633 10.5045C15.3798 10.5708 15.3963 10.6371 15.4128 10.7034C15.5545 11.2723 15.6967 11.8411 15.8408 12.4095C15.8541 12.4621 15.8674 12.5146 15.8807 12.5672C15.8992 12.6406 15.9178 12.714 15.9365 12.7873C15.942 12.8092 15.9475 12.831 15.9532 12.8536C15.9583 12.8738 15.9635 12.894 15.9688 12.9149C15.9755 12.9411 15.9755 12.9411 15.9823 12.9679C15.9975 13.0231 16.0152 13.0771 16.0337 13.1312C16.0377 13.1157 16.0377 13.1157 16.0417 13.0999C16.0701 12.9885 16.0985 12.877 16.1269 12.7656C16.138 12.7219 16.1492 12.6781 16.1603 12.6343C16.2719 12.1965 16.2719 12.1965 16.3259 11.9865C16.3296 11.9721 16.3334 11.9576 16.3372 11.9427C16.3409 11.9285 16.3445 11.9142 16.3483 11.8995C16.3556 11.8712 16.3629 11.843 16.3702 11.8147C16.3738 11.8005 16.3774 11.7864 16.3812 11.7719C16.4568 11.4779 16.53 11.1833 16.6033 10.8888C16.6679 10.6296 16.7338 10.371 16.8036 10.1132C16.8505 9.93944 16.8945 9.76507 16.9379 9.59041C16.9962 9.35575 17.0553 9.12133 17.1155 8.88715C17.1193 8.87216 17.1232 8.85716 17.1272 8.8417C17.143 8.78016 17.1588 8.71861 17.1746 8.65707C17.2257 8.4586 17.2764 8.26005 17.3271 8.0615C17.3723 7.88501 17.4174 7.70852 17.4629 7.53211C17.4779 7.47368 17.493 7.41525 17.508 7.35681C17.5117 7.34236 17.5154 7.3279 17.5193 7.31301C17.5955 7.01626 17.6695 6.71894 17.7435 6.42162C17.808 6.16245 17.874 5.90383 17.9438 5.64601C17.9906 5.47225 18.0347 5.29787 18.0781 5.12321C18.1364 4.88856 18.1955 4.65413 18.2556 4.41996C18.2595 4.4049 18.2634 4.38985 18.2674 4.37434C18.2872 4.29693 18.3071 4.21953 18.3271 4.14213C18.3687 3.98008 18.4104 3.81803 18.4519 3.65595C18.4582 3.63122 18.4582 3.63122 18.4647 3.60598C18.5299 3.3516 18.5938 3.09692 18.6572 2.84209C18.7459 2.48571 18.8372 2.13018 18.9323 1.77547C18.9484 1.71518 18.9643 1.65483 18.98 1.59445C18.9844 1.57747 18.9888 1.56049 18.9934 1.54299C19.0012 1.51297 19.009 1.48293 19.0167 1.45289C19.041 1.35987 19.041 1.35987 19.0617 1.31839C19.5395 1.31446 20.0174 1.31149 20.4952 1.30967C20.7171 1.3088 20.9389 1.30762 21.1608 1.30569C21.3542 1.30402 21.5476 1.30293 21.7409 1.30256C21.8433 1.30234 21.9457 1.30182 22.0481 1.3006C22.1445 1.29946 22.2409 1.29911 22.3373 1.29936C22.3726 1.29931 22.408 1.29898 22.4434 1.29833C22.7091 1.29372 22.7091 1.29372 22.7946 1.3544C22.8408 1.41027 22.8723 1.45497 22.8779 1.52832C22.8739 1.56892 22.8639 1.60392 22.8513 1.64271C22.8473 1.65714 22.8434 1.67157 22.8393 1.68643C22.831 1.71689 22.8223 1.74725 22.8133 1.77753C22.7962 1.83577 22.7817 1.89449 22.7672 1.9534C22.752 2.01452 22.7361 2.07544 22.7203 2.13639C22.6978 2.22315 22.6755 2.30997 22.6532 2.39678C22.6485 2.41513 22.6438 2.43349 22.6389 2.4524C22.5703 2.71994 22.5038 2.98804 22.4372 3.25609C22.3816 3.47955 22.3246 3.7026 22.2662 3.92535C22.228 4.071 22.1908 4.21689 22.1536 4.36278C22.1314 4.4496 22.1092 4.53641 22.0871 4.62322C22.0803 4.64962 22.0803 4.64962 22.0734 4.67655C22.0329 4.83515 21.9923 4.99371 21.9516 5.15227C21.9401 5.1971 21.9286 5.24193 21.9171 5.28677C21.852 5.54061 21.852 5.54061 21.8222 5.65671C21.7968 5.75534 21.7715 5.85399 21.7462 5.95263C21.742 5.96914 21.7378 5.98564 21.7334 6.00264C21.6584 6.29532 21.5852 6.58843 21.5123 6.88162C21.4494 7.13409 21.3849 7.386 21.3177 7.63734C21.2656 7.83204 21.2156 8.02717 21.1671 8.22279C21.1128 8.4418 21.0571 8.66043 21.0009 8.87898C20.9257 9.17189 20.852 9.46515 20.779 9.75863C20.7118 10.0285 20.6433 10.2979 20.5713 10.5665C20.5131 10.784 20.458 11.0023 20.4039 11.2208C20.3537 11.4233 20.3016 11.6251 20.2464 11.8262C20.2077 11.9673 20.172 12.1089 20.1368 12.2508C20.1209 12.3153 20.1048 12.3797 20.0888 12.4441C20.0854 12.4574 20.0821 12.4708 20.0787 12.4845C19.9245 13.1033 19.7677 13.7214 19.6089 14.339C19.605 14.3538 19.6012 14.3687 19.5973 14.3839C19.5826 14.4411 19.5679 14.4983 19.5532 14.5554C19.4782 14.8466 19.4057 15.1383 19.3331 15.4301C19.2704 15.682 19.2064 15.9334 19.1383 16.1839C19.0694 16.4393 19.0066 16.6962 18.9428 16.9528C18.883 17.1934 18.8227 17.4338 18.758 17.6732C18.7061 17.8651 18.6565 18.0574 18.6084 18.2503C18.605 18.264 18.6016 18.2777 18.5981 18.2919C18.576 18.3807 18.5539 18.4695 18.5319 18.5583C18.4905 18.7251 18.4491 18.8919 18.4075 19.0587C18.4027 19.0778 18.398 19.097 18.3931 19.1167C18.3255 19.3875 18.256 19.6576 18.1838 19.9272C18.1363 20.1044 18.0911 20.282 18.0479 20.4603C18.0417 20.4856 18.0417 20.4856 18.0354 20.5114C18.0319 20.5261 18.0284 20.5407 18.0247 20.5558C18.015 20.589 18.015 20.589 17.9963 20.6077C17.9486 20.6095 17.9013 20.6101 17.8536 20.61C17.8384 20.61 17.8233 20.61 17.8077 20.61C17.7566 20.61 17.7055 20.6099 17.6545 20.6098C17.618 20.6098 17.5815 20.6098 17.5451 20.6098C17.4457 20.6098 17.3464 20.6097 17.2471 20.6096C17.1434 20.6095 17.0397 20.6095 16.9361 20.6095C16.7396 20.6094 16.5431 20.6092 16.3467 20.6091C16.123 20.6088 15.8994 20.6087 15.6758 20.6086C15.2157 20.6085 14.7556 20.6081 14.2954 20.6077C14.2725 20.5163 14.2496 20.425 14.2267 20.3336C14.2189 20.3026 14.2111 20.2716 14.2033 20.2406C14.1575 20.0581 14.1126 19.8755 14.0711 19.6918C14.0273 19.4983 13.9796 19.3059 13.931 19.1136C13.8814 18.9175 13.8336 18.7213 13.7908 18.5236C13.7489 18.3303 13.7025 18.1384 13.6541 17.9465C13.6488 17.9254 13.6488 17.9254 13.6433 17.9038C13.6361 17.8751 13.6288 17.8463 13.6216 17.8176C13.618 17.8033 13.6144 17.7889 13.6107 17.7742C13.607 17.7597 13.6034 17.7453 13.5996 17.7304C13.5591 17.5694 13.5194 17.4081 13.48 17.2468C13.4748 17.2251 13.4748 17.2251 13.4694 17.203C13.4217 17.0074 13.3764 16.8114 13.3328 16.6148C13.2769 16.3626 13.2133 16.1128 13.1483 15.8629C13.1448 15.8495 13.1413 15.8362 13.1378 15.8224C13.1326 15.8027 13.1326 15.8027 13.1274 15.7826C13.079 15.5961 13.0352 15.4086 12.9919 15.2208C12.9237 14.9249 12.8529 14.6298 12.7787 14.3354C12.7294 14.1397 12.6822 13.9438 12.6377 13.747C12.5979 13.5726 12.5543 13.3992 12.5104 13.2259C12.4609 13.0298 12.413 12.8336 12.3702 12.6359C12.3283 12.4426 12.2819 12.2506 12.2336 12.0588C12.2282 12.0377 12.2282 12.0377 12.2228 12.0161C12.2156 11.9874 12.2083 11.9586 12.2011 11.9299C12.1975 11.9156 12.1938 11.9013 12.1901 11.8865C12.1865 11.8721 12.1829 11.8577 12.1791 11.8428C12.1385 11.6814 12.0989 11.5197 12.0595 11.3579C12.056 11.3434 12.0524 11.3289 12.0488 11.3139C11.9971 11.1014 11.9472 10.8884 11.898 10.6753C11.848 10.4599 11.794 10.2456 11.74 10.0312C11.682 9.80056 11.6263 9.56963 11.5737 9.33771C11.5296 9.14385 11.4825 8.95071 11.4357 8.75748C11.3318 9.14616 11.2334 9.53609 11.1443 9.92843C11.1004 10.1203 11.0523 10.3111 11.0041 10.502C10.9526 10.7066 10.9034 10.9115 10.8568 11.1172C10.8274 11.246 10.795 11.3735 10.7607 11.501C10.7289 11.6197 10.7012 11.7392 10.674 11.8591C10.6285 12.0596 10.5795 12.259 10.5292 12.4583C10.4806 12.6511 10.4329 12.8439 10.389 13.0378C10.3428 13.2416 10.2926 13.4444 10.2415 13.6471C10.182 13.8837 10.1238 14.1206 10.0664 14.3577C10.0239 14.5328 9.98102 14.7077 9.93689 14.8824C9.89994 15.0288 9.86523 15.1755 9.83175 15.3228C9.78327 15.5359 9.73054 15.7479 9.67706 15.9598C9.62548 16.1644 9.57634 16.3693 9.5297 16.5751C9.50362 16.6894 9.47563 16.803 9.44507 16.9162C9.40246 17.0741 9.3655 17.2331 9.32908 17.3926C9.27915 17.6112 9.22682 17.8291 9.17405 18.047C9.16784 18.0727 9.16164 18.0984 9.15543 18.124C9.07537 18.4552 8.99423 18.7861 8.91128 19.1166C8.85667 19.3343 8.80297 19.5521 8.74999 19.7701C8.74648 19.7845 8.74297 19.799 8.73936 19.8139C8.70413 19.9589 8.66912 20.1039 8.63456 20.2491C8.62673 20.2819 8.62673 20.2819 8.61873 20.3155C8.60917 20.3557 8.59966 20.3959 8.59019 20.4361C8.58606 20.4535 8.58194 20.4709 8.57768 20.4888C8.57239 20.5112 8.57239 20.5112 8.56699 20.5342C8.55724 20.5703 8.55724 20.5703 8.53855 20.6077C7.32343 20.6077 6.10832 20.6077 4.85638 20.6077C4.53288 19.3541 4.53288 19.3541 4.4275 18.9297C4.38231 18.748 4.33553 18.5668 4.28881 18.3856C4.22267 18.1288 4.15826 17.8716 4.09422 17.6143C4.01915 17.3126 3.94345 17.0113 3.86222 16.7112C3.81535 16.5374 3.77128 16.3631 3.7279 16.1884C3.67116 15.96 3.61366 15.7318 3.555 15.5038C3.47461 15.1913 3.39497 14.8786 3.31552 14.5658C3.234 14.2448 3.15236 13.9239 3.0702 13.6032C2.99402 13.3057 2.91813 13.0082 2.8424 12.7107C2.83423 12.6786 2.83423 12.6786 2.82589 12.6458C2.76225 12.3957 2.69867 12.1456 2.63512 11.8956C2.48311 11.2974 2.33085 10.6993 2.17726 10.1015C2.1626 10.0445 2.14795 9.9874 2.1333 9.93036C2.12965 9.91614 2.126 9.90193 2.12224 9.88729C2.03908 9.56327 1.95686 9.23901 1.87458 8.91476C1.79291 8.59287 1.71108 8.27102 1.62842 7.94938C1.55226 7.65298 1.47678 7.3564 1.40136 7.05981C1.34501 6.83822 1.28865 6.61663 1.23182 6.39516C1.22756 6.37859 1.22331 6.36201 1.21893 6.34493C1.21264 6.32041 1.21264 6.32041 1.20622 6.29539C1.19788 6.26291 1.18955 6.23043 1.18122 6.19796C1.17712 6.18197 1.17301 6.16598 1.16879 6.1495C1.10541 5.90237 1.04335 5.65493 0.981751 5.40736C0.887796 5.02978 0.790847 4.65312 0.690876 4.2771C0.629135 4.04481 0.568076 3.81242 0.510349 3.57909C0.495115 3.51754 0.47978 3.45602 0.464455 3.3945C0.459779 3.37572 0.459779 3.37572 0.455009 3.35656C0.384679 3.07421 0.313477 2.79209 0.241208 2.51022C0.22804 2.45883 0.2149 2.40744 0.201769 2.35604C0.193222 2.3226 0.184675 2.28916 0.176128 2.25572C0.171983 2.23951 0.16784 2.22329 0.163571 2.20659C0.140884 2.11795 0.117994 2.02937 0.0948429 1.94085C0.0850632 1.90338 0.0753661 1.86588 0.0657052 1.82838C0.0543225 1.78424 0.0427913 1.74013 0.031079 1.69608C0.0237288 1.66735 0.0237288 1.66735 0.0162301 1.63803C0.0119594 1.62171 0.00768869 1.60539 0.00328859 1.58858C-0.0109232 1.49013 0.0221239 1.42462 0.0793209 1.34684C0.120444 1.30716 0.161307 1.30262 0.217247 1.3015C0.23833 1.30207 0.238331 1.30207 0.259839 1.30265C0.274955 1.30254 0.290071 1.30243 0.305645 1.30231C0.356261 1.3021 0.406821 1.30282 0.457432 1.30353C0.493723 1.30357 0.530014 1.30355 0.566305 1.30347C0.664819 1.30344 0.763313 1.30421 0.861823 1.30512C0.964773 1.30594 1.06772 1.30601 1.17068 1.30617C1.36563 1.30658 1.56057 1.30765 1.75552 1.30896C1.97746 1.31042 2.1994 1.31114 2.42134 1.3118C2.87789 1.31317 3.33444 1.31547 3.79098 1.31839C3.81895 1.42215 3.84688 1.52592 3.87478 1.62969C3.88424 1.66486 3.89371 1.70003 3.90319 1.73519C3.96081 1.94898 4.01718 2.16295 4.07018 2.37794C4.07653 2.40362 4.08287 2.42929 4.08922 2.45496C4.0946 2.47672 4.09998 2.49848 4.10552 2.5209C4.15583 2.7237 4.20892 2.92578 4.26177 3.12793C4.26648 3.14598 4.2712 3.16404 4.27607 3.18265C4.31567 3.33414 4.35531 3.48562 4.39535 3.637C4.44077 3.80875 4.48514 3.98071 4.52782 4.15317C4.71637 4.91536 4.71637 4.91536 4.91629 5.67463C4.93872 5.75747 4.96069 5.84044 4.98255 5.92343C4.98581 5.93574 4.98907 5.94806 4.99244 5.96074C5.01523 6.04725 5.03699 6.13401 5.05862 6.22081C5.10336 6.4003 5.14925 6.5795 5.19516 6.75869C5.20422 6.7941 5.21329 6.8295 5.22235 6.86491C5.24988 6.97242 5.27742 7.07992 5.30497 7.18742C5.3112 7.21172 5.3112 7.21172 5.31755 7.23651C5.36412 7.41822 5.41071 7.59993 5.45732 7.78163C5.4961 7.93282 5.53487 8.08402 5.57364 8.23522C5.59311 8.31118 5.61259 8.38714 5.63207 8.4631C5.63985 8.49347 5.64764 8.52384 5.65543 8.55422C5.65928 8.56925 5.66314 8.58429 5.66711 8.59978C5.7411 8.88832 5.81508 9.17687 5.88907 9.46541C5.89292 9.48045 5.89678 9.49548 5.90075 9.51097C5.90854 9.54135 5.91633 9.57173 5.92412 9.6021C5.94357 9.67798 5.96303 9.75385 5.98248 9.82973C6.01771 9.9671 6.05293 10.1045 6.08814 10.2418C6.17344 10.5746 6.25881 10.9074 6.34443 11.2401C6.38036 11.3797 6.41621 11.5194 6.45192 11.6591C6.53962 12.002 6.62807 12.3448 6.71732 12.6873C6.72478 12.7159 6.72478 12.7159 6.73238 12.7452C6.74645 12.7992 6.76054 12.8532 6.77464 12.9072C6.77885 12.9234 6.78307 12.9396 6.78742 12.9563C6.79131 12.9712 6.7952 12.9861 6.79921 13.0014C6.80259 13.0144 6.80597 13.0273 6.80945 13.0407C6.81785 13.0711 6.82765 13.1012 6.83765 13.1312C6.89031 12.9245 6.94287 12.7177 6.99536 12.5109C7.00132 12.4874 7.00132 12.4874 7.00741 12.4634C7.1271 11.9918 7.24508 11.5197 7.361 11.0472C7.47315 10.5901 7.58725 10.1336 7.70527 9.67794C7.72329 9.60835 7.74125 9.53874 7.75921 9.46914C7.76601 9.44282 7.7728 9.41649 7.7796 9.39017C7.78285 9.37757 7.7861 9.36497 7.78946 9.35198C7.79882 9.3157 7.8082 9.27941 7.81757 9.24313C7.89403 8.94704 7.89403 8.94704 7.96546 8.64971C8.00645 8.47258 8.05201 8.29677 8.09801 8.12088C8.13146 7.99257 8.16337 7.86411 8.19298 7.73487C8.22267 7.60654 8.25635 7.47927 8.29031 7.35201C8.3172 7.25054 8.34225 7.14875 8.36602 7.04651C8.41891 6.81946 8.47607 6.59348 8.53271 6.36735C8.53882 6.34293 8.54492 6.31852 8.55103 6.29411C8.62214 6.00976 8.69369 5.72552 8.76598 5.44147C8.7692 5.42882 8.77242 5.41616 8.77574 5.40312C8.7921 5.33886 8.80846 5.2746 8.82482 5.21035C8.82808 5.19754 8.83134 5.18473 8.8347 5.17153C8.84133 5.14547 8.84797 5.1194 8.8546 5.09334C8.96289 4.66797 9.0688 4.24206 9.17334 3.81576C9.29429 3.32254 9.41812 2.83008 9.54342 2.33795C9.54838 2.31846 9.54838 2.31846 9.55344 2.29858C9.56969 2.23475 9.58594 2.17092 9.60222 2.1071C9.63607 1.97423 9.66951 1.84127 9.70243 1.70817C9.7059 1.69419 9.70936 1.68022 9.71293 1.66581C9.72963 1.59847 9.74626 1.53112 9.76277 1.46373C9.76864 1.44001 9.77451 1.4163 9.78056 1.39186C9.78572 1.37085 9.79089 1.34983 9.79621 1.32819C9.81467 1.26291 9.81467 1.26291 9.88046 1.26001Z" fill="white"/>
<path d="M52.608 0.0389437C52.6272 0.0388829 52.6272 0.0388829 52.6467 0.0388209C52.6897 0.0387783 52.7327 0.0392753 52.7757 0.0397696C52.8068 0.039856 52.8379 0.0399104 52.869 0.0399354C52.9544 0.0401032 53.0398 0.040747 53.1251 0.0414746C53.2154 0.0421667 53.3056 0.0424329 53.3958 0.0427632C53.6171 0.0436827 53.8384 0.0453832 54.0598 0.0471905C54.1282 0.0477429 54.1966 0.0482732 54.265 0.048797C54.9103 0.0537404 55.5557 0.0596547 56.201 0.0664192C56.2134 0.0910916 56.2257 0.115764 56.2384 0.141184C56.2508 0.141184 56.2631 0.141184 56.2758 0.141184C56.2772 1.59621 56.2761 3.05121 56.2709 4.50623C56.2709 4.52415 56.2708 4.54206 56.2708 4.56052C56.2691 5.03258 56.2673 5.50464 56.2655 5.9767C56.2645 6.25827 56.2634 6.53983 56.2624 6.8214C56.2623 6.8418 56.2622 6.86221 56.2622 6.88323C56.2619 6.96616 56.2615 7.04909 56.2612 7.13202C56.2584 7.90128 56.2555 8.67054 56.2526 9.4398C56.2501 10.1153 56.2476 10.7909 56.2451 11.4664C56.2423 12.235 56.2395 13.0035 56.2366 13.772C56.2363 13.8547 56.2359 13.9374 56.2356 14.0201C56.2355 14.0506 56.2355 14.0506 56.2354 14.0818C56.2344 14.3624 56.2333 14.6431 56.2323 14.9238C56.2294 15.7245 56.2263 16.5253 56.2226 17.326C56.2209 17.6907 56.2194 18.0553 56.2184 18.4199C56.2176 18.6849 56.2166 18.9499 56.2153 19.2149C56.2146 19.3712 56.214 19.5275 56.2138 19.6839C56.2136 19.7996 56.213 19.9154 56.2123 20.0311C56.2121 20.078 56.2119 20.1249 56.212 20.1718C56.212 20.2351 56.2116 20.2984 56.211 20.3617C56.2111 20.3801 56.2112 20.3985 56.2114 20.4175C56.2096 20.5401 56.2096 20.5401 56.1659 20.6007C56.1163 20.6333 56.0869 20.636 56.0278 20.6359C56.0078 20.636 55.9878 20.6361 55.9672 20.6363C55.9454 20.636 55.9235 20.6358 55.901 20.6355C55.8663 20.6356 55.8663 20.6356 55.8309 20.6357C55.7672 20.6357 55.7036 20.6354 55.6399 20.6349C55.5723 20.6345 55.5048 20.6346 55.4372 20.6345C55.3227 20.6344 55.2083 20.634 55.0939 20.6334C54.9361 20.6326 54.7783 20.6323 54.6205 20.6321C53.9697 20.6312 53.3191 20.6243 52.6684 20.6081C52.6481 20.397 52.6279 20.1859 52.6076 19.9749C52.6062 19.9594 52.6047 19.9438 52.6031 19.9278C52.5562 19.4381 52.5093 18.9483 52.4628 18.4586C52.4204 18.5112 52.3786 18.564 52.3389 18.6187C52.2336 18.7624 52.1253 18.8985 52.0025 19.0277C51.9572 19.0749 51.9572 19.0749 51.9172 19.1283C51.9005 19.1484 51.9005 19.1484 51.8834 19.1688C51.871 19.1688 51.8587 19.1688 51.846 19.1688C51.8417 19.1792 51.8375 19.1896 51.8331 19.2004C51.7773 19.2988 51.6755 19.3824 51.5843 19.4492C51.572 19.4492 51.5596 19.4492 51.5469 19.4492C51.5408 19.4677 51.5346 19.4862 51.5282 19.5053C51.5017 19.5307 51.5017 19.5307 51.4674 19.5567C51.4547 19.5664 51.4419 19.5761 51.4288 19.5862C51.4081 19.6016 51.4081 19.6016 51.3869 19.6174C51.3655 19.6335 51.3655 19.6335 51.3436 19.65C50.8074 20.0511 50.212 20.4009 49.5657 20.5894C49.5532 20.5931 49.5407 20.5968 49.5278 20.6006C49.336 20.6572 49.142 20.6981 48.9453 20.7342C48.9243 20.7382 48.9032 20.7421 48.8815 20.7462C48.591 20.7974 48.2999 20.7985 48.0058 20.7984C47.9482 20.7985 47.8906 20.7988 47.833 20.7992C47.4845 20.8002 47.1387 20.7796 46.7959 20.7144C46.7739 20.7103 46.7519 20.7062 46.7293 20.702C45.4171 20.453 44.2807 19.7812 43.3368 18.8499C43.3261 18.8394 43.3154 18.829 43.3043 18.8182C43.2786 18.7925 43.2539 18.7658 43.2293 18.7389C43.2293 18.7266 43.2293 18.7143 43.2293 18.7016C43.2186 18.697 43.2078 18.6925 43.1967 18.6878C43.0459 18.6031 42.9364 18.4157 42.8311 18.2799C42.787 18.2232 42.7415 18.1679 42.6955 18.1128C42.5992 17.9956 42.5118 17.8729 42.4256 17.7483C42.4142 17.7318 42.4142 17.7318 42.4025 17.715C41.8721 16.9487 41.494 16.0761 41.2971 15.1656C41.289 15.1291 41.2806 15.0926 41.2718 15.0562C41.2333 14.8964 41.2052 14.7357 41.1815 14.5731C41.1795 14.5594 41.1775 14.5457 41.1754 14.5315C40.9695 13.1079 41.1155 11.6064 41.6593 10.2718C41.666 10.2552 41.6728 10.2385 41.6798 10.2214C41.7585 10.0294 41.8424 9.84279 41.9429 9.66129C41.9741 9.60423 42.0027 9.5466 42.0308 9.48796C42.102 9.34412 42.189 9.21021 42.2761 9.07558C42.2943 9.04732 42.2943 9.04732 42.3128 9.01849C42.482 8.76016 42.6634 8.51409 42.8676 8.28243C42.9065 8.23747 42.9434 8.19097 42.9805 8.14453C43.0458 8.06402 43.1156 7.99105 43.1898 7.91884C43.2266 7.88212 43.2602 7.84428 43.2936 7.80458C43.3554 7.73268 43.4236 7.67063 43.4947 7.60803C43.5427 7.56551 43.5896 7.52218 43.6364 7.47841C43.8378 7.29036 44.0525 7.12403 44.276 6.96347C44.2933 6.95109 44.3105 6.93871 44.3282 6.92595C44.9087 6.51435 45.5584 6.20394 46.2468 6.02284C46.2777 6.01469 46.3087 6.00638 46.3395 5.9979C46.7818 5.87684 47.2568 5.80898 47.7152 5.80462C47.7368 5.80426 47.7584 5.80391 47.7806 5.80354C48.4315 5.79349 49.0558 5.86464 49.6778 6.0663C49.6935 6.07115 49.7091 6.07601 49.7252 6.08101C50.2529 6.24482 50.7525 6.51755 51.1918 6.85133C51.2028 6.85969 51.2138 6.86805 51.2252 6.87666C51.3548 6.97547 51.48 7.07739 51.5996 7.18828C51.6412 7.22688 51.6412 7.22688 51.6923 7.26494C51.706 7.27648 51.7197 7.28803 51.7338 7.29992C51.7338 7.31225 51.7338 7.32459 51.7338 7.3373C51.7506 7.34483 51.7506 7.34483 51.7676 7.3525C51.8089 7.37486 51.834 7.39639 51.8659 7.43046C51.8817 7.44725 51.8817 7.44725 51.8978 7.46438C51.9088 7.47642 51.9199 7.48845 51.9313 7.50085C51.9427 7.51325 51.9542 7.52566 51.966 7.53844C52.1069 7.69261 52.2354 7.85466 52.3506 8.02887C52.3535 7.71715 52.3561 7.40542 52.3585 7.09369C52.3588 7.05363 52.3591 7.01356 52.3595 6.9735C52.3666 6.06716 52.3707 5.16083 52.3738 4.25447C52.3741 4.1693 52.3744 4.08414 52.3747 3.99897C52.3765 3.46706 52.3783 2.93515 52.3798 2.40324C52.3805 2.16746 52.3812 1.93168 52.382 1.6959C52.3825 1.55322 52.3829 1.41054 52.3833 1.26786C52.3835 1.15965 52.3839 1.05144 52.3843 0.943233C52.3844 0.899325 52.3845 0.855417 52.3846 0.811509C52.3849 0.681504 52.3857 0.551538 52.388 0.421552C52.3884 0.398232 52.3884 0.398232 52.3888 0.374442C52.3897 0.332358 52.3912 0.290342 52.3929 0.248285C52.3938 0.225498 52.3946 0.20271 52.3955 0.179232C52.4201 0.0553185 52.4925 0.0383878 52.608 0.0389437ZM48.1077 9.63632C48.0924 9.63865 48.0771 9.64099 48.0613 9.6434C47.6161 9.71251 47.181 9.86201 46.7994 10.1036C46.7885 10.1104 46.7776 10.1172 46.7664 10.1243C46.5908 10.2352 46.4306 10.3575 46.276 10.4961C46.2608 10.5098 46.2608 10.5098 46.2452 10.5237C46.0978 10.6554 46.0978 10.6554 45.9583 10.7952C45.9583 10.8075 45.9583 10.8198 45.9583 10.8326C45.9397 10.8387 45.9212 10.8449 45.9022 10.8512C45.8692 10.8883 45.8388 10.9252 45.8087 10.9646C45.7997 10.9762 45.7908 10.9879 45.7815 10.9999C45.609 11.2259 45.4603 11.4525 45.3414 11.711C45.3357 11.7233 45.3299 11.7355 45.3239 11.7481C44.9199 12.6049 44.8944 13.6576 45.2015 14.5477C45.3384 14.9229 45.5367 15.2718 45.79 15.5801C45.7987 15.5907 45.8073 15.6013 45.8162 15.6122C46.0182 15.8574 46.234 16.0776 46.4889 16.2679C46.5161 16.2882 46.5431 16.309 46.57 16.3298C46.983 16.6422 47.4669 16.842 47.9769 16.9259C47.9916 16.9284 48.0063 16.931 48.0214 16.9336C48.9722 17.0953 49.9409 16.9122 50.7416 16.3691C50.9251 16.2376 51.1092 16.0972 51.2666 15.9353C51.2757 15.926 51.2848 15.9168 51.2941 15.9073C51.6179 15.5783 51.8905 15.203 52.0703 14.7764C52.0785 14.757 52.0785 14.757 52.0869 14.7372C52.3703 14.0519 52.4311 13.2605 52.2946 12.5335C52.2917 12.518 52.2888 12.5025 52.2858 12.4865C52.1502 11.8027 51.7804 11.1999 51.3039 10.7017C51.287 10.684 51.27 10.6662 51.2525 10.648C51.0695 10.4608 50.8691 10.3021 50.6497 10.1597C50.6383 10.1522 50.6269 10.1448 50.6152 10.1371C49.8932 9.67265 48.9537 9.49788 48.1077 9.63632Z" fill="white"/>
<path d="M32.1819 6.91765C32.2237 6.94706 32.2675 6.97157 32.3122 6.99621C32.3698 7.03054 32.4252 7.06801 32.4806 7.10573C32.4972 7.11685 32.4972 7.11685 32.5142 7.12821C32.5415 7.14699 32.5678 7.16715 32.5939 7.1875C32.5939 7.19984 32.5939 7.21217 32.5939 7.22488C32.607 7.2291 32.62 7.23332 32.6335 7.23766C32.6991 7.26761 32.7484 7.30962 32.8019 7.35689C32.8234 7.37557 32.845 7.39424 32.8665 7.41289C32.8773 7.42219 32.888 7.43149 32.899 7.44106C32.9444 7.4799 32.9911 7.51703 33.0378 7.55432C33.1186 7.61996 33.192 7.69002 33.2645 7.76459C33.3024 7.80251 33.3416 7.83739 33.3825 7.87207C33.4412 7.92246 33.4911 7.97599 33.5403 8.03561C33.5929 8.09808 33.6529 8.15335 33.7119 8.20968C33.7528 8.2529 33.7528 8.2529 33.7528 8.29028C33.7635 8.2946 33.7743 8.29891 33.7854 8.30335C33.8383 8.3339 33.8658 8.36951 33.9035 8.41762C33.952 8.47878 34.0005 8.53934 34.0518 8.59825C34.0658 8.61441 34.0658 8.61441 34.08 8.6309C34.0983 8.65191 34.1167 8.67285 34.1351 8.6937C34.1786 8.74405 34.2122 8.78355 34.2201 8.85102C34.2324 8.85102 34.2447 8.85102 34.2574 8.85102C34.2837 8.88464 34.3083 8.91959 34.3322 8.95499C34.3396 8.96591 34.347 8.97683 34.3546 8.98808C34.3703 9.01144 34.3861 9.03484 34.4017 9.05827C34.4248 9.0928 34.4482 9.12711 34.4717 9.1614C34.7521 9.57297 34.992 10.0131 35.1733 10.4772C35.1802 10.4945 35.187 10.5119 35.1941 10.5298C35.296 10.7889 35.3837 11.0488 35.4537 11.3183C35.4597 11.3411 35.4597 11.3411 35.4659 11.3644C35.5203 11.571 35.5614 11.7794 35.5974 11.99C35.6011 12.0117 35.6049 12.0335 35.6088 12.0559C35.6715 12.4371 35.685 12.8168 35.6838 13.2026C35.6838 13.2376 35.6838 13.2376 35.6837 13.2734C35.6794 15.0119 35.1281 16.693 33.9804 18.0177C33.9383 18.0656 33.9383 18.0656 33.9023 18.1219C33.89 18.1219 33.8776 18.1219 33.8649 18.1219C33.8598 18.1329 33.8548 18.144 33.8495 18.1555C33.8279 18.1959 33.8058 18.2241 33.7745 18.2574C33.764 18.2686 33.7535 18.2799 33.7426 18.2915C33.7313 18.3034 33.72 18.3152 33.7084 18.3275C33.6909 18.346 33.6909 18.346 33.6731 18.3649C33.5044 18.5429 33.3345 18.7195 33.1418 18.8718C33.0972 18.9067 33.0972 18.9067 33.0557 18.95C32.7811 19.223 32.4513 19.4458 32.1266 19.6545C32.1143 19.6625 32.1019 19.6705 32.0892 19.6788C31.9502 19.7685 31.8115 19.8534 31.662 19.9248C31.6188 19.946 31.5771 19.9678 31.5352 19.9912C31.037 20.2684 30.4588 20.4651 29.9024 20.5891C29.8853 20.5929 29.8682 20.5967 29.8506 20.6007C29.7065 20.6321 29.5618 20.6583 29.4164 20.6826C29.3948 20.6863 29.3732 20.6901 29.351 20.6939C28.5673 20.8245 27.7141 20.8069 26.9305 20.6826C26.9176 20.6805 26.9047 20.6785 26.8914 20.6764C26.5549 20.6226 26.2266 20.545 25.9025 20.4396C25.8847 20.4338 25.8668 20.4281 25.8485 20.4222C25.5723 20.3324 25.3068 20.2234 25.0427 20.1031C25.0268 20.096 25.0109 20.0888 24.9945 20.0814C24.7777 19.9836 24.5721 19.8731 24.3698 19.748C24.3503 19.736 24.3309 19.7241 24.3109 19.7117C24.197 19.6403 24.0868 19.5642 23.9773 19.4863C23.957 19.4723 23.9368 19.4582 23.9159 19.4438C23.7708 19.3425 23.6351 19.2341 23.5014 19.1184C23.456 19.0796 23.4093 19.0424 23.3628 19.005C23.2934 18.9486 23.2292 18.8901 23.1671 18.8258C23.1351 18.7937 23.1017 18.7645 23.0672 18.7352C22.9226 18.6102 22.7871 18.4726 22.6633 18.3271C22.6263 18.284 22.588 18.2421 22.5497 18.2001C22.3425 17.9702 22.1511 17.7238 21.9773 17.4677C21.9705 17.4577 21.9636 17.4478 21.9566 17.4375C21.8302 17.2531 21.7134 17.0642 21.6035 16.8696C21.5965 16.8572 21.5895 16.8448 21.5823 16.8321C21.2956 16.3213 21.0863 15.7691 20.9439 15.2021C20.9328 15.1588 20.9213 15.1156 20.9092 15.0726C20.5179 13.6322 20.6638 12.0151 21.3391 10.185C21.3624 10.1367 21.3849 10.0881 21.4072 10.0394C21.4842 9.87298 21.5637 9.71312 21.6631 9.5588C21.6973 9.5047 21.7277 9.44959 21.7577 9.39306C21.7944 9.32436 21.8339 9.26613 21.8839 9.20615C21.8997 9.17771 21.8997 9.17771 21.9158 9.14869C21.9641 9.06303 22.0216 8.98485 22.0801 8.90592C22.0916 8.89036 22.1031 8.87479 22.115 8.85876C22.2112 8.72985 22.3136 8.60791 22.4198 8.48722C22.4574 8.44364 22.4929 8.39845 22.5287 8.35337C22.6002 8.26501 22.6778 8.18507 22.7594 8.1061C22.815 8.05206 22.8636 7.99572 22.9119 7.93515C22.9339 7.91464 22.9565 7.89475 22.9796 7.87557C23.04 7.8241 23.0959 7.77001 23.1514 7.71319C23.3922 7.46976 23.3922 7.46976 23.51 7.43049C23.51 7.41815 23.51 7.40581 23.51 7.3931C23.544 7.36381 23.578 7.33688 23.614 7.31016C23.6249 7.30193 23.6358 7.2937 23.6471 7.28522C23.6704 7.26768 23.6938 7.2502 23.7172 7.23277C23.7517 7.20712 23.7861 7.18126 23.8204 7.15538C24.3475 6.76034 24.9441 6.41872 25.566 6.19687C25.5873 6.18918 25.6086 6.18149 25.6305 6.17357C25.821 6.10748 26.0151 6.05523 26.21 6.00389C26.2505 5.99314 26.2909 5.98207 26.3313 5.97082C28.0465 5.51147 29.9968 5.75493 32.1819 6.91765ZM27.4725 9.7482C27.4588 9.7507 27.445 9.7532 27.4309 9.75578C26.8576 9.86416 26.3313 10.1425 25.8882 10.5169C25.8464 10.5519 25.8464 10.5519 25.8035 10.5823C25.793 10.5908 25.7825 10.5993 25.7716 10.608C25.7716 10.6203 25.7716 10.6327 25.7716 10.6454C25.7616 10.6492 25.7516 10.6531 25.7413 10.6571C25.6797 10.6927 25.6297 10.7397 25.5847 10.7949C25.5847 10.8072 25.5847 10.8196 25.5847 10.8323C25.5742 10.8363 25.5637 10.8404 25.5529 10.8446C25.4956 10.8781 25.4627 10.9209 25.4212 10.9725C25.3988 10.9999 25.3988 10.9999 25.3759 11.028C25.3381 11.0706 25.3381 11.0706 25.3417 11.1127C25.3294 11.1127 25.3171 11.1127 25.3043 11.1127C25.2776 11.1495 25.2534 11.1861 25.2296 11.2248C25.2218 11.2371 25.2141 11.2493 25.2061 11.262C24.6803 12.0975 24.4706 13.0845 24.6872 14.0588C24.7349 14.2604 24.7908 14.4557 24.8744 14.6453C24.8812 14.6606 24.8879 14.6759 24.8949 14.6917C25.0811 15.1084 25.3264 15.456 25.6408 15.7855C25.655 15.8004 25.6692 15.8154 25.6839 15.8309C26.2718 16.4355 27.1126 16.8171 27.9585 16.8322C27.9775 16.8326 27.9964 16.8329 28.016 16.8333C28.8096 16.847 29.5678 16.6909 30.2201 16.2154C30.2306 16.2078 30.241 16.2003 30.2518 16.1925C30.414 16.0745 30.5614 15.9429 30.7061 15.8042C30.7238 15.7874 30.7416 15.7707 30.7598 15.7534C31.1307 15.3947 31.4166 14.9292 31.5731 14.438C31.5833 14.4063 31.5943 14.3749 31.6054 14.3435C31.6729 14.1449 31.7032 13.9363 31.7341 13.7294C31.7361 13.7165 31.7381 13.7036 31.7402 13.6903C31.7604 13.5401 31.7574 13.3877 31.7575 13.2364C31.7575 13.2214 31.7575 13.2064 31.7575 13.1909C31.7574 12.9669 31.7479 12.752 31.6967 12.5332C31.6939 12.5204 31.6911 12.5077 31.6883 12.4945C31.6476 12.3101 31.5919 12.1316 31.5285 11.9538C31.523 11.938 31.5175 11.9222 31.5119 11.9059C31.415 11.6452 31.2661 11.4082 31.1041 11.1838C31.0872 11.1602 31.0706 11.1364 31.0543 11.1124C31.0326 11.0807 31.0096 11.0499 30.9865 11.0192C30.9741 11.0192 30.9618 11.0192 30.9491 11.0192C30.944 11.0081 30.9389 10.9971 30.9337 10.9857C30.9121 10.9452 30.8898 10.9165 30.8587 10.883C30.8482 10.8717 30.8376 10.8603 30.8268 10.8486C30.8155 10.8367 30.8042 10.8247 30.7926 10.8124C30.7809 10.8001 30.7693 10.7878 30.7574 10.7751C30.5695 10.5622 30.5695 10.5622 30.3323 10.4211C30.3323 10.4087 30.3323 10.3964 30.3323 10.3837C30.2949 10.3553 30.2949 10.3553 30.2458 10.3265C30.1862 10.2899 30.1273 10.2533 30.0699 10.2134C29.6291 9.91098 29.1169 9.78023 28.594 9.71082C28.5731 9.70788 28.5731 9.70788 28.5518 9.70489C28.1956 9.65919 27.8245 9.6824 27.4725 9.7482Z" fill="white"/>
<path d="M36.7251 0.000794064C36.7403 0.000677432 36.7555 0.000560799 36.7712 0.000440632C36.8222 0.000142097 36.8732 0.000378772 36.9242 0.000613814C36.9607 0.000512522 36.9973 0.000379411 37.0338 0.000216808C37.1331 -0.000124485 37.2324 8.31003e-06 37.3316 0.000245151C37.4355 0.000434194 37.5393 0.000258959 37.6431 0.000141514C37.8174 5.42227e-06 37.9918 0.000184941 38.1661 0.000540802C38.3678 0.000947701 38.5695 0.000815909 38.7712 0.000404251C38.9442 6.51758e-05 39.1173 1.69925e-05 39.2903 0.000212753C39.3937 0.000329426 39.4971 0.00034454 39.6005 9.7878e-05C39.6977 -0.000117795 39.7949 3.11722e-05 39.8921 0.000463796C39.9279 0.000562816 39.9636 0.000533988 39.9993 0.000369393C40.048 0.000165706 40.0966 0.000420556 40.1453 0.000794064C40.1595 0.000627284 40.1737 0.000460505 40.1883 0.000288671C40.2487 0.00118953 40.2892 0.00675873 40.3412 0.0382378C40.3824 0.105681 40.38 0.168795 40.379 0.245469C40.3791 0.270254 40.3791 0.270254 40.3793 0.29554C40.3795 0.351627 40.3792 0.407697 40.3788 0.463783C40.3789 0.50458 40.379 0.545378 40.3791 0.586176C40.3792 0.700191 40.3789 0.8142 40.3786 0.928214C40.3783 1.04134 40.3783 1.15446 40.3784 1.26759C40.3784 1.52165 40.378 1.77571 40.3774 2.02977C40.3769 2.25986 40.3766 2.48996 40.3764 2.72005C40.3748 4.41412 40.3693 6.10819 40.3476 12.2694C40.3474 12.3225 40.3472 12.3756 40.347 12.4287C40.3448 13.0028 40.3426 13.577 40.34 14.1511C40.3391 14.3683 40.3382 14.5855 40.3372 14.8026C40.3371 14.8407 40.3369 14.8788 40.3367 14.9169C40.3336 15.6367 40.3317 16.3565 40.3307 17.0763C40.3304 17.2747 40.33 17.4731 40.3296 17.6714C40.3296 17.6842 40.3295 17.6971 40.3295 17.7103C40.3292 17.8382 40.3289 17.966 40.3286 18.0939C40.3279 18.3772 40.3276 18.6605 40.3276 18.9437C40.3276 19.1256 40.3273 19.3075 40.3267 19.4894C40.3264 19.5938 40.3262 19.6982 40.3264 19.8027C40.3266 19.898 40.3264 19.9933 40.3259 20.0887C40.3258 20.1232 40.3258 20.1577 40.326 20.1921C40.3263 20.2388 40.326 20.2855 40.3255 20.3322C40.3257 20.3456 40.3259 20.3591 40.3261 20.373C40.3248 20.4444 40.3151 20.4753 40.2705 20.5322C40.2043 20.5828 40.1493 20.5837 40.0691 20.5825C40.0464 20.5827 40.0464 20.5827 40.0233 20.5829C39.9726 20.5833 39.922 20.583 39.8714 20.5827C39.8351 20.5828 39.7987 20.583 39.7624 20.5832C39.6638 20.5836 39.5652 20.5835 39.4665 20.5832C39.3633 20.5829 39.2602 20.5832 39.157 20.5833C38.9837 20.5835 38.8104 20.5833 38.6371 20.5828C38.4368 20.5823 38.2364 20.5825 38.036 20.583C37.864 20.5834 37.692 20.5835 37.52 20.5832C37.4173 20.5831 37.3145 20.5831 37.2118 20.5834C37.1152 20.5836 37.0186 20.5834 36.922 20.5829C36.8865 20.5828 36.8511 20.5828 36.8156 20.583C36.7672 20.5833 36.7189 20.583 36.6705 20.5825C36.6494 20.5828 36.6494 20.5828 36.6279 20.5831C36.5608 20.5819 36.5237 20.5738 36.469 20.5341C36.4095 20.4555 36.4133 20.398 36.4151 20.3018C36.4151 20.284 36.4151 20.2661 36.415 20.2477C36.415 20.1872 36.4157 20.1268 36.4164 20.0663C36.4165 20.0224 36.4166 19.9785 36.4167 19.9347C36.4169 19.8385 36.4174 19.7422 36.4182 19.646C36.4193 19.5011 36.42 19.3562 36.4204 19.2113C36.4212 18.9776 36.4223 18.7439 36.4237 18.5102C36.4259 18.1238 36.4271 17.7374 36.4282 17.3511C36.4286 17.1969 36.4291 17.0427 36.4295 16.8885C36.4295 16.8712 36.4296 16.8538 36.4296 16.836C36.4309 16.4136 36.4324 15.9911 36.434 15.5687C36.4341 15.5497 36.4341 15.5307 36.4342 15.5111C36.4349 15.3357 36.4355 15.1603 36.4362 14.985C36.4372 14.7015 36.4383 14.4181 36.4393 14.1347C36.4394 14.104 36.4394 14.104 36.4396 14.0726C36.4399 13.9893 36.4402 13.906 36.4405 13.8227C36.4433 13.0485 36.4462 12.2743 36.4491 11.5001C36.4516 10.8205 36.4542 10.1409 36.4566 9.46123C36.4594 8.68863 36.4623 7.91604 36.4651 7.14344C36.4655 7.0602 36.4658 6.97696 36.4661 6.89373C36.4662 6.87325 36.4662 6.85277 36.4663 6.83167C36.4674 6.54948 36.4684 6.26729 36.4694 5.9851C36.47 5.81069 36.4707 5.63628 36.4713 5.46188C36.4714 5.44295 36.4715 5.42402 36.4715 5.40451C36.4731 4.98088 36.4747 4.55725 36.4766 4.13362C36.4766 4.11609 36.4767 4.09856 36.4768 4.0805C36.4775 3.92327 36.4782 3.76603 36.4789 3.60879C36.4807 3.21044 36.4823 2.8121 36.4834 2.41374C36.4841 2.12748 36.4851 1.84123 36.4864 1.55497C36.4872 1.38406 36.4877 1.21315 36.4879 1.04223C36.4881 0.928324 36.4885 0.814419 36.4892 0.700512C36.4896 0.635437 36.4898 0.570368 36.4897 0.505293C36.4897 0.435238 36.4902 0.365201 36.4907 0.295149C36.4906 0.274712 36.4905 0.254276 36.4903 0.23322C36.4921 0.0977309 36.4921 0.0977309 36.5345 0.0351274C36.596 -0.00215604 36.6554 -2.49105e-05 36.7251 0.000794064Z" fill="white"/>
<path d="M61.3029 16.8269C61.7417 17.1815 62.0507 17.627 62.1685 18.1832C62.1718 18.1978 62.1751 18.2125 62.1785 18.2276C62.3034 18.8344 62.1575 19.4574 61.8292 19.9741C61.7896 20.0337 61.7492 20.0925 61.7013 20.1457C61.6889 20.1457 61.6766 20.1457 61.6639 20.1457C61.6575 20.1608 61.6575 20.1608 61.651 20.1761C61.5917 20.2834 61.5019 20.374 61.4022 20.4448C61.3899 20.4448 61.3775 20.4448 61.3648 20.4448C61.3648 20.4571 61.3648 20.4695 61.3648 20.4822C61.325 20.513 61.2854 20.541 61.2433 20.5686C61.2307 20.5769 61.2182 20.5852 61.2052 20.5938C60.6848 20.9295 60.0658 21.0751 59.4542 20.9465C59.4309 20.9413 59.4076 20.9361 59.3836 20.9308C59.3543 20.925 59.3543 20.925 59.3246 20.9192C59.0036 20.8497 58.6784 20.6763 58.4303 20.4635C58.4076 20.4442 58.4076 20.4442 58.3844 20.4245C57.9318 20.0288 57.6407 19.4766 57.5892 18.8747C57.554 18.2199 57.7527 17.6423 58.1686 17.1365C58.1768 17.1264 58.1849 17.1164 58.1933 17.106C58.2362 17.0535 58.2793 17.0051 58.331 16.9612C58.3419 16.9518 58.3527 16.9424 58.3639 16.9328C58.3929 16.9122 58.3929 16.9122 58.4303 16.9122C58.4303 16.8998 58.4303 16.8875 58.4303 16.8748C59.2348 16.189 60.4764 16.203 61.3029 16.8269Z" fill="white"/>
<path d="M33.6724 22.2488C33.6847 22.2549 33.697 22.2611 33.7097 22.2675C33.6159 22.3782 33.5197 22.4893 33.4107 22.5852C33.3983 22.5852 33.386 22.5852 33.3733 22.5852C33.425 22.4631 33.528 22.3622 33.635 22.2862C33.6473 22.2862 33.6596 22.2862 33.6724 22.2862C33.6724 22.2738 33.6724 22.2615 33.6724 22.2488Z" fill="#185D3B"/>
</svg>
