<svg width="16" height="16" viewBox="0 0 16 16" fill="none" xmlns="http://www.w3.org/2000/svg">
<path d="M12.1819 1.53508C12.2237 1.56449 12.2675 1.589 12.3122 1.61364C12.3698 1.64797 12.4252 1.68544 12.4806 1.72316C12.4972 1.73429 12.4972 1.73428 12.5142 1.74564C12.5415 1.76442 12.5678 1.78458 12.5939 1.80493C12.5939 1.81727 12.5939 1.8296 12.5939 1.84231C12.607 1.84653 12.62 1.85075 12.6335 1.85509C12.6991 1.88505 12.7484 1.92706 12.8019 1.97432C12.8234 1.99301 12.845 2.01167 12.8665 2.03032C12.8773 2.03962 12.888 2.04892 12.899 2.0585C12.9444 2.09733 12.9911 2.13447 13.0378 2.17175C13.1186 2.23739 13.192 2.30745 13.2645 2.38202C13.3024 2.41994 13.3416 2.45482 13.3825 2.4895C13.4412 2.53989 13.4911 2.59342 13.5403 2.65305C13.5929 2.71551 13.6529 2.77078 13.7119 2.82711C13.7528 2.87033 13.7528 2.87033 13.7528 2.90771C13.7635 2.91203 13.7743 2.91634 13.7854 2.92078C13.8383 2.95133 13.8658 2.98694 13.9035 3.03505C13.952 3.09621 14.0005 3.15677 14.0518 3.21568C14.0658 3.23184 14.0658 3.23184 14.08 3.24833C14.0983 3.26935 14.1167 3.29028 14.1351 3.31113C14.1786 3.36149 14.2122 3.40098 14.2201 3.46845C14.2324 3.46845 14.2447 3.46845 14.2574 3.46845C14.2837 3.50207 14.3083 3.53702 14.3322 3.57242C14.3396 3.58334 14.347 3.59426 14.3546 3.60551C14.3703 3.62887 14.3861 3.65227 14.4017 3.67571C14.4248 3.71023 14.4482 3.74455 14.4717 3.77883C14.7521 4.1904 14.992 4.63055 15.1733 5.09459C15.1802 5.11196 15.187 5.12932 15.1941 5.14722C15.296 5.40632 15.3837 5.66622 15.4537 5.93569C15.4597 5.95852 15.4597 5.95852 15.4659 5.9818C15.5203 6.18846 15.5614 6.39681 15.5974 6.60741C15.6011 6.62918 15.6049 6.65094 15.6088 6.67337C15.6715 7.05456 15.685 7.43423 15.6838 7.82C15.6838 7.85508 15.6838 7.85508 15.6837 7.89086C15.6794 9.62931 15.1281 11.3104 13.9804 12.6351C13.9383 12.6831 13.9383 12.6831 13.9023 12.7393C13.89 12.7393 13.8776 12.7393 13.8649 12.7393C13.8598 12.7504 13.8548 12.7615 13.8495 12.7729C13.8279 12.8133 13.8058 12.8415 13.7745 12.8748C13.764 12.8861 13.7535 12.8973 13.7426 12.9089C13.7313 12.9208 13.72 12.9327 13.7084 12.9449C13.6909 12.9634 13.6909 12.9634 13.6731 12.9823C13.5044 13.1603 13.3345 13.3369 13.1418 13.4893C13.0972 13.5241 13.0972 13.5241 13.0557 13.5675C12.7811 13.8405 12.4513 14.0632 12.1266 14.272C12.1143 14.28 12.1019 14.288 12.0892 14.2962C11.9502 14.3859 11.8115 14.4708 11.662 14.5422C11.6188 14.5634 11.5771 14.5852 11.5352 14.6086C11.037 14.8859 10.4588 15.0826 9.90238 15.2065C9.88529 15.2104 9.86819 15.2142 9.85057 15.2181C9.70651 15.2495 9.56182 15.2757 9.41641 15.3C9.39481 15.3037 9.37321 15.3075 9.35096 15.3113C8.56728 15.4419 7.71408 15.4243 6.93048 15.3C6.91759 15.298 6.90469 15.2959 6.8914 15.2938C6.55493 15.24 6.22659 15.1625 5.90247 15.057C5.88466 15.0513 5.86685 15.0455 5.8485 15.0396C5.57233 14.9499 5.30683 14.8408 5.04267 14.7206C5.02676 14.7134 5.01085 14.7062 4.99446 14.6989C4.77767 14.601 4.57207 14.4905 4.36979 14.3654C4.35034 14.3535 4.3309 14.3415 4.31087 14.3291C4.19696 14.2577 4.0868 14.1817 3.97727 14.1038C3.95703 14.0897 3.93679 14.0757 3.91594 14.0612C3.77085 13.96 3.63514 13.8515 3.5014 13.7358C3.45598 13.6971 3.40933 13.6599 3.3628 13.6225C3.29338 13.566 3.22924 13.5075 3.16712 13.4432C3.13514 13.4111 3.10174 13.3819 3.06724 13.3526C2.92262 13.2277 2.78714 13.09 2.66327 12.9445C2.62627 12.9014 2.58802 12.8595 2.54973 12.8176C2.34255 12.5876 2.15113 12.3412 1.97731 12.0851C1.97048 12.0751 1.96365 12.0652 1.9566 12.0549C1.83023 11.8705 1.71341 11.6816 1.60349 11.487C1.59648 11.4746 1.58948 11.4623 1.58226 11.4495C1.29563 10.9387 1.08633 10.3866 0.943867 9.81956C0.932843 9.77619 0.921292 9.73308 0.909213 9.69C0.517947 8.24964 0.663765 6.63256 1.33911 4.80242C1.36242 4.75417 1.38487 4.70557 1.40723 4.65688C1.48418 4.49041 1.56366 4.33056 1.66307 4.17623C1.69727 4.12213 1.7277 4.06703 1.75769 4.0105C1.79443 3.94179 1.83388 3.88356 1.88386 3.82358C1.89969 3.79514 1.89969 3.79514 1.91584 3.76612C1.96414 3.68046 2.02163 3.60229 2.08011 3.52336C2.09161 3.50779 2.10311 3.49223 2.11496 3.47619C2.21115 3.34728 2.31363 3.22534 2.41981 3.10465C2.45742 3.06107 2.49293 3.01588 2.5287 2.9708C2.6002 2.88244 2.6778 2.8025 2.75935 2.72353C2.81497 2.66949 2.8636 2.61315 2.91187 2.55258C2.93387 2.53207 2.95646 2.51218 2.97963 2.493C3.04004 2.44153 3.09594 2.38744 3.15135 2.33062C3.39218 2.08719 3.39218 2.08719 3.50999 2.04792C3.50999 2.03558 3.50999 2.02325 3.50999 2.01054C3.54399 1.98124 3.578 1.95431 3.61396 1.92759C3.62488 1.91936 3.6358 1.91113 3.64705 1.90266C3.67041 1.88511 3.69381 1.86763 3.71725 1.8502C3.75173 1.82455 3.78606 1.79869 3.82037 1.77281C4.34753 1.37778 4.94408 1.03615 5.56602 0.814298C5.5873 0.806612 5.60857 0.798925 5.63049 0.791007C5.82095 0.724912 6.01511 0.672666 6.20998 0.621325C6.25051 0.610573 6.29094 0.599498 6.33134 0.588251C8.04648 0.128904 9.99677 0.37236 12.1819 1.53508ZM7.47253 4.36563C7.45878 4.36813 7.44503 4.37064 7.43087 4.37321C6.85757 4.48159 6.33133 4.75994 5.88815 5.13431C5.84639 5.16935 5.84639 5.16935 5.80346 5.19973C5.79296 5.20821 5.78245 5.21669 5.77163 5.22543C5.77163 5.23776 5.77163 5.2501 5.77163 5.26281C5.7616 5.26666 5.75158 5.27052 5.74125 5.27449C5.67967 5.31014 5.62969 5.35717 5.58471 5.41234C5.58471 5.42467 5.58471 5.43701 5.58471 5.44972C5.57421 5.45377 5.5637 5.45782 5.55288 5.46199C5.49555 5.49553 5.46273 5.5383 5.42117 5.5899C5.39876 5.61737 5.39876 5.61737 5.3759 5.64539C5.33808 5.68803 5.33808 5.68803 5.34173 5.73009C5.32939 5.73009 5.31706 5.73009 5.30435 5.73009C5.27758 5.76691 5.25345 5.80356 5.22958 5.84224C5.22183 5.85451 5.21408 5.86678 5.20609 5.87942C4.68035 6.71497 4.47059 7.70191 4.68718 8.67628C4.73486 8.87782 4.79085 9.07314 4.87445 9.26273C4.8812 9.27805 4.88795 9.29337 4.8949 9.30915C5.08112 9.72587 5.32639 10.0735 5.64079 10.4029C5.655 10.4179 5.66922 10.4329 5.68387 10.4483C6.27178 11.053 7.11261 11.4345 7.9585 11.4496C7.97747 11.45 7.99645 11.4504 8.016 11.4508C8.8096 11.4644 9.56782 11.3084 10.2201 10.8328C10.2306 10.8253 10.241 10.8177 10.2518 10.8099C10.414 10.692 10.5614 10.5603 10.7061 10.4216C10.7238 10.4048 10.7416 10.3881 10.7598 10.3708C11.1307 10.0121 11.4166 9.54659 11.5731 9.05543C11.5833 9.02374 11.5943 8.99229 11.6054 8.9609C11.6729 8.76236 11.7032 8.55372 11.7341 8.34686C11.7361 8.33394 11.7381 8.32102 11.7402 8.30772C11.7604 8.15757 11.7574 8.00511 11.7575 7.85388C11.7575 7.83884 11.7575 7.8238 11.7575 7.80831C11.7574 7.58436 11.7479 7.36948 11.6967 7.15062C11.6939 7.13785 11.6911 7.12508 11.6883 7.11193C11.6476 6.92749 11.5919 6.74903 11.5285 6.57119C11.523 6.55539 11.5175 6.53958 11.5119 6.5233C11.415 6.2626 11.2661 6.0256 11.1041 5.80118C11.0872 5.77761 11.0706 5.7538 11.0543 5.72982C11.0326 5.69812 11.0096 5.66729 10.9865 5.63663C10.9741 5.63663 10.9618 5.63663 10.9491 5.63663C10.944 5.62556 10.9389 5.61449 10.9337 5.60309C10.9121 5.56259 10.8898 5.53396 10.8587 5.50046C10.8482 5.4891 10.8376 5.47773 10.8268 5.46602C10.8155 5.45408 10.8042 5.44215 10.7926 5.42986C10.7809 5.41753 10.7693 5.4052 10.7574 5.3925C10.5695 5.17966 10.5695 5.17966 10.3323 5.03851C10.3323 5.02618 10.3323 5.01384 10.3323 5.00113C10.2949 4.97276 10.2949 4.97276 10.2458 4.94389C10.1862 4.90735 10.1273 4.87076 10.0699 4.83087C9.62906 4.52841 9.11688 4.39766 8.594 4.32825C8.57313 4.32531 8.57313 4.32532 8.55184 4.32232C8.19565 4.27662 7.82448 4.29983 7.47253 4.36563Z" fill="#31BA77"/>
</svg>
